<svg xmlns="http://www.w3.org/2000/svg" width="265" height="216" viewBox="0 0 2650 2160"><circle cx="2460" cy="20" r="1.232"/><circle cx="60" cy="20" r="8.414"/><circle cx="100" cy="20" r="8.423"/><circle cx="140" cy="20" r="8.416"/><circle cx="180" cy="20" r="8.416"/><circle cx="220" cy="20" r="8.416"/><circle cx="260" cy="20" r="8.435"/><circle cx="300" cy="20" r="8.443"/><circle cx="340" cy="20" r="8.443"/><circle cx="380" cy="20" r="8.443"/><circle cx="420" cy="20" r="8.443"/><circle cx="460" cy="20" r="8.443"/><circle cx="500" cy="20" r="8.428"/><circle cx="540" cy="20" r="8.427"/><circle cx="580" cy="20" r="8.427"/><circle cx="620" cy="20" r="8.43"/><circle cx="660" cy="20" r="8.443"/><circle cx="700" cy="20" r="8.443"/><circle cx="740" cy="20" r="8.38"/><circle cx="780" cy="20" r="8.415"/><circle cx="820" cy="20" r="8.443"/><circle cx="860" cy="20" r="8.443"/><circle cx="900" cy="20" r="8.425"/><circle cx="940" cy="20" r="8.415"/><circle cx="980" cy="20" r="8.383"/><circle cx="1020" cy="20" r="8.376"/><circle cx="1060" cy="20" r="8.367"/><circle cx="1100" cy="20" r="8.361"/><circle cx="1140" cy="20" r="8.361"/><circle cx="1180" cy="20" r="8.361"/><circle cx="1220" cy="20" r="8.361"/><circle cx="1260" cy="20" r="8.361"/><circle cx="1300" cy="20" r="8.361"/><circle cx="1340" cy="20" r="8.361"/><circle cx="1380" cy="20" r="8.361"/><circle cx="1420" cy="20" r="8.361"/><circle cx="1460" cy="20" r="8.361"/><circle cx="1500" cy="20" r="8.361"/><circle cx="1540" cy="20" r="8.361"/><circle cx="1580" cy="20" r="8.37"/><circle cx="1620" cy="20" r="8.373"/><circle cx="1660" cy="20" r="8.387"/><circle cx="1700" cy="20" r="8.411"/><circle cx="1740" cy="20" r="8.428"/><circle cx="1780" cy="20" r="8.443"/><circle cx="1820" cy="20" r="8.443"/><circle cx="1860" cy="20" r="8.421"/><circle cx="1900" cy="20" r="8.388"/><circle cx="1940" cy="20" r="8.442"/><circle cx="1980" cy="20" r="8.443"/><circle cx="2020" cy="20" r="8.429"/><circle cx="2060" cy="20" r="8.427"/><circle cx="2100" cy="20" r="8.427"/><circle cx="2140" cy="20" r="8.431"/><circle cx="2180" cy="20" r="8.456"/><circle cx="2220" cy="20" r="8.443"/><circle cx="2260" cy="20" r="8.443"/><circle cx="2300" cy="20" r="8.443"/><circle cx="2340" cy="20" r="8.443"/><circle cx="2380" cy="20" r="8.44"/><circle cx="2420" cy="20" r="8.426"/><circle cx="2460" cy="20" r="8.416"/><circle cx="2500" cy="20" r="8.416"/><circle cx="2540" cy="20" r="8.425"/><circle cx="2580" cy="20" r="8.411"/><circle cx="2620" cy="20" r="4.698"/><circle cx="20" cy="60" r="9.526"/><circle cx="60" cy="60" r="17.804"/><circle cx="100" cy="60" r="17.804"/><circle cx="140" cy="60" r="17.804"/><circle cx="180" cy="60" r="17.804"/><circle cx="220" cy="60" r="17.804"/><circle cx="260" cy="60" r="17.804"/><circle cx="300" cy="60" r="17.804"/><circle cx="340" cy="60" r="17.804"/><circle cx="380" cy="60" r="17.804"/><circle cx="420" cy="60" r="17.804"/><circle cx="460" cy="60" r="17.804"/><circle cx="500" cy="60" r="17.804"/><circle cx="540" cy="60" r="17.804"/><circle cx="580" cy="60" r="17.804"/><circle cx="620" cy="60" r="17.804"/><circle cx="660" cy="60" r="17.804"/><circle cx="700" cy="60" r="17.804"/><circle cx="740" cy="60" r="17.804"/><circle cx="780" cy="60" r="17.804"/><circle cx="820" cy="60" r="17.804"/><circle cx="860" cy="60" r="17.804"/><circle cx="900" cy="60" r="17.804"/><circle cx="940" cy="60" r="17.804"/><circle cx="980" cy="60" r="17.804"/><circle cx="1020" cy="60" r="17.804"/><circle cx="1060" cy="60" r="17.804"/><circle cx="1100" cy="60" r="17.804"/><circle cx="1140" cy="60" r="17.804"/><circle cx="1180" cy="60" r="17.804"/><circle cx="1220" cy="60" r="17.804"/><circle cx="1260" cy="60" r="17.804"/><circle cx="1300" cy="60" r="17.804"/><circle cx="1340" cy="60" r="17.804"/><circle cx="1380" cy="60" r="17.804"/><circle cx="1420" cy="60" r="17.804"/><circle cx="1460" cy="60" r="17.804"/><circle cx="1500" cy="60" r="17.804"/><circle cx="1540" cy="60" r="17.804"/><circle cx="1580" cy="60" r="17.804"/><circle cx="1620" cy="60" r="17.804"/><circle cx="1660" cy="60" r="17.804"/><circle cx="1700" cy="60" r="17.804"/><circle cx="1740" cy="60" r="17.799"/><circle cx="1780" cy="60" r="17.801"/><circle cx="1820" cy="60" r="17.804"/><circle cx="1860" cy="60" r="17.804"/><circle cx="1900" cy="60" r="17.804"/><circle cx="1940" cy="60" r="17.804"/><circle cx="1980" cy="60" r="17.804"/><circle cx="2020" cy="60" r="17.804"/><circle cx="2060" cy="60" r="17.804"/><circle cx="2100" cy="60" r="17.804"/><circle cx="2140" cy="60" r="17.804"/><circle cx="2180" cy="60" r="17.804"/><circle cx="2220" cy="60" r="17.804"/><circle cx="2260" cy="60" r="17.804"/><circle cx="2300" cy="60" r="17.804"/><circle cx="2340" cy="60" r="17.804"/><circle cx="2380" cy="60" r="17.804"/><circle cx="2420" cy="60" r="17.804"/><circle cx="2460" cy="60" r="17.796"/><circle cx="2500" cy="60" r="17.803"/><circle cx="2540" cy="60" r="17.801"/><circle cx="2580" cy="60" r="17.803"/><circle cx="2620" cy="60" r="9.776"/><circle cx="20" cy="100" r="9.52"/><circle cx="60" cy="100" r="17.804"/><circle cx="100" cy="100" r="17.791"/><circle cx="140" cy="100" r="17.668"/><circle cx="180" cy="100" r="17.732"/><circle cx="220" cy="100" r="17.729"/><circle cx="260" cy="100" r="17.729"/><circle cx="300" cy="100" r="17.729"/><circle cx="340" cy="100" r="17.72"/><circle cx="380" cy="100" r="17.718"/><circle cx="420" cy="100" r="17.735"/><circle cx="460" cy="100" r="17.737"/><circle cx="500" cy="100" r="17.737"/><circle cx="540" cy="100" r="17.726"/><circle cx="580" cy="100" r="17.729"/><circle cx="620" cy="100" r="17.729"/><circle cx="660" cy="100" r="17.732"/><circle cx="700" cy="100" r="17.747"/><circle cx="740" cy="100" r="17.761"/><circle cx="780" cy="100" r="17.761"/><circle cx="820" cy="100" r="17.756"/><circle cx="860" cy="100" r="17.726"/><circle cx="900" cy="100" r="17.736"/><circle cx="940" cy="100" r="17.769"/><circle cx="980" cy="100" r="17.769"/><circle cx="1020" cy="100" r="17.76"/><circle cx="1060" cy="100" r="17.757"/><circle cx="1100" cy="100" r="17.757"/><circle cx="1140" cy="100" r="17.757"/><circle cx="1180" cy="100" r="17.757"/><circle cx="1220" cy="100" r="17.757"/><circle cx="1260" cy="100" r="17.757"/><circle cx="1300" cy="100" r="17.757"/><circle cx="1340" cy="100" r="17.757"/><circle cx="1380" cy="100" r="17.757"/><circle cx="1420" cy="100" r="17.757"/><circle cx="1460" cy="100" r="17.757"/><circle cx="1500" cy="100" r="17.757"/><circle cx="1540" cy="100" r="17.757"/><circle cx="1580" cy="100" r="17.757"/><circle cx="1620" cy="100" r="17.762"/><circle cx="1660" cy="100" r="17.769"/><circle cx="1700" cy="100" r="17.769"/><circle cx="1740" cy="100" r="17.734"/><circle cx="1780" cy="100" r="17.735"/><circle cx="1820" cy="100" r="17.757"/><circle cx="1860" cy="100" r="17.761"/><circle cx="1900" cy="100" r="17.761"/><circle cx="1940" cy="100" r="17.745"/><circle cx="1980" cy="100" r="17.731"/><circle cx="2020" cy="100" r="17.729"/><circle cx="2060" cy="100" r="17.729"/><circle cx="2100" cy="100" r="17.726"/><circle cx="2140" cy="100" r="17.737"/><circle cx="2180" cy="100" r="17.737"/><circle cx="2220" cy="100" r="17.733"/><circle cx="2260" cy="100" r="17.718"/><circle cx="2300" cy="100" r="17.722"/><circle cx="2340" cy="100" r="17.729"/><circle cx="2380" cy="100" r="17.729"/><circle cx="2420" cy="100" r="17.729"/><circle cx="2460" cy="100" r="17.723"/><circle cx="2500" cy="100" r="17.688"/><circle cx="2540" cy="100" r="17.789"/><circle cx="2580" cy="100" r="17.796"/><circle cx="2620" cy="100" r="9.768"/><circle cx="20" cy="140" r="9.526"/><circle cx="60" cy="140" r="17.804"/><circle cx="100" cy="140" r="17.733"/><circle cx="140" cy="140" r="7.767"/><circle cx="180" cy="140" r="4.976"/><circle cx="220" cy="140" r="4.98"/><circle cx="260" cy="140" r="4.98"/><circle cx="300" cy="140" r="4.98"/><circle cx="340" cy="140" r="4.958"/><circle cx="380" cy="140" r="4.953"/><circle cx="420" cy="140" r="4.949"/><circle cx="460" cy="140" r="4.949"/><circle cx="500" cy="140" r="4.949"/><circle cx="540" cy="140" r="4.934"/><circle cx="580" cy="140" r="4.941"/><circle cx="620" cy="140" r="4.941"/><circle cx="660" cy="140" r="4.941"/><circle cx="700" cy="140" r="4.939"/><circle cx="740" cy="140" r="4.937"/><circle cx="780" cy="140" r="4.937"/><circle cx="820" cy="140" r="4.928"/><circle cx="860" cy="140" r="4.914"/><circle cx="900" cy="140" r="4.906"/><circle cx="940" cy="140" r="4.898"/><circle cx="980" cy="140" r="4.898"/><circle cx="1020" cy="140" r="4.885"/><circle cx="1060" cy="140" r="4.878"/><circle cx="1100" cy="140" r="4.878"/><circle cx="1140" cy="140" r="4.878"/><circle cx="1180" cy="140" r="4.878"/><circle cx="1220" cy="140" r="4.878"/><circle cx="1260" cy="140" r="4.878"/><circle cx="1300" cy="140" r="4.878"/><circle cx="1340" cy="140" r="4.878"/><circle cx="1380" cy="140" r="4.878"/><circle cx="1420" cy="140" r="4.878"/><circle cx="1460" cy="140" r="4.878"/><circle cx="1500" cy="140" r="4.878"/><circle cx="1540" cy="140" r="4.878"/><circle cx="1580" cy="140" r="4.878"/><circle cx="1620" cy="140" r="4.887"/><circle cx="1660" cy="140" r="4.898"/><circle cx="1700" cy="140" r="4.898"/><circle cx="1740" cy="140" r="4.908"/><circle cx="1780" cy="140" r="4.914"/><circle cx="1820" cy="140" r="4.93"/><circle cx="1860" cy="140" r="4.937"/><circle cx="1900" cy="140" r="4.937"/><circle cx="1940" cy="140" r="4.94"/><circle cx="1980" cy="140" r="4.941"/><circle cx="2020" cy="140" r="4.941"/><circle cx="2060" cy="140" r="4.941"/><circle cx="2100" cy="140" r="4.934"/><circle cx="2140" cy="140" r="4.949"/><circle cx="2180" cy="140" r="4.949"/><circle cx="2220" cy="140" r="4.95"/><circle cx="2260" cy="140" r="4.953"/><circle cx="2300" cy="140" r="4.961"/><circle cx="2340" cy="140" r="4.98"/><circle cx="2380" cy="140" r="4.98"/><circle cx="2420" cy="140" r="4.98"/><circle cx="2460" cy="140" r="4.974"/><circle cx="2500" cy="140" r="7.631"/><circle cx="2540" cy="140" r="17.743"/><circle cx="2580" cy="140" r="17.798"/><circle cx="2620" cy="140" r="9.769"/><circle cx="20" cy="180" r="9.512"/><circle cx="60" cy="180" r="17.804"/><circle cx="100" cy="180" r="17.746"/><circle cx="140" cy="180" r="4.007"/><circle cx="2500" cy="180" r="3.832"/><circle cx="2540" cy="180" r="17.769"/><circle cx="2580" cy="180" r="17.804"/><circle cx="2620" cy="180" r="9.737"/><circle cx="20" cy="220" r="9.495"/><circle cx="60" cy="220" r="17.804"/><circle cx="100" cy="220" r="17.737"/><circle cx="140" cy="220" r="4.031"/><circle cx="2500" cy="220" r="3.845"/><circle cx="2540" cy="220" r="17.766"/><circle cx="2580" cy="220" r="17.804"/><circle cx="2620" cy="220" r="9.741"/><circle cx="20" cy="260" r="9.495"/><circle cx="60" cy="260" r="17.804"/><circle cx="100" cy="260" r="17.737"/><circle cx="140" cy="260" r="4.031"/><circle cx="2500" cy="260" r="3.846"/><circle cx="2540" cy="260" r="17.764"/><circle cx="2580" cy="260" r="17.804"/><circle cx="2620" cy="260" r="9.741"/><circle cx="20" cy="300" r="9.501"/><circle cx="60" cy="300" r="17.804"/><circle cx="100" cy="300" r="17.737"/><circle cx="140" cy="300" r="4.031"/><circle cx="2500" cy="300" r="3.843"/><circle cx="2540" cy="300" r="17.769"/><circle cx="2580" cy="300" r="17.801"/><circle cx="2620" cy="300" r="9.736"/><circle cx="20" cy="340" r="9.508"/><circle cx="60" cy="340" r="17.804"/><circle cx="100" cy="340" r="17.737"/><circle cx="140" cy="340" r="4.031"/><circle cx="2500" cy="340" r="3.843"/><circle cx="2540" cy="340" r="17.769"/><circle cx="2580" cy="340" r="17.796"/><circle cx="2620" cy="340" r="9.737"/><circle cx="20" cy="380" r="9.506"/><circle cx="60" cy="380" r="17.804"/><circle cx="100" cy="380" r="17.737"/><circle cx="140" cy="380" r="4.029"/><circle cx="2500" cy="380" r="3.845"/><circle cx="2540" cy="380" r="17.765"/><circle cx="2580" cy="380" r="17.796"/><circle cx="2620" cy="380" r="9.747"/><circle cx="20" cy="420" r="9.506"/><circle cx="60" cy="420" r="17.804"/><circle cx="100" cy="420" r="17.737"/><circle cx="140" cy="420" r="4.027"/><circle cx="2500" cy="420" r="3.819"/><circle cx="2540" cy="420" r="17.765"/><circle cx="2580" cy="420" r="17.796"/><circle cx="2620" cy="420" r="9.747"/><circle cx="20" cy="460" r="9.511"/><circle cx="60" cy="460" r="17.804"/><circle cx="100" cy="460" r="17.737"/><circle cx="140" cy="460" r="4.027"/><circle cx="2500" cy="460" r="3.796"/><circle cx="2540" cy="460" r="17.769"/><circle cx="2580" cy="460" r="17.801"/><circle cx="2620" cy="460" r="9.749"/><circle cx="20" cy="500" r="9.484"/><circle cx="60" cy="500" r="17.804"/><circle cx="100" cy="500" r="17.722"/><circle cx="140" cy="500" r="4.012"/><circle cx="860" cy="500" r="4.241"/><circle cx="900" cy="500" r="5.638"/><circle cx="940" cy="500" r="5.626"/><circle cx="980" cy="500" r="5.616"/><circle cx="1020" cy="500" r="5.616"/><circle cx="1060" cy="500" r="2.319"/><circle cx="1260" cy="500" r="5.727"/><circle cx="1300" cy="500" r="5.836"/><circle cx="1340" cy="500" r="5.827"/><circle cx="1380" cy="500" r="5.827"/><circle cx="1420" cy="500" r="5.827"/><circle cx="1460" cy="500" r="5.827"/><circle cx="1500" cy="500" r="5.827"/><circle cx="1540" cy="500" r="5.827"/><circle cx="1580" cy="500" r="5.832"/><circle cx="1620" cy="500" r="5.851"/><circle cx="1660" cy="500" r="5.867"/><circle cx="1700" cy="500" r="5.867"/><circle cx="1740" cy="500" r="5.857"/><circle cx="1780" cy="500" r="5.851"/><circle cx="1820" cy="500" r="5.851"/><circle cx="1860" cy="500" r="5.859"/><circle cx="1900" cy="500" r="5.881"/><circle cx="1940" cy="500" r="5.746"/><circle cx="1980" cy="500" r="4.502"/><circle cx="2020" cy="500" r="1.643"/><circle cx="2500" cy="500" r="3.794"/><circle cx="2540" cy="500" r="17.778"/><circle cx="2580" cy="500" r="17.799"/><circle cx="2620" cy="500" r="9.703"/><circle cx="20" cy="540" r="9.467"/><circle cx="60" cy="540" r="17.804"/><circle cx="100" cy="540" r="17.729"/><circle cx="140" cy="540" r="4.023"/><circle cx="820" cy="540" r="1.544"/><circle cx="860" cy="540" r="16.801"/><circle cx="900" cy="540" r="17.772"/><circle cx="940" cy="540" r="17.769"/><circle cx="980" cy="540" r="17.757"/><circle cx="1020" cy="540" r="17.754"/><circle cx="1060" cy="540" r="12.65"/><circle cx="1260" cy="540" r="13.326"/><circle cx="1300" cy="540" r="17.729"/><circle cx="1340" cy="540" r="17.792"/><circle cx="1380" cy="540" r="17.792"/><circle cx="1420" cy="540" r="17.792"/><circle cx="1460" cy="540" r="17.792"/><circle cx="1500" cy="540" r="17.792"/><circle cx="1540" cy="540" r="17.792"/><circle cx="1580" cy="540" r="17.785"/><circle cx="1620" cy="540" r="17.782"/><circle cx="1660" cy="540" r="17.792"/><circle cx="1700" cy="540" r="17.792"/><circle cx="1740" cy="540" r="17.792"/><circle cx="1780" cy="540" r="17.787"/><circle cx="1820" cy="540" r="17.784"/><circle cx="1860" cy="540" r="17.784"/><circle cx="1900" cy="540" r="17.8"/><circle cx="1940" cy="540" r="17.763"/><circle cx="1980" cy="540" r="17.751"/><circle cx="2020" cy="540" r="17.533"/><circle cx="2060" cy="540" r="13.917"/><circle cx="2100" cy="540" r="6.555"/><circle cx="2500" cy="540" r="3.813"/><circle cx="2540" cy="540" r="17.768"/><circle cx="2580" cy="540" r="17.796"/><circle cx="2620" cy="540" r="9.686"/><circle cx="20" cy="580" r="9.447"/><circle cx="60" cy="580" r="17.804"/><circle cx="100" cy="580" r="17.737"/><circle cx="140" cy="580" r="4.037"/><circle cx="820" cy="580" r="8.921"/><circle cx="860" cy="580" r="17.76"/><circle cx="900" cy="580" r="17.799"/><circle cx="940" cy="580" r="17.804"/><circle cx="980" cy="580" r="17.804"/><circle cx="1020" cy="580" r="17.804"/><circle cx="1060" cy="580" r="17.446"/><circle cx="1100" cy="580" r="3.108"/><circle cx="1260" cy="580" r="5.021"/><circle cx="1300" cy="580" r="17.705"/><circle cx="1340" cy="580" r="17.804"/><circle cx="1380" cy="580" r="17.804"/><circle cx="1420" cy="580" r="17.804"/><circle cx="1460" cy="580" r="17.804"/><circle cx="1500" cy="580" r="17.804"/><circle cx="1540" cy="580" r="17.804"/><circle cx="1580" cy="580" r="17.804"/><circle cx="1620" cy="580" r="17.804"/><circle cx="1660" cy="580" r="17.804"/><circle cx="1700" cy="580" r="17.804"/><circle cx="1740" cy="580" r="17.804"/><circle cx="1780" cy="580" r="17.804"/><circle cx="1820" cy="580" r="17.804"/><circle cx="1860" cy="580" r="17.804"/><circle cx="1900" cy="580" r="17.804"/><circle cx="1940" cy="580" r="17.804"/><circle cx="1980" cy="580" r="17.804"/><circle cx="2020" cy="580" r="17.784"/><circle cx="2060" cy="580" r="17.779"/><circle cx="2100" cy="580" r="17.567"/><circle cx="2140" cy="580" r="13.953"/><circle cx="2180" cy="580" r="2.777"/><circle cx="2500" cy="580" r="3.824"/><circle cx="2540" cy="580" r="17.778"/><circle cx="2580" cy="580" r="17.796"/><circle cx="2620" cy="580" r="9.68"/><circle cx="20" cy="620" r="9.442"/><circle cx="60" cy="620" r="17.804"/><circle cx="100" cy="620" r="17.761"/><circle cx="140" cy="620" r="4.027"/><circle cx="780" cy="620" r=".906"/><circle cx="820" cy="620" r="16.269"/><circle cx="860" cy="620" r="17.785"/><circle cx="900" cy="620" r="17.804"/><circle cx="940" cy="620" r="17.804"/><circle cx="980" cy="620" r="17.804"/><circle cx="1020" cy="620" r="17.804"/><circle cx="1060" cy="620" r="17.688"/><circle cx="1100" cy="620" r="10.76"/><circle cx="1300" cy="620" r="14.296"/><circle cx="1340" cy="620" r="17.785"/><circle cx="1380" cy="620" r="17.804"/><circle cx="1420" cy="620" r="17.804"/><circle cx="1460" cy="620" r="17.804"/><circle cx="1500" cy="620" r="17.804"/><circle cx="1540" cy="620" r="17.804"/><circle cx="1580" cy="620" r="17.804"/><circle cx="1620" cy="620" r="17.804"/><circle cx="1660" cy="620" r="17.804"/><circle cx="1700" cy="620" r="17.804"/><circle cx="1740" cy="620" r="17.804"/><circle cx="1780" cy="620" r="17.804"/><circle cx="1820" cy="620" r="17.804"/><circle cx="1860" cy="620" r="17.804"/><circle cx="1900" cy="620" r="17.804"/><circle cx="1940" cy="620" r="17.804"/><circle cx="1980" cy="620" r="17.804"/><circle cx="2020" cy="620" r="17.804"/><circle cx="2060" cy="620" r="17.804"/><circle cx="2100" cy="620" r="17.803"/><circle cx="2140" cy="620" r="17.767"/><circle cx="2180" cy="620" r="16.352"/><circle cx="2220" cy="620" r="3.716"/><circle cx="2500" cy="620" r="3.824"/><circle cx="2540" cy="620" r="17.784"/><circle cx="2580" cy="620" r="17.796"/><circle cx="2620" cy="620" r="9.68"/><circle cx="20" cy="660" r="9.442"/><circle cx="60" cy="660" r="17.804"/><circle cx="100" cy="660" r="17.769"/><circle cx="140" cy="660" r="4.024"/><circle cx="780" cy="660" r="7.603"/><circle cx="820" cy="660" r="17.676"/><circle cx="860" cy="660" r="17.798"/><circle cx="900" cy="660" r="17.804"/><circle cx="940" cy="660" r="17.804"/><circle cx="980" cy="660" r="17.804"/><circle cx="1020" cy="660" r="17.804"/><circle cx="1060" cy="660" r="17.802"/><circle cx="1100" cy="660" r="17.001"/><circle cx="1140" cy="660" r="1.985"/><circle cx="1300" cy="660" r="6.313"/><circle cx="1340" cy="660" r="17.745"/><circle cx="1380" cy="660" r="17.784"/><circle cx="1420" cy="660" r="17.784"/><circle cx="1460" cy="660" r="17.784"/><circle cx="1500" cy="660" r="17.784"/><circle cx="1540" cy="660" r="17.784"/><circle cx="1580" cy="660" r="17.784"/><circle cx="1620" cy="660" r="17.784"/><circle cx="1660" cy="660" r="17.784"/><circle cx="1700" cy="660" r="17.784"/><circle cx="1740" cy="660" r="17.784"/><circle cx="1780" cy="660" r="17.784"/><circle cx="1820" cy="660" r="17.784"/><circle cx="1860" cy="660" r="17.784"/><circle cx="1900" cy="660" r="17.784"/><circle cx="1940" cy="660" r="17.784"/><circle cx="1980" cy="660" r="17.801"/><circle cx="2020" cy="660" r="17.804"/><circle cx="2060" cy="660" r="17.804"/><circle cx="2100" cy="660" r="17.804"/><circle cx="2140" cy="660" r="17.803"/><circle cx="2180" cy="660" r="17.766"/><circle cx="2220" cy="660" r="16.059"/><circle cx="2260" cy="660" r="1.992"/><circle cx="2500" cy="660" r="3.824"/><circle cx="2540" cy="660" r="17.784"/><circle cx="2580" cy="660" r="17.796"/><circle cx="2620" cy="660" r="9.702"/><circle cx="20" cy="700" r="9.48"/><circle cx="60" cy="700" r="17.804"/><circle cx="100" cy="700" r="17.769"/><circle cx="140" cy="700" r="4.024"/><circle cx="780" cy="700" r="15.345"/><circle cx="820" cy="700" r="17.777"/><circle cx="860" cy="700" r="17.804"/><circle cx="900" cy="700" r="17.804"/><circle cx="940" cy="700" r="17.771"/><circle cx="980" cy="700" r="17.764"/><circle cx="1020" cy="700" r="17.796"/><circle cx="1060" cy="700" r="17.804"/><circle cx="1100" cy="700" r="17.757"/><circle cx="1140" cy="700" r="9.831"/><circle cx="1340" cy="700" r="3.398"/><circle cx="1380" cy="700" r="3.429"/><circle cx="1420" cy="700" r="3.42"/><circle cx="1460" cy="700" r="3.42"/><circle cx="1500" cy="700" r="3.423"/><circle cx="1540" cy="700" r="3.437"/><circle cx="1580" cy="700" r="3.438"/><circle cx="1620" cy="700" r="3.432"/><circle cx="1660" cy="700" r="3.448"/><circle cx="1700" cy="700" r="3.445"/><circle cx="1740" cy="700" r="3.448"/><circle cx="1780" cy="700" r="3.451"/><circle cx="1820" cy="700" r="3.442"/><circle cx="1860" cy="700" r="3.451"/><circle cx="1900" cy="700" r="3.463"/><circle cx="1940" cy="700" r="3.71"/><circle cx="1980" cy="700" r="6.29"/><circle cx="2020" cy="700" r="12.248"/><circle cx="2060" cy="700" r="17.431"/><circle cx="2100" cy="700" r="17.803"/><circle cx="2140" cy="700" r="17.804"/><circle cx="2180" cy="700" r="17.804"/><circle cx="2220" cy="700" r="17.765"/><circle cx="2260" cy="700" r="12.07"/><circle cx="2500" cy="700" r="3.824"/><circle cx="2540" cy="700" r="17.784"/><circle cx="2580" cy="700" r="17.796"/><circle cx="2620" cy="700" r="9.708"/><circle cx="20" cy="740" r="9.485"/><circle cx="60" cy="740" r="17.804"/><circle cx="100" cy="740" r="17.769"/><circle cx="140" cy="740" r="4.024"/><circle cx="740" cy="740" r="6.265"/><circle cx="780" cy="740" r="17.623"/><circle cx="820" cy="740" r="17.802"/><circle cx="860" cy="740" r="17.804"/><circle cx="900" cy="740" r="17.739"/><circle cx="940" cy="740" r="12.48"/><circle cx="980" cy="740" r="16.155"/><circle cx="1020" cy="740" r="17.791"/><circle cx="1060" cy="740" r="17.804"/><circle cx="1100" cy="740" r="17.804"/><circle cx="1140" cy="740" r="16.493"/><circle cx="1180" cy="740" r="1.125"/><circle cx="2060" cy="740" r="5.281"/><circle cx="2100" cy="740" r="16.765"/><circle cx="2140" cy="740" r="17.778"/><circle cx="2180" cy="740" r="17.804"/><circle cx="2220" cy="740" r="17.788"/><circle cx="2260" cy="740" r="17.568"/><circle cx="2300" cy="740" r="3.464"/><circle cx="2500" cy="740" r="3.824"/><circle cx="2540" cy="740" r="17.784"/><circle cx="2580" cy="740" r="17.796"/><circle cx="2620" cy="740" r="9.714"/><circle cx="20" cy="780" r="9.485"/><circle cx="60" cy="780" r="17.804"/><circle cx="100" cy="780" r="17.764"/><circle cx="140" cy="780" r="3.993"/><circle cx="740" cy="780" r="14.199"/><circle cx="780" cy="780" r="17.711"/><circle cx="820" cy="780" r="17.804"/><circle cx="860" cy="780" r="17.804"/><circle cx="900" cy="780" r="17.525"/><circle cx="940" cy="780" r="3.721"/><circle cx="980" cy="780" r="8.821"/><circle cx="1020" cy="780" r="17.756"/><circle cx="1060" cy="780" r="17.803"/><circle cx="1100" cy="780" r="17.804"/><circle cx="1140" cy="780" r="17.748"/><circle cx="1180" cy="780" r="7.906"/><circle cx="2100" cy="780" r="6.813"/><circle cx="2140" cy="780" r="17.672"/><circle cx="2180" cy="780" r="17.804"/><circle cx="2220" cy="780" r="17.803"/><circle cx="2260" cy="780" r="17.783"/><circle cx="2300" cy="780" r="9.724"/><circle cx="2500" cy="780" r="3.794"/><circle cx="2540" cy="780" r="17.784"/><circle cx="2580" cy="780" r="17.796"/><circle cx="2620" cy="780" r="9.708"/><circle cx="20" cy="820" r="9.475"/><circle cx="60" cy="820" r="17.804"/><circle cx="100" cy="820" r="17.729"/><circle cx="140" cy="820" r="3.969"/><circle cx="700" cy="820" r="4.881"/><circle cx="740" cy="820" r="17.531"/><circle cx="780" cy="820" r="17.804"/><circle cx="820" cy="820" r="17.804"/><circle cx="860" cy="820" r="17.72"/><circle cx="900" cy="820" r="13.173"/><circle cx="980" cy="820" r="1.462"/><circle cx="1020" cy="820" r="16.77"/><circle cx="1060" cy="820" r="17.789"/><circle cx="1100" cy="820" r="17.804"/><circle cx="1140" cy="820" r="17.786"/><circle cx="1180" cy="820" r="15.474"/><circle cx="2140" cy="820" r="15.731"/><circle cx="2180" cy="820" r="17.786"/><circle cx="2220" cy="820" r="17.804"/><circle cx="2260" cy="820" r="17.791"/><circle cx="2300" cy="820" r="13.918"/><circle cx="2500" cy="820" r="3.792"/><circle cx="2540" cy="820" r="17.784"/><circle cx="2580" cy="820" r="17.796"/><circle cx="2620" cy="820" r="9.708"/><circle cx="20" cy="860" r="9.475"/><circle cx="60" cy="860" r="17.804"/><circle cx="100" cy="860" r="17.729"/><circle cx="140" cy="860" r="3.969"/><circle cx="700" cy="860" r="13.048"/><circle cx="740" cy="860" r="17.749"/><circle cx="780" cy="860" r="17.804"/><circle cx="820" cy="860" r="17.804"/><circle cx="860" cy="860" r="17.659"/><circle cx="900" cy="860" r="5.059"/><circle cx="1020" cy="860" r="10.112"/><circle cx="1060" cy="860" r="17.758"/><circle cx="1100" cy="860" r="17.803"/><circle cx="1140" cy="860" r="17.804"/><circle cx="1180" cy="860" r="17.735"/><circle cx="1220" cy="860" r="6.312"/><circle cx="2140" cy="860" r="12.09"/><circle cx="2180" cy="860" r="17.793"/><circle cx="2220" cy="860" r="17.804"/><circle cx="2260" cy="860" r="17.802"/><circle cx="2300" cy="860" r="15.875"/><circle cx="2500" cy="860" r="3.79"/><circle cx="2540" cy="860" r="17.783"/><circle cx="2580" cy="860" r="17.796"/><circle cx="2620" cy="860" r="9.708"/><circle cx="20" cy="900" r="9.475"/><circle cx="60" cy="900" r="17.804"/><circle cx="100" cy="900" r="17.729"/><circle cx="140" cy="900" r="3.969"/><circle cx="660" cy="900" r="3.575"/><circle cx="700" cy="900" r="17.483"/><circle cx="740" cy="900" r="17.804"/><circle cx="780" cy="900" r="17.804"/><circle cx="820" cy="900" r="17.789"/><circle cx="860" cy="900" r="14.579"/><circle cx="1020" cy="900" r="2.263"/><circle cx="1060" cy="900" r="17.268"/><circle cx="1100" cy="900" r="17.787"/><circle cx="1140" cy="900" r="17.804"/><circle cx="1180" cy="900" r="17.779"/><circle cx="1220" cy="900" r="14.295"/><circle cx="2140" cy="900" r="11.962"/><circle cx="2180" cy="900" r="17.763"/><circle cx="2220" cy="900" r="17.804"/><circle cx="2260" cy="900" r="17.804"/><circle cx="2300" cy="900" r="15.919"/><circle cx="2500" cy="900" r="3.769"/><circle cx="2540" cy="900" r="17.776"/><circle cx="2580" cy="900" r="17.796"/><circle cx="2620" cy="900" r="9.708"/><circle cx="20" cy="940" r="9.475"/><circle cx="60" cy="940" r="17.804"/><circle cx="100" cy="940" r="17.729"/><circle cx="140" cy="940" r="3.969"/><circle cx="660" cy="940" r="11.567"/><circle cx="700" cy="940" r="17.779"/><circle cx="740" cy="940" r="17.804"/><circle cx="780" cy="940" r="17.804"/><circle cx="820" cy="940" r="17.68"/><circle cx="860" cy="940" r="6.43"/><circle cx="1060" cy="940" r="11.342"/><circle cx="1100" cy="940" r="17.748"/><circle cx="1140" cy="940" r="17.804"/><circle cx="1180" cy="940" r="17.804"/><circle cx="1220" cy="940" r="17.575"/><circle cx="1260" cy="940" r="4.984"/><circle cx="2140" cy="940" r="15.63"/><circle cx="2180" cy="940" r="17.764"/><circle cx="2220" cy="940" r="17.804"/><circle cx="2260" cy="940" r="17.775"/><circle cx="2300" cy="940" r="14.096"/><circle cx="2500" cy="940" r="3.769"/><circle cx="2540" cy="940" r="17.776"/><circle cx="2580" cy="940" r="17.796"/><circle cx="2620" cy="940" r="9.708"/><circle cx="20" cy="980" r="9.475"/><circle cx="60" cy="980" r="17.804"/><circle cx="100" cy="980" r="17.729"/><circle cx="140" cy="980" r="3.969"/><circle cx="620" cy="980" r="2.45"/><circle cx="660" cy="980" r="17.306"/><circle cx="700" cy="980" r="17.804"/><circle cx="740" cy="980" r="17.804"/><circle cx="780" cy="980" r="17.777"/><circle cx="820" cy="980" r="15.477"/><circle cx="1060" cy="980" r="3.316"/><circle cx="1100" cy="980" r="17.483"/><circle cx="1140" cy="980" r="17.8"/><circle cx="1180" cy="980" r="17.804"/><circle cx="1220" cy="980" r="17.755"/><circle cx="1260" cy="980" r="13.019"/><circle cx="2100" cy="980" r="7.538"/><circle cx="2140" cy="980" r="17.662"/><circle cx="2180" cy="980" r="17.804"/><circle cx="2220" cy="980" r="17.804"/><circle cx="2260" cy="980" r="17.751"/><circle cx="2300" cy="980" r="10.082"/><circle cx="2500" cy="980" r="3.769"/><circle cx="2540" cy="980" r="17.776"/><circle cx="2580" cy="980" r="17.796"/><circle cx="2620" cy="980" r="9.708"/><circle cx="20" cy="1020" r="9.475"/><circle cx="60" cy="1020" r="17.804"/><circle cx="100" cy="1020" r="17.729"/><circle cx="140" cy="1020" r="3.969"/><circle cx="620" cy="1020" r="10.174"/><circle cx="660" cy="1020" r="17.779"/><circle cx="700" cy="1020" r="17.804"/><circle cx="740" cy="1020" r="17.803"/><circle cx="780" cy="1020" r="17.733"/><circle cx="820" cy="1020" r="7.785"/><circle cx="1100" cy="1020" r="12.506"/><circle cx="1140" cy="1020" r="17.752"/><circle cx="1180" cy="1020" r="17.804"/><circle cx="1220" cy="1020" r="17.804"/><circle cx="1260" cy="1020" r="17.453"/><circle cx="1300" cy="1020" r="3.745"/><circle cx="2060" cy="1020" r="8.018"/><circle cx="2100" cy="1020" r="17.241"/><circle cx="2140" cy="1020" r="17.771"/><circle cx="2180" cy="1020" r="17.804"/><circle cx="2220" cy="1020" r="17.775"/><circle cx="2260" cy="1020" r="17.505"/><circle cx="2300" cy="1020" r="3.663"/><circle cx="2500" cy="1020" r="3.769"/><circle cx="2540" cy="1020" r="17.776"/><circle cx="2580" cy="1020" r="17.796"/><circle cx="2620" cy="1020" r="9.708"/><circle cx="20" cy="1060" r="9.475"/><circle cx="60" cy="1060" r="17.804"/><circle cx="100" cy="1060" r="17.729"/><circle cx="140" cy="1060" r="3.969"/><circle cx="580" cy="1060" r="1.502"/><circle cx="620" cy="1060" r="16.841"/><circle cx="660" cy="1060" r="17.798"/><circle cx="700" cy="1060" r="17.804"/><circle cx="740" cy="1060" r="17.791"/><circle cx="780" cy="1060" r="16.325"/><circle cx="820" cy="1060" r=".978"/><circle cx="1100" cy="1060" r="4.509"/><circle cx="1140" cy="1060" r="17.674"/><circle cx="1180" cy="1060" r="17.794"/><circle cx="1220" cy="1060" r="17.804"/><circle cx="1260" cy="1060" r="17.784"/><circle cx="1300" cy="1060" r="11.76"/><circle cx="1540" cy="1060" r="5.834"/><circle cx="1580" cy="1060" r="8.797"/><circle cx="1620" cy="1060" r="8.814"/><circle cx="1660" cy="1060" r="8.822"/><circle cx="1700" cy="1060" r="8.795"/><circle cx="1740" cy="1060" r="8.776"/><circle cx="1780" cy="1060" r="8.773"/><circle cx="1820" cy="1060" r="8.815"/><circle cx="1860" cy="1060" r="8.85"/><circle cx="1900" cy="1060" r="8.846"/><circle cx="1940" cy="1060" r="9.032"/><circle cx="1980" cy="1060" r="10.935"/><circle cx="2020" cy="1060" r="15.676"/><circle cx="2060" cy="1060" r="17.68"/><circle cx="2100" cy="1060" r="17.779"/><circle cx="2140" cy="1060" r="17.804"/><circle cx="2180" cy="1060" r="17.8"/><circle cx="2220" cy="1060" r="17.712"/><circle cx="2260" cy="1060" r="11.956"/><circle cx="2500" cy="1060" r="3.769"/><circle cx="2540" cy="1060" r="17.776"/><circle cx="2580" cy="1060" r="17.796"/><circle cx="2620" cy="1060" r="9.708"/><circle cx="20" cy="1100" r="9.475"/><circle cx="60" cy="1100" r="17.804"/><circle cx="100" cy="1100" r="17.729"/><circle cx="140" cy="1100" r="3.969"/><circle cx="580" cy="1100" r="8.771"/><circle cx="620" cy="1100" r="17.739"/><circle cx="660" cy="1100" r="17.804"/><circle cx="700" cy="1100" r="17.802"/><circle cx="740" cy="1100" r="17.656"/><circle cx="780" cy="1100" r="9.215"/><circle cx="1140" cy="1100" r="13.785"/><circle cx="1180" cy="1100" r="17.776"/><circle cx="1220" cy="1100" r="17.804"/><circle cx="1260" cy="1100" r="17.803"/><circle cx="1300" cy="1100" r="17.352"/><circle cx="1340" cy="1100" r="2.698"/><circle cx="1540" cy="1100" r="11.787"/><circle cx="1580" cy="1100" r="17.784"/><circle cx="1620" cy="1100" r="17.793"/><circle cx="1660" cy="1100" r="17.804"/><circle cx="1700" cy="1100" r="17.794"/><circle cx="1740" cy="1100" r="17.784"/><circle cx="1780" cy="1100" r="17.784"/><circle cx="1820" cy="1100" r="17.798"/><circle cx="1860" cy="1100" r="17.804"/><circle cx="1900" cy="1100" r="17.789"/><circle cx="1940" cy="1100" r="17.794"/><circle cx="1980" cy="1100" r="17.786"/><circle cx="2020" cy="1100" r="17.788"/><circle cx="2060" cy="1100" r="17.804"/><circle cx="2100" cy="1100" r="17.804"/><circle cx="2140" cy="1100" r="17.804"/><circle cx="2180" cy="1100" r="17.777"/><circle cx="2220" cy="1100" r="15.495"/><circle cx="2260" cy="1100" r="1.63"/><circle cx="2500" cy="1100" r="3.769"/><circle cx="2540" cy="1100" r="17.776"/><circle cx="2580" cy="1100" r="17.796"/><circle cx="2620" cy="1100" r="9.708"/><circle cx="20" cy="1140" r="9.475"/><circle cx="60" cy="1140" r="17.804"/><circle cx="100" cy="1140" r="17.729"/><circle cx="140" cy="1140" r="3.969"/><circle cx="540" cy="1140" r=".815"/><circle cx="580" cy="1140" r="16.171"/><circle cx="620" cy="1140" r="17.793"/><circle cx="660" cy="1140" r="17.804"/><circle cx="700" cy="1140" r="17.79"/><circle cx="740" cy="1140" r="16.927"/><circle cx="780" cy="1140" r="1.705"/><circle cx="1140" cy="1140" r="5.785"/><circle cx="1180" cy="1140" r="17.676"/><circle cx="1220" cy="1140" r="17.804"/><circle cx="1260" cy="1140" r="17.804"/><circle cx="1300" cy="1140" r="17.785"/><circle cx="1340" cy="1140" r="10.558"/><circle cx="1540" cy="1140" r="11.718"/><circle cx="1580" cy="1140" r="17.799"/><circle cx="1620" cy="1140" r="17.804"/><circle cx="1660" cy="1140" r="17.804"/><circle cx="1700" cy="1140" r="17.804"/><circle cx="1740" cy="1140" r="17.804"/><circle cx="1780" cy="1140" r="17.804"/><circle cx="1820" cy="1140" r="17.804"/><circle cx="1860" cy="1140" r="17.804"/><circle cx="1900" cy="1140" r="17.804"/><circle cx="1940" cy="1140" r="17.804"/><circle cx="1980" cy="1140" r="17.804"/><circle cx="2020" cy="1140" r="17.804"/><circle cx="2060" cy="1140" r="17.803"/><circle cx="2100" cy="1140" r="17.772"/><circle cx="2140" cy="1140" r="17.711"/><circle cx="2180" cy="1140" r="15.373"/><circle cx="2220" cy="1140" r="2.754"/><circle cx="2500" cy="1140" r="3.769"/><circle cx="2540" cy="1140" r="17.776"/><circle cx="2580" cy="1140" r="17.796"/><circle cx="2620" cy="1140" r="9.708"/><circle cx="20" cy="1180" r="9.475"/><circle cx="60" cy="1180" r="17.804"/><circle cx="100" cy="1180" r="17.729"/><circle cx="140" cy="1180" r="3.969"/><circle cx="540" cy="1180" r="7.467"/><circle cx="580" cy="1180" r="17.575"/><circle cx="620" cy="1180" r="17.804"/><circle cx="660" cy="1180" r="17.8"/><circle cx="700" cy="1180" r="17.669"/><circle cx="740" cy="1180" r="10.497"/><circle cx="1180" cy="1180" r="14.909"/><circle cx="1220" cy="1180" r="17.799"/><circle cx="1260" cy="1180" r="17.804"/><circle cx="1300" cy="1180" r="17.796"/><circle cx="1340" cy="1180" r="16.991"/><circle cx="1380" cy="1180" r="1.813"/><circle cx="1540" cy="1180" r="6.92"/><circle cx="1580" cy="1180" r="17.673"/><circle cx="1620" cy="1180" r="17.804"/><circle cx="1660" cy="1180" r="17.804"/><circle cx="1700" cy="1180" r="17.804"/><circle cx="1740" cy="1180" r="17.804"/><circle cx="1780" cy="1180" r="17.804"/><circle cx="1820" cy="1180" r="17.804"/><circle cx="1860" cy="1180" r="17.804"/><circle cx="1900" cy="1180" r="17.804"/><circle cx="1940" cy="1180" r="17.804"/><circle cx="1980" cy="1180" r="17.794"/><circle cx="2020" cy="1180" r="17.803"/><circle cx="2060" cy="1180" r="17.76"/><circle cx="2100" cy="1180" r="17.311"/><circle cx="2140" cy="1180" r="10.978"/><circle cx="2180" cy="1180" r="1.335"/><circle cx="2500" cy="1180" r="3.769"/><circle cx="2540" cy="1180" r="17.776"/><circle cx="2580" cy="1180" r="17.796"/><circle cx="2620" cy="1180" r="9.708"/><circle cx="20" cy="1220" r="9.475"/><circle cx="60" cy="1220" r="17.804"/><circle cx="100" cy="1220" r="17.729"/><circle cx="140" cy="1220" r="3.969"/><circle cx="540" cy="1220" r="15.206"/><circle cx="580" cy="1220" r="17.763"/><circle cx="620" cy="1220" r="17.804"/><circle cx="660" cy="1220" r="17.792"/><circle cx="700" cy="1220" r="17.384"/><circle cx="740" cy="1220" r="2.644"/><circle cx="1180" cy="1220" r="7.14"/><circle cx="1220" cy="1220" r="17.745"/><circle cx="1260" cy="1220" r="17.801"/><circle cx="1300" cy="1220" r="17.804"/><circle cx="1340" cy="1220" r="17.734"/><circle cx="1380" cy="1220" r="9.282"/><circle cx="1540" cy="1220" r=".576"/><circle cx="1580" cy="1220" r="15.797"/><circle cx="1620" cy="1220" r="17.801"/><circle cx="1660" cy="1220" r="17.804"/><circle cx="1700" cy="1220" r="17.734"/><circle cx="1740" cy="1220" r="17.531"/><circle cx="1780" cy="1220" r="17.546"/><circle cx="1820" cy="1220" r="17.549"/><circle cx="1860" cy="1220" r="17.549"/><circle cx="1900" cy="1220" r="17.56"/><circle cx="1940" cy="1220" r="17.49"/><circle cx="1980" cy="1220" r="16.654"/><circle cx="2020" cy="1220" r="13.934"/><circle cx="2060" cy="1220" r="9.256"/><circle cx="2100" cy="1220" r="2.693"/><circle cx="2500" cy="1220" r="3.769"/><circle cx="2540" cy="1220" r="17.776"/><circle cx="2580" cy="1220" r="17.796"/><circle cx="2620" cy="1220" r="9.708"/><circle cx="20" cy="1260" r="9.475"/><circle cx="60" cy="1260" r="17.804"/><circle cx="100" cy="1260" r="17.729"/><circle cx="140" cy="1260" r="3.969"/><circle cx="500" cy="1260" r="6.102"/><circle cx="540" cy="1260" r="17.609"/><circle cx="580" cy="1260" r="17.804"/><circle cx="620" cy="1260" r="17.804"/><circle cx="660" cy="1260" r="17.748"/><circle cx="700" cy="1260" r="11.82"/><circle cx="1180" cy="1260" r=".654"/><circle cx="1220" cy="1260" r="15.891"/><circle cx="1260" cy="1260" r="17.802"/><circle cx="1300" cy="1260" r="17.804"/><circle cx="1340" cy="1260" r="17.795"/><circle cx="1380" cy="1260" r="16.487"/><circle cx="1420" cy="1260" r="1.122"/><circle cx="1580" cy="1260" r="8.176"/><circle cx="1620" cy="1260" r="17.704"/><circle cx="1660" cy="1260" r="17.804"/><circle cx="1700" cy="1260" r="16.087"/><circle cx="1740" cy="1260" r=".681"/><circle cx="1780" cy="1260" r=".691"/><circle cx="1820" cy="1260" r=".698"/><circle cx="1860" cy="1260" r=".698"/><circle cx="1900" cy="1260" r=".702"/><circle cx="1940" cy="1260" r=".635"/><circle cx="2500" cy="1260" r="3.769"/><circle cx="2540" cy="1260" r="17.776"/><circle cx="2580" cy="1260" r="17.796"/><circle cx="2620" cy="1260" r="9.708"/><circle cx="20" cy="1300" r="9.475"/><circle cx="60" cy="1300" r="17.804"/><circle cx="100" cy="1300" r="17.729"/><circle cx="140" cy="1300" r="3.969"/><circle cx="500" cy="1300" r="14.082"/><circle cx="540" cy="1300" r="17.792"/><circle cx="580" cy="1300" r="17.804"/><circle cx="620" cy="1300" r="17.799"/><circle cx="660" cy="1300" r="17.678"/><circle cx="700" cy="1300" r="3.762"/><circle cx="1220" cy="1300" r="8.453"/><circle cx="1260" cy="1300" r="17.746"/><circle cx="1300" cy="1300" r="17.804"/><circle cx="1340" cy="1300" r="17.803"/><circle cx="1380" cy="1300" r="17.75"/><circle cx="1420" cy="1300" r="8.187"/><circle cx="1580" cy="1300" r="1.111"/><circle cx="1620" cy="1300" r="16.541"/><circle cx="1660" cy="1300" r="17.788"/><circle cx="1700" cy="1300" r="16.021"/><circle cx="2500" cy="1300" r="3.784"/><circle cx="2540" cy="1300" r="17.782"/><circle cx="2580" cy="1300" r="17.796"/><circle cx="2620" cy="1300" r="9.708"/><circle cx="20" cy="1340" r="9.483"/><circle cx="60" cy="1340" r="17.804"/><circle cx="100" cy="1340" r="17.735"/><circle cx="140" cy="1340" r="3.977"/><circle cx="460" cy="1340" r="4.781"/><circle cx="500" cy="1340" r="17.652"/><circle cx="540" cy="1340" r="17.804"/><circle cx="580" cy="1340" r="17.804"/><circle cx="620" cy="1340" r="17.759"/><circle cx="660" cy="1340" r="13.036"/><circle cx="1220" cy="1340" r="1.261"/><circle cx="1260" cy="1340" r="16.723"/><circle cx="1300" cy="1340" r="17.803"/><circle cx="1340" cy="1340" r="17.804"/><circle cx="1380" cy="1340" r="17.795"/><circle cx="1420" cy="1340" r="15.824"/><circle cx="1460" cy="1340" r=".598"/><circle cx="1620" cy="1340" r="9.388"/><circle cx="1660" cy="1340" r="17.729"/><circle cx="1700" cy="1340" r="16.034"/><circle cx="2500" cy="1340" r="3.792"/><circle cx="2540" cy="1340" r="17.784"/><circle cx="2580" cy="1340" r="17.796"/><circle cx="2620" cy="1340" r="9.708"/><circle cx="20" cy="1380" r="9.485"/><circle cx="60" cy="1380" r="17.804"/><circle cx="100" cy="1380" r="17.76"/><circle cx="140" cy="1380" r="4.013"/><circle cx="460" cy="1380" r="12.842"/><circle cx="500" cy="1380" r="17.797"/><circle cx="540" cy="1380" r="17.804"/><circle cx="580" cy="1380" r="17.801"/><circle cx="620" cy="1380" r="17.731"/><circle cx="660" cy="1380" r="5.065"/><circle cx="1260" cy="1380" r="9.822"/><circle cx="1300" cy="1380" r="17.723"/><circle cx="1340" cy="1380" r="17.804"/><circle cx="1380" cy="1380" r="17.803"/><circle cx="1420" cy="1380" r="17.733"/><circle cx="1460" cy="1380" r="7.023"/><circle cx="1620" cy="1380" r="1.963"/><circle cx="1660" cy="1380" r="17.134"/><circle cx="1700" cy="1380" r="16.032"/><circle cx="2500" cy="1380" r="3.816"/><circle cx="2540" cy="1380" r="17.784"/><circle cx="2580" cy="1380" r="17.796"/><circle cx="2620" cy="1380" r="9.713"/><circle cx="20" cy="1420" r="9.485"/><circle cx="60" cy="1420" r="17.804"/><circle cx="100" cy="1420" r="17.769"/><circle cx="140" cy="1420" r="4.024"/><circle cx="420" cy="1420" r="3.546"/><circle cx="460" cy="1420" r="17.646"/><circle cx="500" cy="1420" r="17.804"/><circle cx="540" cy="1420" r="17.804"/><circle cx="580" cy="1420" r="17.796"/><circle cx="620" cy="1420" r="14.379"/><circle cx="1260" cy="1420" r="2.179"/><circle cx="1300" cy="1420" r="17.214"/><circle cx="1340" cy="1420" r="17.804"/><circle cx="1380" cy="1420" r="17.804"/><circle cx="1420" cy="1420" r="17.788"/><circle cx="1460" cy="1420" r="14.939"/><circle cx="1660" cy="1420" r="10.896"/><circle cx="1700" cy="1420" r="16.005"/><circle cx="2500" cy="1420" r="3.824"/><circle cx="2540" cy="1420" r="17.784"/><circle cx="2580" cy="1420" r="17.796"/><circle cx="2620" cy="1420" r="9.715"/><circle cx="20" cy="1460" r="9.477"/><circle cx="60" cy="1460" r="17.804"/><circle cx="100" cy="1460" r="17.769"/><circle cx="140" cy="1460" r="4.024"/><circle cx="420" cy="1460" r="11.618"/><circle cx="460" cy="1460" r="17.786"/><circle cx="500" cy="1460" r="17.804"/><circle cx="540" cy="1460" r="17.803"/><circle cx="580" cy="1460" r="17.662"/><circle cx="620" cy="1460" r="6.618"/><circle cx="1300" cy="1460" r="11.145"/><circle cx="1340" cy="1460" r="17.794"/><circle cx="1380" cy="1460" r="17.804"/><circle cx="1420" cy="1460" r="17.804"/><circle cx="1460" cy="1460" r="17.634"/><circle cx="1500" cy="1460" r="5.917"/><circle cx="1660" cy="1460" r="3.191"/><circle cx="1700" cy="1460" r="15.781"/><circle cx="2500" cy="1460" r="3.824"/><circle cx="2540" cy="1460" r="17.784"/><circle cx="2580" cy="1460" r="17.796"/><circle cx="2620" cy="1460" r="9.735"/><circle cx="20" cy="1500" r="9.446"/><circle cx="60" cy="1500" r="17.804"/><circle cx="100" cy="1500" r="17.769"/><circle cx="140" cy="1500" r="4.024"/><circle cx="380" cy="1500" r="2.349"/><circle cx="420" cy="1500" r="17.32"/><circle cx="460" cy="1500" r="17.798"/><circle cx="500" cy="1500" r="17.804"/><circle cx="540" cy="1500" r="17.8"/><circle cx="580" cy="1500" r="15.559"/><circle cx="1300" cy="1500" r="3.354"/><circle cx="1340" cy="1500" r="17.456"/><circle cx="1380" cy="1500" r="17.804"/><circle cx="1420" cy="1500" r="17.804"/><circle cx="1460" cy="1500" r="17.773"/><circle cx="1500" cy="1500" r="13.906"/><circle cx="1700" cy="1500" r="10.909"/><circle cx="2500" cy="1500" r="3.824"/><circle cx="2540" cy="1500" r="17.784"/><circle cx="2580" cy="1500" r="17.796"/><circle cx="2620" cy="1500" r="9.688"/><circle cx="20" cy="1540" r="9.442"/><circle cx="60" cy="1540" r="17.804"/><circle cx="100" cy="1540" r="17.768"/><circle cx="140" cy="1540" r="4.024"/><circle cx="380" cy="1540" r="8.186"/><circle cx="420" cy="1540" r="15.537"/><circle cx="460" cy="1540" r="15.584"/><circle cx="500" cy="1540" r="15.563"/><circle cx="540" cy="1540" r="15.438"/><circle cx="580" cy="1540" r="7.293"/><circle cx="1340" cy="1540" r="12.685"/><circle cx="1380" cy="1540" r="17.803"/><circle cx="1420" cy="1540" r="17.804"/><circle cx="1460" cy="1540" r="17.775"/><circle cx="1500" cy="1540" r="17.637"/><circle cx="1540" cy="1540" r="4.689"/><circle cx="1700" cy="1540" r="3.047"/><circle cx="2500" cy="1540" r="3.824"/><circle cx="2540" cy="1540" r="17.784"/><circle cx="2580" cy="1540" r="17.796"/><circle cx="2620" cy="1540" r="9.679"/><circle cx="20" cy="1580" r="9.442"/><circle cx="60" cy="1580" r="17.804"/><circle cx="100" cy="1580" r="17.737"/><circle cx="140" cy="1580" r="4.038"/><circle cx="1340" cy="1580" r="4.673"/><circle cx="1380" cy="1580" r="17.549"/><circle cx="1420" cy="1580" r="17.804"/><circle cx="1460" cy="1580" r="17.804"/><circle cx="1500" cy="1580" r="17.74"/><circle cx="1540" cy="1580" r="12.86"/><circle cx="2500" cy="1580" r="3.859"/><circle cx="2540" cy="1580" r="17.769"/><circle cx="2580" cy="1580" r="17.796"/><circle cx="2620" cy="1580" r="9.68"/><circle cx="20" cy="1620" r="9.465"/><circle cx="60" cy="1620" r="17.804"/><circle cx="100" cy="1620" r="17.715"/><circle cx="140" cy="1620" r="4.013"/><circle cx="1380" cy="1620" r="14.154"/><circle cx="1420" cy="1620" r="17.802"/><circle cx="1460" cy="1620" r="17.804"/><circle cx="1500" cy="1620" r="17.804"/><circle cx="1540" cy="1620" r="17.609"/><circle cx="1580" cy="1620" r="3.707"/><circle cx="2500" cy="1620" r="3.807"/><circle cx="2540" cy="1620" r="17.769"/><circle cx="2580" cy="1620" r="17.797"/><circle cx="2620" cy="1620" r="9.687"/><circle cx="20" cy="1660" r="9.502"/><circle cx="60" cy="1660" r="17.804"/><circle cx="100" cy="1660" r="17.737"/><circle cx="140" cy="1660" r="4.027"/><circle cx="1380" cy="1660" r="6.146"/><circle cx="1420" cy="1660" r="17.621"/><circle cx="1460" cy="1660" r="17.804"/><circle cx="1500" cy="1660" r="17.804"/><circle cx="1540" cy="1660" r="17.695"/><circle cx="1580" cy="1660" r="11.823"/><circle cx="2500" cy="1660" r="3.796"/><circle cx="2540" cy="1660" r="17.769"/><circle cx="2580" cy="1660" r="17.803"/><circle cx="2620" cy="1660" r="9.756"/><circle cx="20" cy="1700" r="9.506"/><circle cx="60" cy="1700" r="17.804"/><circle cx="100" cy="1700" r="17.737"/><circle cx="140" cy="1700" r="4.03"/><circle cx="1420" cy="1700" r="15.344"/><circle cx="1460" cy="1700" r="17.8"/><circle cx="1500" cy="1700" r="17.804"/><circle cx="1540" cy="1700" r="17.804"/><circle cx="1580" cy="1700" r="17.36"/><circle cx="1620" cy="1700" r="2.825"/><circle cx="2500" cy="1700" r="3.808"/><circle cx="2540" cy="1700" r="17.769"/><circle cx="2580" cy="1700" r="17.796"/><circle cx="2620" cy="1700" r="9.747"/><circle cx="20" cy="1740" r="9.506"/><circle cx="60" cy="1740" r="17.804"/><circle cx="100" cy="1740" r="17.737"/><circle cx="140" cy="1740" r="4.038"/><circle cx="1420" cy="1740" r="7.573"/><circle cx="1460" cy="1740" r="17.658"/><circle cx="1500" cy="1740" r="17.804"/><circle cx="1540" cy="1740" r="17.804"/><circle cx="1580" cy="1740" r="17.761"/><circle cx="1620" cy="1740" r="10.944"/><circle cx="2500" cy="1740" r="3.854"/><circle cx="2540" cy="1740" r="17.772"/><circle cx="2580" cy="1740" r="17.796"/><circle cx="2620" cy="1740" r="9.747"/><circle cx="20" cy="1780" r="9.501"/><circle cx="60" cy="1780" r="17.804"/><circle cx="100" cy="1780" r="17.737"/><circle cx="140" cy="1780" r="4.031"/><circle cx="1420" cy="1780" r=".925"/><circle cx="1460" cy="1780" r="16.313"/><circle cx="1500" cy="1780" r="17.793"/><circle cx="1540" cy="1780" r="17.804"/><circle cx="1580" cy="1780" r="17.795"/><circle cx="1620" cy="1780" r="17.123"/><circle cx="1660" cy="1780" r="2.059"/><circle cx="2500" cy="1780" r="3.829"/><circle cx="2540" cy="1780" r="17.78"/><circle cx="2580" cy="1780" r="17.796"/><circle cx="2620" cy="1780" r="9.742"/><circle cx="20" cy="1820" r="9.489"/><circle cx="60" cy="1820" r="17.804"/><circle cx="100" cy="1820" r="17.737"/><circle cx="140" cy="1820" r="4.031"/><circle cx="1460" cy="1820" r="8.997"/><circle cx="1500" cy="1820" r="17.733"/><circle cx="1540" cy="1820" r="17.804"/><circle cx="1580" cy="1820" r="17.804"/><circle cx="1620" cy="1820" r="17.765"/><circle cx="1660" cy="1820" r="9.746"/><circle cx="2500" cy="1820" r="3.843"/><circle cx="2540" cy="1820" r="17.769"/><circle cx="2580" cy="1820" r="17.799"/><circle cx="2620" cy="1820" r="9.732"/><circle cx="20" cy="1860" r="9.495"/><circle cx="60" cy="1860" r="17.804"/><circle cx="100" cy="1860" r="17.737"/><circle cx="140" cy="1860" r="4.031"/><circle cx="1460" cy="1860" r="1.618"/><circle cx="1500" cy="1860" r="16.791"/><circle cx="1540" cy="1860" r="17.793"/><circle cx="1580" cy="1860" r="17.804"/><circle cx="1620" cy="1860" r="17.802"/><circle cx="1660" cy="1860" r="16.729"/><circle cx="1700" cy="1860" r="1.24"/><circle cx="2500" cy="1860" r="3.845"/><circle cx="2540" cy="1860" r="17.766"/><circle cx="2580" cy="1860" r="17.804"/><circle cx="2620" cy="1860" r="9.741"/><circle cx="20" cy="1900" r="9.495"/><circle cx="60" cy="1900" r="17.804"/><circle cx="100" cy="1900" r="17.737"/><circle cx="140" cy="1900" r="4.031"/><circle cx="1500" cy="1900" r="10.311"/><circle cx="1540" cy="1900" r="17.759"/><circle cx="1580" cy="1900" r="17.804"/><circle cx="1620" cy="1900" r="17.804"/><circle cx="1660" cy="1900" r="17.759"/><circle cx="1700" cy="1900" r="8.295"/><circle cx="2500" cy="1900" r="3.847"/><circle cx="2540" cy="1900" r="17.761"/><circle cx="2580" cy="1900" r="17.804"/><circle cx="2620" cy="1900" r="9.741"/><circle cx="20" cy="1940" r="9.497"/><circle cx="60" cy="1940" r="17.804"/><circle cx="100" cy="1940" r="17.743"/><circle cx="140" cy="1940" r="4.016"/><circle cx="1500" cy="1940" r="2.504"/><circle cx="1540" cy="1940" r="17.2"/><circle cx="1580" cy="1940" r="17.804"/><circle cx="1620" cy="1940" r="17.804"/><circle cx="1660" cy="1940" r="17.776"/><circle cx="1700" cy="1940" r="15.909"/><circle cx="1740" cy="1940" r=".61"/><circle cx="2500" cy="1940" r="3.838"/><circle cx="2540" cy="1940" r="17.764"/><circle cx="2580" cy="1940" r="17.804"/><circle cx="2620" cy="1940" r="9.741"/><circle cx="20" cy="1980" r="9.509"/><circle cx="60" cy="1980" r="17.804"/><circle cx="100" cy="1980" r="17.747"/><circle cx="140" cy="1980" r="4.014"/><circle cx="1540" cy="1980" r="11.577"/><circle cx="1580" cy="1980" r="17.728"/><circle cx="1620" cy="1980" r="17.804"/><circle cx="1660" cy="1980" r="17.804"/><circle cx="1700" cy="1980" r="17.661"/><circle cx="1740" cy="1980" r="7.378"/><circle cx="2500" cy="1980" r="3.832"/><circle cx="2540" cy="1980" r="17.772"/><circle cx="2580" cy="1980" r="17.804"/><circle cx="2620" cy="1980" r="9.76"/><circle cx="20" cy="2020" r="9.52"/><circle cx="60" cy="2020" r="17.804"/><circle cx="100" cy="2020" r="17.723"/><circle cx="140" cy="2020" r="11.02"/><circle cx="180" cy="2020" r="9.138"/><circle cx="220" cy="2020" r="9.137"/><circle cx="260" cy="2020" r="9.137"/><circle cx="300" cy="2020" r="9.134"/><circle cx="340" cy="2020" r="9.136"/><circle cx="380" cy="2020" r="9.137"/><circle cx="420" cy="2020" r="9.134"/><circle cx="460" cy="2020" r="9.133"/><circle cx="500" cy="2020" r="9.134"/><circle cx="540" cy="2020" r="9.137"/><circle cx="580" cy="2020" r="9.144"/><circle cx="620" cy="2020" r="9.133"/><circle cx="660" cy="2020" r="9.136"/><circle cx="700" cy="2020" r="9.141"/><circle cx="740" cy="2020" r="9.141"/><circle cx="780" cy="2020" r="9.141"/><circle cx="820" cy="2020" r="9.143"/><circle cx="860" cy="2020" r="9.125"/><circle cx="900" cy="2020" r="9.09"/><circle cx="940" cy="2020" r="9.078"/><circle cx="980" cy="2020" r="9.076"/><circle cx="1020" cy="2020" r="9.075"/><circle cx="1060" cy="2020" r="9.075"/><circle cx="1100" cy="2020" r="9.075"/><circle cx="1140" cy="2020" r="9.075"/><circle cx="1180" cy="2020" r="9.075"/><circle cx="1220" cy="2020" r="9.075"/><circle cx="1260" cy="2020" r="5.499"/><circle cx="1540" cy="2020" r="3.375"/><circle cx="1580" cy="2020" r="17.466"/><circle cx="1620" cy="2020" r="17.804"/><circle cx="1660" cy="2020" r="17.804"/><circle cx="1700" cy="2020" r="17.778"/><circle cx="1740" cy="2020" r="15.695"/><circle cx="1780" cy="2020" r="9.101"/><circle cx="1820" cy="2020" r="9.143"/><circle cx="1860" cy="2020" r="9.141"/><circle cx="1900" cy="2020" r="9.141"/><circle cx="1940" cy="2020" r="9.141"/><circle cx="1980" cy="2020" r="9.132"/><circle cx="2020" cy="2020" r="9.133"/><circle cx="2060" cy="2020" r="9.145"/><circle cx="2100" cy="2020" r="9.137"/><circle cx="2140" cy="2020" r="9.133"/><circle cx="2180" cy="2020" r="9.133"/><circle cx="2220" cy="2020" r="9.134"/><circle cx="2260" cy="2020" r="9.137"/><circle cx="2300" cy="2020" r="9.136"/><circle cx="2340" cy="2020" r="9.135"/><circle cx="2380" cy="2020" r="9.137"/><circle cx="2420" cy="2020" r="9.137"/><circle cx="2460" cy="2020" r="9.141"/><circle cx="2500" cy="2020" r="10.874"/><circle cx="2540" cy="2020" r="17.748"/><circle cx="2580" cy="2020" r="17.8"/><circle cx="2620" cy="2020" r="9.772"/><circle cx="20" cy="2060" r="9.52"/><circle cx="60" cy="2060" r="17.804"/><circle cx="100" cy="2060" r="17.774"/><circle cx="140" cy="2060" r="17.748"/><circle cx="180" cy="2060" r="17.787"/><circle cx="220" cy="2060" r="17.788"/><circle cx="260" cy="2060" r="17.788"/><circle cx="300" cy="2060" r="17.788"/><circle cx="340" cy="2060" r="17.788"/><circle cx="380" cy="2060" r="17.788"/><circle cx="420" cy="2060" r="17.788"/><circle cx="460" cy="2060" r="17.788"/><circle cx="500" cy="2060" r="17.788"/><circle cx="540" cy="2060" r="17.788"/><circle cx="580" cy="2060" r="17.789"/><circle cx="620" cy="2060" r="17.796"/><circle cx="660" cy="2060" r="17.795"/><circle cx="700" cy="2060" r="17.788"/><circle cx="740" cy="2060" r="17.788"/><circle cx="780" cy="2060" r="17.788"/><circle cx="820" cy="2060" r="17.788"/><circle cx="860" cy="2060" r="17.781"/><circle cx="900" cy="2060" r="17.781"/><circle cx="940" cy="2060" r="17.788"/><circle cx="980" cy="2060" r="17.788"/><circle cx="1020" cy="2060" r="17.788"/><circle cx="1060" cy="2060" r="17.788"/><circle cx="1100" cy="2060" r="17.788"/><circle cx="1140" cy="2060" r="17.788"/><circle cx="1180" cy="2060" r="17.788"/><circle cx="1220" cy="2060" r="17.788"/><circle cx="1260" cy="2060" r="16.018"/><circle cx="1300" cy="2060" r=".873"/><circle cx="1580" cy="2060" r="12.559"/><circle cx="1620" cy="2060" r="17.737"/><circle cx="1660" cy="2060" r="17.804"/><circle cx="1700" cy="2060" r="17.804"/><circle cx="1740" cy="2060" r="17.753"/><circle cx="1780" cy="2060" r="17.758"/><circle cx="1820" cy="2060" r="17.788"/><circle cx="1860" cy="2060" r="17.788"/><circle cx="1900" cy="2060" r="17.788"/><circle cx="1940" cy="2060" r="17.788"/><circle cx="1980" cy="2060" r="17.795"/><circle cx="2020" cy="2060" r="17.796"/><circle cx="2060" cy="2060" r="17.789"/><circle cx="2100" cy="2060" r="17.788"/><circle cx="2140" cy="2060" r="17.788"/><circle cx="2180" cy="2060" r="17.788"/><circle cx="2220" cy="2060" r="17.788"/><circle cx="2260" cy="2060" r="17.788"/><circle cx="2300" cy="2060" r="17.788"/><circle cx="2340" cy="2060" r="17.788"/><circle cx="2380" cy="2060" r="17.788"/><circle cx="2420" cy="2060" r="17.788"/><circle cx="2460" cy="2060" r="17.783"/><circle cx="2500" cy="2060" r="17.724"/><circle cx="2540" cy="2060" r="17.793"/><circle cx="2580" cy="2060" r="17.796"/><circle cx="2620" cy="2060" r="9.768"/><circle cx="20" cy="2100" r="9.501"/><circle cx="60" cy="2100" r="17.725"/><circle cx="100" cy="2100" r="17.725"/><circle cx="140" cy="2100" r="17.725"/><circle cx="180" cy="2100" r="17.725"/><circle cx="220" cy="2100" r="17.738"/><circle cx="260" cy="2100" r="17.731"/><circle cx="300" cy="2100" r="17.725"/><circle cx="340" cy="2100" r="17.725"/><circle cx="380" cy="2100" r="17.725"/><circle cx="420" cy="2100" r="17.726"/><circle cx="460" cy="2100" r="17.745"/><circle cx="500" cy="2100" r="17.745"/><circle cx="540" cy="2100" r="17.745"/><circle cx="580" cy="2100" r="17.745"/><circle cx="620" cy="2100" r="17.745"/><circle cx="660" cy="2100" r="17.745"/><circle cx="700" cy="2100" r="17.747"/><circle cx="740" cy="2100" r="17.753"/><circle cx="780" cy="2100" r="17.75"/><circle cx="820" cy="2100" r="17.745"/><circle cx="860" cy="2100" r="17.745"/><circle cx="900" cy="2100" r="17.745"/><circle cx="940" cy="2100" r="17.745"/><circle cx="980" cy="2100" r="17.75"/><circle cx="1020" cy="2100" r="17.753"/><circle cx="1060" cy="2100" r="17.753"/><circle cx="1100" cy="2100" r="17.753"/><circle cx="1140" cy="2100" r="17.753"/><circle cx="1180" cy="2100" r="17.753"/><circle cx="1220" cy="2100" r="17.753"/><circle cx="1260" cy="2100" r="17.691"/><circle cx="1300" cy="2100" r="7.843"/><circle cx="1580" cy="2100" r="4.222"/><circle cx="1620" cy="2100" r="17.607"/><circle cx="1660" cy="2100" r="17.753"/><circle cx="1700" cy="2100" r="17.749"/><circle cx="1740" cy="2100" r="17.745"/><circle cx="1780" cy="2100" r="17.745"/><circle cx="1820" cy="2100" r="17.745"/><circle cx="1860" cy="2100" r="17.751"/><circle cx="1900" cy="2100" r="17.753"/><circle cx="1940" cy="2100" r="17.747"/><circle cx="1980" cy="2100" r="17.745"/><circle cx="2020" cy="2100" r="17.745"/><circle cx="2060" cy="2100" r="17.745"/><circle cx="2100" cy="2100" r="17.745"/><circle cx="2140" cy="2100" r="17.743"/><circle cx="2180" cy="2100" r="17.725"/><circle cx="2220" cy="2100" r="17.725"/><circle cx="2260" cy="2100" r="17.725"/><circle cx="2300" cy="2100" r="17.725"/><circle cx="2340" cy="2100" r="17.725"/><circle cx="2380" cy="2100" r="17.734"/><circle cx="2420" cy="2100" r="17.736"/><circle cx="2460" cy="2100" r="17.725"/><circle cx="2500" cy="2100" r="17.725"/><circle cx="2540" cy="2100" r="17.725"/><circle cx="2580" cy="2100" r="17.723"/><circle cx="2620" cy="2100" r="9.725"/><circle cx="20" cy="2140" r="2.29"/><circle cx="60" cy="2140" r="4.233"/><circle cx="100" cy="2140" r="4.233"/><circle cx="140" cy="2140" r="4.229"/><circle cx="180" cy="2140" r="4.23"/><circle cx="220" cy="2140" r="4.237"/><circle cx="260" cy="2140" r="4.231"/><circle cx="300" cy="2140" r="4.227"/><circle cx="340" cy="2140" r="4.227"/><circle cx="380" cy="2140" r="4.221"/><circle cx="420" cy="2140" r="4.22"/><circle cx="460" cy="2140" r="4.22"/><circle cx="500" cy="2140" r="4.208"/><circle cx="540" cy="2140" r="4.208"/><circle cx="580" cy="2140" r="4.208"/><circle cx="620" cy="2140" r="4.206"/><circle cx="660" cy="2140" r="4.2"/><circle cx="700" cy="2140" r="4.204"/><circle cx="740" cy="2140" r="4.212"/><circle cx="780" cy="2140" r="4.21"/><circle cx="820" cy="2140" r="4.208"/><circle cx="860" cy="2140" r="4.208"/><circle cx="900" cy="2140" r="4.204"/><circle cx="940" cy="2140" r="4.198"/><circle cx="980" cy="2140" r="4.203"/><circle cx="1020" cy="2140" r="4.206"/><circle cx="1060" cy="2140" r="4.203"/><circle cx="1100" cy="2140" r="4.204"/><circle cx="1140" cy="2140" r="4.204"/><circle cx="1180" cy="2140" r="4.204"/><circle cx="1220" cy="2140" r="4.204"/><circle cx="1260" cy="2140" r="4.203"/><circle cx="1300" cy="2140" r="3.101"/><circle cx="1620" cy="2140" r="3.955"/><circle cx="1660" cy="2140" r="4.208"/><circle cx="1700" cy="2140" r="4.204"/><circle cx="1740" cy="2140" r="4.205"/><circle cx="1780" cy="2140" r="4.208"/><circle cx="1820" cy="2140" r="4.208"/><circle cx="1860" cy="2140" r="4.211"/><circle cx="1900" cy="2140" r="4.212"/><circle cx="1940" cy="2140" r="4.202"/><circle cx="1980" cy="2140" r="4.2"/><circle cx="2020" cy="2140" r="4.207"/><circle cx="2060" cy="2140" r="4.208"/><circle cx="2100" cy="2140" r="4.208"/><circle cx="2140" cy="2140" r="4.209"/><circle cx="2180" cy="2140" r="4.22"/><circle cx="2220" cy="2140" r="4.22"/><circle cx="2260" cy="2140" r="4.222"/><circle cx="2300" cy="2140" r="4.227"/><circle cx="2340" cy="2140" r="4.227"/><circle cx="2380" cy="2140" r="4.231"/><circle cx="2420" cy="2140" r="4.234"/><circle cx="2460" cy="2140" r="4.229"/><circle cx="2500" cy="2140" r="4.229"/><circle cx="2540" cy="2140" r="4.234"/><circle cx="2580" cy="2140" r="4.235"/><circle cx="2620" cy="2140" r="2.345"/></svg>