<svg xmlns="http://www.w3.org/2000/svg" width="4770" height="2160" viewBox="0 0 4770 2160"><rect width="100%" height="100%" fill="#FFFFFF"/><circle cx="1940" cy="620" r="0.9121572457107852" fill="#000000"/><circle cx="1980" cy="620" r="4.34750067018995" fill="#000000"/><circle cx="2020" cy="620" r="7.42102409811581" fill="#000000"/><circle cx="2060" cy="620" r="9.39334525314032" fill="#000000"/><circle cx="2100" cy="620" r="9.787804697074144" fill="#000000"/><circle cx="2140" cy="620" r="6.886419558057597" fill="#000000"/><circle cx="1820" cy="660" r="2.642943139169731" fill="#000000"/><circle cx="1860" cy="660" r="7.789714738434437" fill="#000000"/><circle cx="1900" cy="660" r="12.34861665613511" fill="#000000"/><circle cx="1940" cy="660" r="15.588253245634192" fill="#000000"/><circle cx="1980" cy="660" r="15.91557341930913" fill="#000000"/><circle cx="2020" cy="660" r="15.90982115502451" fill="#000000"/><circle cx="2060" cy="660" r="15.89779603247549" fill="#000000"/><circle cx="2100" cy="660" r="15.897254794251685" fill="#000000"/><circle cx="2140" cy="660" r="15.933158425723805" fill="#000000"/><circle cx="2180" cy="660" r="4.679044835707719" fill="#000000"/><circle cx="1740" cy="700" r="6.006661209405637" fill="#000000"/><circle cx="1780" cy="700" r="12.613605574065563" fill="#000000"/><circle cx="1820" cy="700" r="15.885153377757353" fill="#000000"/><circle cx="1860" cy="700" r="15.084324257046568" fill="#000000"/><circle cx="1900" cy="700" r="11.975034825942096" fill="#000000"/><circle cx="1940" cy="700" r="9.628170237821692" fill="#000000"/><circle cx="1980" cy="700" r="8.51858939376532" fill="#000000"/><circle cx="2020" cy="700" r="10.89059508080576" fill="#000000"/><circle cx="2060" cy="700" r="15.91212672813266" fill="#000000"/><circle cx="2100" cy="700" r="15.901232551125918" fill="#000000"/><circle cx="2140" cy="700" r="12.938246783088236" fill="#000000"/><circle cx="260" cy="740" r="1.76785338158701" fill="#000000"/><circle cx="300" cy="740" r="10.284805597043505" fill="#000000"/><circle cx="340" cy="740" r="11.169076956954655" fill="#000000"/><circle cx="380" cy="740" r="10.68254119274663" fill="#000000"/><circle cx="420" cy="740" r="10.193164301853553" fill="#000000"/><circle cx="460" cy="740" r="9.643030503216911" fill="#000000"/><circle cx="500" cy="740" r="9.005681056602327" fill="#000000"/><circle cx="540" cy="740" r="8.4067107555913" fill="#000000"/><circle cx="580" cy="740" r="7.739991431142769" fill="#000000"/><circle cx="620" cy="740" r="7.047771379059435" fill="#000000"/><circle cx="660" cy="740" r="6.396480784696692" fill="#000000"/><circle cx="700" cy="740" r="5.607877843520221" fill="#000000"/><circle cx="740" cy="740" r="4.91161750344669" fill="#000000"/><circle cx="780" cy="740" r="4.1062322878370106" fill="#000000"/><circle cx="820" cy="740" r="3.3181846469056375" fill="#000000"/><circle cx="860" cy="740" r="2.4741414388020844" fill="#000000"/><circle cx="900" cy="740" r="1.5895864449295338" fill="#000000"/><circle cx="940" cy="740" r="0.6254188687193629" fill="#000000"/><circle cx="1660" cy="740" r="6.47451602711397" fill="#000000"/><circle cx="1700" cy="740" r="14.135850494983151" fill="#000000"/><circle cx="1740" cy="740" r="14.532601749195774" fill="#000000"/><circle cx="1780" cy="740" r="9.0536163928462" fill="#000000"/><circle cx="1820" cy="740" r="3.8183378331801476" fill="#000000"/><circle cx="2020" cy="740" r="5.3041561351102935" fill="#000000"/><circle cx="2060" cy="740" r="15.91555457021676" fill="#000000"/><circle cx="2100" cy="740" r="15.928566726983762" fill="#000000"/><circle cx="2140" cy="740" r="6.075147441789214" fill="#000000"/><circle cx="300" cy="780" r="2.1143487668504912" fill="#000000"/><circle cx="340" cy="780" r="14.03091370825674" fill="#000000"/><circle cx="380" cy="780" r="15.902506510416668" fill="#000000"/><circle cx="420" cy="780" r="15.897090537875307" fill="#000000"/><circle cx="460" cy="780" r="15.884566662358303" fill="#000000"/><circle cx="500" cy="780" r="15.888203938802084" fill="#000000"/><circle cx="540" cy="780" r="15.865429148954505" fill="#000000"/><circle cx="580" cy="780" r="15.852430156632966" fill="#000000"/><circle cx="620" cy="780" r="15.836979585535387" fill="#000000"/><circle cx="660" cy="780" r="15.828513051949296" fill="#000000"/><circle cx="700" cy="780" r="15.847422880284928" fill="#000000"/><circle cx="740" cy="780" r="15.863979563993567" fill="#000000"/><circle cx="780" cy="780" r="15.89753693225337" fill="#000000"/><circle cx="820" cy="780" r="15.931173586377911" fill="#000000"/><circle cx="860" cy="780" r="15.939756206437652" fill="#000000"/><circle cx="900" cy="780" r="15.92780648025812" fill="#000000"/><circle cx="940" cy="780" r="14.409916298062193" fill="#000000"/><circle cx="1580" cy="780" r="4.177558450137868" fill="#000000"/><circle cx="1620" cy="780" r="13.294391108494178" fill="#000000"/><circle cx="1660" cy="780" r="12.974236581839769" fill="#000000"/><circle cx="1700" cy="780" r="5.755040785845589" fill="#000000"/><circle cx="1980" cy="780" r="0.5372517903645835" fill="#000000"/><circle cx="2020" cy="780" r="13.349410711550245" fill="#000000"/><circle cx="2060" cy="780" r="15.906212301815257" fill="#000000"/><circle cx="2100" cy="780" r="15.936683804381126" fill="#000000"/><circle cx="2140" cy="780" r="2.5011716356464464" fill="#000000"/><circle cx="340" cy="820" r="5.031786151960784" fill="#000000"/><circle cx="380" cy="820" r="15.918758915919884" fill="#000000"/><circle cx="420" cy="820" r="15.731290031881892" fill="#000000"/><circle cx="460" cy="820" r="9.207565008425245" fill="#000000"/><circle cx="500" cy="820" r="1.174081839767156" fill="#000000"/><circle cx="540" cy="820" r="1.079782523360906" fill="#000000"/><circle cx="580" cy="820" r="1.0600394454656858" fill="#000000"/><circle cx="620" cy="820" r="0.977390663296569" fill="#000000"/><circle cx="660" cy="820" r="0.9512736002604161" fill="#000000"/><circle cx="700" cy="820" r="1.031923780254289" fill="#000000"/><circle cx="740" cy="820" r="1.0804012522977935" fill="#000000"/><circle cx="780" cy="820" r="1.1828385895373783" fill="#000000"/><circle cx="820" cy="820" r="1.3258535347732847" fill="#000000"/><circle cx="860" cy="820" r="1.4730523801317408" fill="#000000"/><circle cx="900" cy="820" r="1.723606483609068" fill="#000000"/><circle cx="940" cy="820" r="8.32567641314338" fill="#000000"/><circle cx="980" cy="820" r="0.6509734509038001" fill="#000000"/><circle cx="1500" cy="820" r="1.0779921587775743" fill="#000000"/><circle cx="1540" cy="820" r="9.961702234604779" fill="#000000"/><circle cx="1580" cy="820" r="13.328788009344361" fill="#000000"/><circle cx="1620" cy="820" r="5.125855688955269" fill="#000000"/><circle cx="1980" cy="820" r="9.07085822610294" fill="#000000"/><circle cx="2020" cy="820" r="15.916453941195618" fill="#000000"/><circle cx="2060" cy="820" r="15.129422954484529" fill="#000000"/><circle cx="2100" cy="820" r="10.507723939185048" fill="#000000"/><circle cx="2140" cy="820" r="0.7431090111825989" fill="#000000"/><circle cx="2220" cy="820" r="2.656665278416055" fill="#000000"/><circle cx="2260" cy="820" r="6.7041602041207105" fill="#000000"/><circle cx="2300" cy="820" r="6.2263937557444855" fill="#000000"/><circle cx="2340" cy="820" r="1.7677600337009802" fill="#000000"/><circle cx="340" cy="860" r="5.1087466969209565" fill="#000000"/><circle cx="380" cy="860" r="15.925047032973346" fill="#000000"/><circle cx="420" cy="860" r="15.897254794251685" fill="#000000"/><circle cx="460" cy="860" r="15.45143097522212" fill="#000000"/><circle cx="500" cy="860" r="0.7695527918198519" fill="#000000"/><circle cx="940" cy="860" r="1.2419062595741415" fill="#000000"/><circle cx="980" cy="860" r="1.4572993259803924" fill="#000000"/><circle cx="1460" cy="860" r="4.355406518075979" fill="#000000"/><circle cx="1500" cy="860" r="13.377656824448529" fill="#000000"/><circle cx="1540" cy="860" r="7.05508482689951" fill="#000000"/><circle cx="1940" cy="860" r="4.117919921875" fill="#000000"/><circle cx="1980" cy="860" r="15.818456911573225" fill="#000000"/><circle cx="2020" cy="860" r="15.679466696346507" fill="#000000"/><circle cx="2060" cy="860" r="6.227729348575368" fill="#000000"/><circle cx="2100" cy="860" r="3.6733757467830874" fill="#000000"/><circle cx="2140" cy="860" r="2.8990741804534315" fill="#000000"/><circle cx="2180" cy="860" r="5.267410577512255" fill="#000000"/><circle cx="2220" cy="860" r="15.65668951296339" fill="#000000"/><circle cx="2260" cy="860" r="15.902734494676775" fill="#000000"/><circle cx="2300" cy="860" r="15.901617611155793" fill="#000000"/><circle cx="2340" cy="860" r="15.460881551106771" fill="#000000"/><circle cx="2380" cy="860" r="6.486673990885416" fill="#000000"/><circle cx="300" cy="900" r="4.722432454427084" fill="#000000"/><circle cx="340" cy="900" r="14.785490746591606" fill="#000000"/><circle cx="380" cy="900" r="15.906679340437346" fill="#000000"/><circle cx="420" cy="900" r="13.501719156901043" fill="#000000"/><circle cx="460" cy="900" r="4.475734336703432" fill="#000000"/><circle cx="1420" cy="900" r="8.811811858532474" fill="#000000"/><circle cx="1460" cy="900" r="11.498985140931373" fill="#000000"/><circle cx="1500" cy="900" r="1.90423344630821" fill="#000000"/><circle cx="1940" cy="900" r="7.587168974034926" fill="#000000"/><circle cx="1980" cy="900" r="15.924335853726257" fill="#000000"/><circle cx="2020" cy="900" r="15.929435580384496" fill="#000000"/><circle cx="2060" cy="900" r="15.938847261316635" fill="#000000"/><circle cx="2100" cy="900" r="15.923490038105086" fill="#000000"/><circle cx="2140" cy="900" r="15.94956132477405" fill="#000000"/><circle cx="2180" cy="900" r="15.72839475145527" fill="#000000"/><circle cx="2220" cy="900" r="15.900678447648591" fill="#000000"/><circle cx="2260" cy="900" r="15.71035198136872" fill="#000000"/><circle cx="2300" cy="900" r="15.613251629997702" fill="#000000"/><circle cx="2340" cy="900" r="15.794543995576745" fill="#000000"/><circle cx="2380" cy="900" r="14.645694508272058" fill="#000000"/><circle cx="2420" cy="900" r="3.4781362496170343" fill="#000000"/><circle cx="2660" cy="900" r="0.7842526903339464" fill="#000000"/><circle cx="2700" cy="900" r="8.834429572610293" fill="#000000"/><circle cx="2740" cy="900" r="10.251239851409313" fill="#000000"/><circle cx="2780" cy="900" r="8.649119657628678" fill="#000000"/><circle cx="2820" cy="900" r="3.8216827990962" fill="#000000"/><circle cx="300" cy="940" r="8.382711971507353" fill="#000000"/><circle cx="340" cy="940" r="15.659262264476103" fill="#000000"/><circle cx="380" cy="940" r="15.889358819699755" fill="#000000"/><circle cx="420" cy="940" r="12.693110447303921" fill="#000000"/><circle cx="460" cy="940" r="4.151020124846814" fill="#000000"/><circle cx="740" cy="940" r="0.5451133578431366" fill="#000000"/><circle cx="780" cy="940" r="5.78616392846201" fill="#000000"/><circle cx="820" cy="940" r="10.56063064874387" fill="#000000"/><circle cx="860" cy="940" r="13.305590461282168" fill="#000000"/><circle cx="900" cy="940" r="14.569341921338847" fill="#000000"/><circle cx="940" cy="940" r="14.398333979587928" fill="#000000"/><circle cx="980" cy="940" r="12.263790953393077" fill="#000000"/><circle cx="1020" cy="940" r="8.33239626416973" fill="#000000"/><circle cx="1060" cy="940" r="2.5775541417738967" fill="#000000"/><circle cx="1340" cy="940" r="2.3406599456188726" fill="#000000"/><circle cx="1380" cy="940" r="12.174994973575368" fill="#000000"/><circle cx="1420" cy="940" r="7.198844161688114" fill="#000000"/><circle cx="1980" cy="940" r="2.744890998391545" fill="#000000"/><circle cx="2020" cy="940" r="2.9800427006740193" fill="#000000"/><circle cx="2060" cy="940" r="5.005712172564339" fill="#000000"/><circle cx="2100" cy="940" r="10.238105325137868" fill="#000000"/><circle cx="2140" cy="940" r="15.520606845032937" fill="#000000"/><circle cx="2180" cy="940" r="15.910725313074447" fill="#000000"/><circle cx="2220" cy="940" r="15.897254794251685" fill="#000000"/><circle cx="2260" cy="940" r="15.571979597503063" fill="#000000"/><circle cx="2300" cy="940" r="7.896444881663602" fill="#000000"/><circle cx="2340" cy="940" r="0.7628437117034315" fill="#000000"/><circle cx="2420" cy="940" r="1.6980471143535536" fill="#000000"/><circle cx="2660" cy="940" r="5.532173904718136" fill="#000000"/><circle cx="2700" cy="940" r="15.929414936140471" fill="#000000"/><circle cx="2740" cy="940" r="15.913621790268841" fill="#000000"/><circle cx="2780" cy="940" r="15.600033329982384" fill="#000000"/><circle cx="2820" cy="940" r="10.894120160271141" fill="#000000"/><circle cx="340" cy="980" r="3.732517616421569" fill="#000000"/><circle cx="380" cy="980" r="14.364190195121015" fill="#000000"/><circle cx="420" cy="980" r="15.897977641984529" fill="#000000"/><circle cx="460" cy="980" r="14.699914670458028" fill="#000000"/><circle cx="700" cy="980" r="5.398608637791053" fill="#000000"/><circle cx="740" cy="980" r="9.350944967830884" fill="#000000"/><circle cx="780" cy="980" r="5.351186714920344" fill="#000000"/><circle cx="820" cy="980" r="1.7785931755514706" fill="#000000"/><circle cx="940" cy="980" r="2.3151963177849266" fill="#000000"/><circle cx="980" cy="980" r="6.357853908164827" fill="#000000"/><circle cx="1020" cy="980" r="12.501488180721507" fill="#000000"/><circle cx="1060" cy="980" r="15.7821143655216" fill="#000000"/><circle cx="1100" cy="980" r="10.248104319852942" fill="#000000"/><circle cx="1140" cy="980" r="1.3372024835324758" fill="#000000"/><circle cx="1260" cy="980" r="1.9921946806066182" fill="#000000"/><circle cx="1300" cy="980" r="5.872367110906862" fill="#000000"/><circle cx="1340" cy="980" r="8.25567507276348" fill="#000000"/><circle cx="1380" cy="980" r="1.97726380591299" fill="#000000"/><circle cx="2140" cy="980" r="2.111963608685661" fill="#000000"/><circle cx="2180" cy="980" r="11.43885294596354" fill="#000000"/><circle cx="2220" cy="980" r="15.911168117149204" fill="#000000"/><circle cx="2260" cy="980" r="15.897254794251685" fill="#000000"/><circle cx="2300" cy="980" r="15.913889267865349" fill="#000000"/><circle cx="2340" cy="980" r="13.246817794500615" fill="#000000"/><circle cx="2380" cy="980" r="5.636301078048406" fill="#000000"/><circle cx="2420" cy="980" r="4.0728005801930145" fill="#000000"/><circle cx="2700" cy="980" r="2.535776175704656" fill="#000000"/><circle cx="2740" cy="980" r="2.5635986328125004" fill="#000000"/><circle cx="2780" cy="980" r="0.709617465150123" fill="#000000"/><circle cx="2820" cy="980" r="6.838800168504902" fill="#000000"/><circle cx="3060" cy="980" r="0.6024265663296569" fill="#000000"/><circle cx="3100" cy="980" r="3.399254892386643" fill="#000000"/><circle cx="3140" cy="980" r="6.121017156862745" fill="#000000"/><circle cx="3180" cy="980" r="8.293874703201594" fill="#000000"/><circle cx="3220" cy="980" r="9.942561130897671" fill="#000000"/><circle cx="3260" cy="980" r="11.145467720779719" fill="#000000"/><circle cx="3300" cy="980" r="11.889666389016543" fill="#000000"/><circle cx="3340" cy="980" r="12.26646333582261" fill="#000000"/><circle cx="3380" cy="980" r="12.263899260876226" fill="#000000"/><circle cx="3420" cy="980" r="11.844826492608762" fill="#000000"/><circle cx="3460" cy="980" r="11.117364621629902" fill="#000000"/><circle cx="3500" cy="980" r="10.02456724877451" fill="#000000"/><circle cx="3540" cy="980" r="8.889018937653185" fill="#000000"/><circle cx="3580" cy="980" r="9.518146589690563" fill="#000000"/><circle cx="3620" cy="980" r="9.414720722273284" fill="#000000"/><circle cx="3660" cy="980" r="7.55081116919424" fill="#000000"/><circle cx="3700" cy="980" r="3.8582859413296577" fill="#000000"/><circle cx="380" cy="1020" r="2.1718199486825984" fill="#000000"/><circle cx="420" cy="1020" r="14.301402372472424" fill="#000000"/><circle cx="460" cy="1020" r="15.909605138442096" fill="#000000"/><circle cx="500" cy="1020" r="1.392906039368873" fill="#000000"/><circle cx="660" cy="1020" r="6.544373755361519" fill="#000000"/><circle cx="700" cy="1020" r="3.3025799919577215" fill="#000000"/><circle cx="820" cy="1020" r="1.1199161305147065" fill="#000000"/><circle cx="860" cy="1020" r="3.622507132735906" fill="#000000"/><circle cx="900" cy="1020" r="4.102743709788603" fill="#000000"/><circle cx="940" cy="1020" r="2.3129057042738976" fill="#000000"/><circle cx="1060" cy="1020" r="5.320081523820466" fill="#000000"/><circle cx="1100" cy="1020" r="14.73674041149663" fill="#000000"/><circle cx="1140" cy="1020" r="14.097807042738971" fill="#000000"/><circle cx="1180" cy="1020" r="2.7309295055912997" fill="#000000"/><circle cx="1260" cy="1020" r="0.8329575482536766" fill="#000000"/><circle cx="2220" cy="1020" r="9.96681183459712" fill="#000000"/><circle cx="2260" cy="1020" r="15.90901154162837" fill="#000000"/><circle cx="2300" cy="1020" r="15.898420745251226" fill="#000000"/><circle cx="2340" cy="1020" r="15.904020421645221" fill="#000000"/><circle cx="2380" cy="1020" r="15.919692993164062" fill="#000000"/><circle cx="2420" cy="1020" r="12.615830365349264" fill="#000000"/><circle cx="2460" cy="1020" r="3.7727732938878678" fill="#000000"/><circle cx="2500" cy="1020" r="3.755852194393383" fill="#000000"/><circle cx="2540" cy="1020" r="3.42889164943321" fill="#000000"/><circle cx="2580" cy="1020" r="2.86404478783701" fill="#000000"/><circle cx="2620" cy="1020" r="1.900913612515318" fill="#000000"/><circle cx="2660" cy="1020" r="0.7791472790288001" fill="#000000"/><circle cx="2780" cy="1020" r="1.2749334597120088" fill="#000000"/><circle cx="2820" cy="1020" r="1.5801439472273282" fill="#000000"/><circle cx="2940" cy="1020" r="2.354069728477328" fill="#000000"/><circle cx="2980" cy="1020" r="6.468071432674631" fill="#000000"/><circle cx="3020" cy="1020" r="8.433730181525736" fill="#000000"/><circle cx="3060" cy="1020" r="9.564644607843139" fill="#000000"/><circle cx="3100" cy="1020" r="8.320748123468139" fill="#000000"/><circle cx="3140" cy="1020" r="7.065130495557598" fill="#000000"/><circle cx="3180" cy="1020" r="6.206376618030025" fill="#000000"/><circle cx="3220" cy="1020" r="5.77493465647978" fill="#000000"/><circle cx="3260" cy="1020" r="5.666953890931373" fill="#000000"/><circle cx="3300" cy="1020" r="5.940562528722426" fill="#000000"/><circle cx="3340" cy="1020" r="6.452769559972427" fill="#000000"/><circle cx="3380" cy="1020" r="7.9282202627144605" fill="#000000"/><circle cx="3420" cy="1020" r="14.891130035998774" fill="#000000"/><circle cx="3460" cy="1020" r="15.911090925628065" fill="#000000"/><circle cx="3500" cy="1020" r="15.917212392769608" fill="#000000"/><circle cx="3540" cy="1020" r="15.91180060891544" fill="#000000"/><circle cx="3580" cy="1020" r="15.910696889839922" fill="#000000"/><circle cx="3620" cy="1020" r="15.902113671396293" fill="#000000"/><circle cx="3660" cy="1020" r="15.909273334577971" fill="#000000"/><circle cx="3700" cy="1020" r="15.92388676662071" fill="#000000"/><circle cx="3740" cy="1020" r="14.039206112132355" fill="#000000"/><circle cx="3780" cy="1020" r="10.03099987553615" fill="#000000"/><circle cx="3820" cy="1020" r="6.651308545879289" fill="#000000"/><circle cx="3860" cy="1020" r="2.9934105966605395" fill="#000000"/><circle cx="420" cy="1060" r="4.178697773054534" fill="#000000"/><circle cx="460" cy="1060" r="15.832665536917892" fill="#000000"/><circle cx="500" cy="1060" r="1.1857036515778185" fill="#000000"/><circle cx="620" cy="1060" r="4.889824362362132" fill="#000000"/><circle cx="660" cy="1060" r="0.9180010627297785" fill="#000000"/><circle cx="740" cy="1060" r="3.8268683938419112" fill="#000000"/><circle cx="780" cy="1060" r="11.701743331609986" fill="#000000"/><circle cx="820" cy="1060" r="15.616698919558058" fill="#000000"/><circle cx="860" cy="1060" r="15.726565791111366" fill="#000000"/><circle cx="900" cy="1060" r="15.880403705671721" fill="#000000"/><circle cx="940" cy="1060" r="15.893651027305452" fill="#000000"/><circle cx="980" cy="1060" r="13.988925709443933" fill="#000000"/><circle cx="1020" cy="1060" r="7.316399069393382" fill="#000000"/><circle cx="1100" cy="1060" r="2.3668883080575975" fill="#000000"/><circle cx="1140" cy="1060" r="14.202651079963236" fill="#000000"/><circle cx="1180" cy="1060" r="14.382179409849877" fill="#000000"/><circle cx="1220" cy="1060" r="1.812016505821079" fill="#000000"/><circle cx="1980" cy="1060" r="0.515703986672793" fill="#000000"/><circle cx="2020" cy="1060" r="2.9199805166207105" fill="#000000"/><circle cx="2060" cy="1060" r="5.60330260033701" fill="#000000"/><circle cx="2100" cy="1060" r="8.052954580269606" fill="#000000"/><circle cx="2140" cy="1060" r="10.298478668811274" fill="#000000"/><circle cx="2180" cy="1060" r="12.328769459443933" fill="#000000"/><circle cx="2220" cy="1060" r="14.422513475605086" fill="#000000"/><circle cx="2260" cy="1060" r="15.91121628705193" fill="#000000"/><circle cx="2300" cy="1060" r="15.897254794251685" fill="#000000"/><circle cx="2340" cy="1060" r="15.897254794251685" fill="#000000"/><circle cx="2380" cy="1060" r="15.897254794251685" fill="#000000"/><circle cx="2420" cy="1060" r="15.897254794251685" fill="#000000"/><circle cx="2460" cy="1060" r="15.897254794251685" fill="#000000"/><circle cx="2500" cy="1060" r="15.897254794251685" fill="#000000"/><circle cx="2540" cy="1060" r="15.897254794251685" fill="#000000"/><circle cx="2580" cy="1060" r="15.897254794251685" fill="#000000"/><circle cx="2620" cy="1060" r="15.906511792949603" fill="#000000"/><circle cx="2660" cy="1060" r="15.77489336799173" fill="#000000"/><circle cx="2700" cy="1060" r="14.86287494734222" fill="#000000"/><circle cx="2740" cy="1060" r="12.852975882735906" fill="#000000"/><circle cx="2780" cy="1060" r="10.46443385703891" fill="#000000"/><circle cx="2820" cy="1060" r="7.652221679687501" fill="#000000"/><circle cx="2860" cy="1060" r="4.517827052696079" fill="#000000"/><circle cx="2900" cy="1060" r="3.1508382161458326" fill="#000000"/><circle cx="2940" cy="1060" r="2.1240318148743875" fill="#000000"/><circle cx="3340" cy="1060" r="2.077895220588235" fill="#000000"/><circle cx="3380" cy="1060" r="13.097683775658702" fill="#000000"/><circle cx="3420" cy="1060" r="15.932471181832108" fill="#000000"/><circle cx="3460" cy="1060" r="14.841729257621017" fill="#000000"/><circle cx="3500" cy="1060" r="11.569549560546875" fill="#000000"/><circle cx="3540" cy="1060" r="9.868016860064339" fill="#000000"/><circle cx="3580" cy="1060" r="10.038573021982229" fill="#000000"/><circle cx="3620" cy="1060" r="12.242332907284009" fill="#000000"/><circle cx="3660" cy="1060" r="15.536897247912837" fill="#000000"/><circle cx="3700" cy="1060" r="15.918790929457721" fill="#000000"/><circle cx="3740" cy="1060" r="15.904059615789677" fill="#000000"/><circle cx="3780" cy="1060" r="15.897254794251685" fill="#000000"/><circle cx="3820" cy="1060" r="15.897254794251685" fill="#000000"/><circle cx="3860" cy="1060" r="15.914243511125154" fill="#000000"/><circle cx="3900" cy="1060" r="14.805847766352635" fill="#000000"/><circle cx="3940" cy="1060" r="10.867514217601105" fill="#000000"/><circle cx="3980" cy="1060" r="6.487465054381127" fill="#000000"/><circle cx="4020" cy="1060" r="1.8834767061121327" fill="#000000"/><circle cx="460" cy="1100" r="12.077226825788909" fill="#000000"/><circle cx="500" cy="1100" r="1.013029210707721" fill="#000000"/><circle cx="580" cy="1100" r="2.381491268382352" fill="#000000"/><circle cx="620" cy="1100" r="1.107248343673406" fill="#000000"/><circle cx="700" cy="1100" r="7.989421769684437" fill="#000000"/><circle cx="740" cy="1100" r="10.776987711588541" fill="#000000"/><circle cx="780" cy="1100" r="4.441415824142156" fill="#000000"/><circle cx="820" cy="1100" r="0.9866237266390931" fill="#000000"/><circle cx="900" cy="1100" r="1.655561858532475" fill="#000000"/><circle cx="940" cy="1100" r="5.918400783164827" fill="#000000"/><circle cx="980" cy="1100" r="13.054577397365197" fill="#000000"/><circle cx="1020" cy="1100" r="15.912053426106771" fill="#000000"/><circle cx="1060" cy="1100" r="12.762763528262868" fill="#000000"/><circle cx="1100" cy="1100" r="1.593013987821692" fill="#000000"/><circle cx="1140" cy="1100" r="3.159732594209559" fill="#000000"/><circle cx="1180" cy="1100" r="15.490271474800858" fill="#000000"/><circle cx="1220" cy="1100" r="11.72328395469516" fill="#000000"/><circle cx="1820" cy="1100" r="2.483899883195466" fill="#000000"/><circle cx="1860" cy="1100" r="6.210196700750612" fill="#000000"/><circle cx="1900" cy="1100" r="9.718988156786153" fill="#000000"/><circle cx="1940" cy="1100" r="12.98052260454963" fill="#000000"/><circle cx="1980" cy="1100" r="15.519591387580423" fill="#000000"/><circle cx="2020" cy="1100" r="15.934123918121937" fill="#000000"/><circle cx="2060" cy="1100" r="15.930602129767923" fill="#000000"/><circle cx="2100" cy="1100" r="15.934423110064337" fill="#000000"/><circle cx="2140" cy="1100" r="15.941465190812654" fill="#000000"/><circle cx="2180" cy="1100" r="15.93479829676011" fill="#000000"/><circle cx="2220" cy="1100" r="15.931802487840837" fill="#000000"/><circle cx="2260" cy="1100" r="15.938527125938267" fill="#000000"/><circle cx="2300" cy="1100" r="15.937591552734375" fill="#000000"/><circle cx="2340" cy="1100" r="15.930513568952973" fill="#000000"/><circle cx="2380" cy="1100" r="15.900293986002605" fill="#000000"/><circle cx="2420" cy="1100" r="15.894185683306524" fill="#000000"/><circle cx="2460" cy="1100" r="15.941550161324296" fill="#000000"/><circle cx="2500" cy="1100" r="15.927402571135875" fill="#000000"/><circle cx="2540" cy="1100" r="15.937544579599418" fill="#000000"/><circle cx="2580" cy="1100" r="15.927707447725183" fill="#000000"/><circle cx="2620" cy="1100" r="15.934928445255053" fill="#000000"/><circle cx="2660" cy="1100" r="15.93052972531786" fill="#000000"/><circle cx="2700" cy="1100" r="15.922882379270067" fill="#000000"/><circle cx="2740" cy="1100" r="15.912802901922486" fill="#000000"/><circle cx="2780" cy="1100" r="15.92219633214614" fill="#000000"/><circle cx="2820" cy="1100" r="15.931725296319698" fill="#000000"/><circle cx="2860" cy="1100" r="15.927507886699601" fill="#000000"/><circle cx="2900" cy="1100" r="15.743211035634957" fill="#000000"/><circle cx="2940" cy="1100" r="12.931311513863356" fill="#000000"/><circle cx="2980" cy="1100" r="8.79678165211397" fill="#000000"/><circle cx="3020" cy="1100" r="4.38894952512255" fill="#000000"/><circle cx="3060" cy="1100" r="0.5599449008118862" fill="#000000"/><circle cx="3300" cy="1100" r="1.7361809225643388" fill="#000000"/><circle cx="3340" cy="1100" r="14.085115918926165" fill="#000000"/><circle cx="3380" cy="1100" r="12.390993604473039" fill="#000000"/><circle cx="3420" cy="1100" r="4.717488606770834" fill="#000000"/><circle cx="3500" cy="1100" r="1.6444283279718142" fill="#000000"/><circle cx="3540" cy="1100" r="3.9867075003829666" fill="#000000"/><circle cx="3580" cy="1100" r="4.162194345511643" fill="#000000"/><circle cx="3620" cy="1100" r="2.2168854358149503" fill="#000000"/><circle cx="3660" cy="1100" r="1.384623209635416" fill="#000000"/><circle cx="3700" cy="1100" r="8.540570427389707" fill="#000000"/><circle cx="3740" cy="1100" r="15.638907638250611" fill="#000000"/><circle cx="3780" cy="1100" r="15.911150764016543" fill="#000000"/><circle cx="3820" cy="1100" r="15.899665383731618" fill="#000000"/><circle cx="3860" cy="1100" r="15.833376117781096" fill="#000000"/><circle cx="3900" cy="1100" r="12.198269114774815" fill="#000000"/><circle cx="3940" cy="1100" r="15.282046149758733" fill="#000000"/><circle cx="3980" cy="1100" r="15.923594755284928" fill="#000000"/><circle cx="4020" cy="1100" r="15.842960432464002" fill="#000000"/><circle cx="4060" cy="1100" r="12.81236177332261" fill="#000000"/><circle cx="4100" cy="1100" r="7.629071403952206" fill="#000000"/><circle cx="4140" cy="1100" r="2.2540833716299025" fill="#000000"/><circle cx="460" cy="1140" r="6.746913535922181" fill="#000000"/><circle cx="500" cy="1140" r="1.956653071384804" fill="#000000"/><circle cx="580" cy="1140" r="1.9778837316176467" fill="#000000"/><circle cx="660" cy="1140" r="6.6475435144761015" fill="#000000"/><circle cx="700" cy="1140" r="5.144125545726103" fill="#000000"/><circle cx="1020" cy="1140" r="8.803507486979168" fill="#000000"/><circle cx="1060" cy="1140" r="15.905439189836091" fill="#000000"/><circle cx="1100" cy="1140" r="13.024753346162683" fill="#000000"/><circle cx="1140" cy="1140" r="0.632632984834558" fill="#000000"/><circle cx="1180" cy="1140" r="8.530196844362745" fill="#000000"/><circle cx="1220" cy="1140" r="15.932290170706956" fill="#000000"/><circle cx="1260" cy="1140" r="4.514904545802696" fill="#000000"/><circle cx="1660" cy="1140" r="1.1866119983149503" fill="#000000"/><circle cx="1700" cy="1140" r="5.710930319393381" fill="#000000"/><circle cx="1740" cy="1140" r="10.235537061504289" fill="#000000"/><circle cx="1780" cy="1140" r="14.408711751302084" fill="#000000"/><circle cx="1820" cy="1140" r="15.843874164656096" fill="#000000"/><circle cx="1860" cy="1140" r="14.443358776616115" fill="#000000"/><circle cx="1900" cy="1140" r="12.307091208065257" fill="#000000"/><circle cx="1940" cy="1140" r="10.345262116076901" fill="#000000"/><circle cx="1980" cy="1140" r="8.600965312882966" fill="#000000"/><circle cx="2020" cy="1140" r="7.08355712890625" fill="#000000"/><circle cx="2060" cy="1140" r="5.784620098039214" fill="#000000"/><circle cx="2100" cy="1140" r="4.6503762637867645" fill="#000000"/><circle cx="2140" cy="1140" r="3.6546930051317394" fill="#000000"/><circle cx="2180" cy="1140" r="2.886755849800857" fill="#000000"/><circle cx="2220" cy="1140" r="2.234549728094364" fill="#000000"/><circle cx="2260" cy="1140" r="1.7167095109528185" fill="#000000"/><circle cx="2300" cy="1140" r="1.3630442899816186" fill="#000000"/><circle cx="2340" cy="1140" r="1.1885040881587017" fill="#000000"/><circle cx="2380" cy="1140" r="1.1041104185814943" fill="#000000"/><circle cx="2420" cy="1140" r="1.116215724571079" fill="#000000"/><circle cx="2460" cy="1140" r="1.205481435738358" fill="#000000"/><circle cx="2500" cy="1140" r="1.3651697495404402" fill="#000000"/><circle cx="2540" cy="1140" r="1.6607390759037988" fill="#000000"/><circle cx="2580" cy="1140" r="2.0425235523897056" fill="#000000"/><circle cx="2620" cy="1140" r="2.5083725873161766" fill="#000000"/><circle cx="2660" cy="1140" r="2.9626859777113967" fill="#000000"/><circle cx="2700" cy="1140" r="3.5386089250153185" fill="#000000"/><circle cx="2740" cy="1140" r="4.3892439299938735" fill="#000000"/><circle cx="2780" cy="1140" r="5.2649715647977935" fill="#000000"/><circle cx="2820" cy="1140" r="6.326029459635416" fill="#000000"/><circle cx="2860" cy="1140" r="7.454445034849877" fill="#000000"/><circle cx="2900" cy="1140" r="8.64089905981924" fill="#000000"/><circle cx="2940" cy="1140" r="9.921652401194853" fill="#000000"/><circle cx="2980" cy="1140" r="11.275836420994178" fill="#000000"/><circle cx="3020" cy="1140" r="12.66649014342065" fill="#000000"/><circle cx="3060" cy="1140" r="13.406063902611827" fill="#000000"/><circle cx="3100" cy="1140" r="10.612088072533702" fill="#000000"/><circle cx="3140" cy="1140" r="6.544190649892769" fill="#000000"/><circle cx="3180" cy="1140" r="2.03555238013174" fill="#000000"/><circle cx="3300" cy="1140" r="11.988545735677082" fill="#000000"/><circle cx="3340" cy="1140" r="7.560112448299632" fill="#000000"/><circle cx="3420" cy="1140" r="4.388010062423406" fill="#000000"/><circle cx="3460" cy="1140" r="12.546196432674632" fill="#000000"/><circle cx="3500" cy="1140" r="15.873991723154106" fill="#000000"/><circle cx="3540" cy="1140" r="15.912194943895525" fill="#000000"/><circle cx="3580" cy="1140" r="15.909511491364123" fill="#000000"/><circle cx="3620" cy="1140" r="15.935642018037683" fill="#000000"/><circle cx="3660" cy="1140" r="13.750055051317403" fill="#000000"/><circle cx="3700" cy="1140" r="6.7415950999540435" fill="#000000"/><circle cx="3740" cy="1140" r="4.314802581188726" fill="#000000"/><circle cx="3780" cy="1140" r="15.545718024758733" fill="#000000"/><circle cx="3820" cy="1140" r="15.899263568952971" fill="#000000"/><circle cx="3860" cy="1140" r="15.918355904373467" fill="#000000"/><circle cx="3900" cy="1140" r="9.557475968903187" fill="#000000"/><circle cx="3940" cy="1140" r="0.6022913315716916" fill="#000000"/><circle cx="3980" cy="1140" r="4.694410137101716" fill="#000000"/><circle cx="4020" cy="1140" r="9.995317646101409" fill="#000000"/><circle cx="4060" cy="1140" r="15.001712275486367" fill="#000000"/><circle cx="4100" cy="1140" r="15.917972340303308" fill="#000000"/><circle cx="4140" cy="1140" r="15.86981081495098" fill="#000000"/><circle cx="4180" cy="1140" r="12.394963283164827" fill="#000000"/><circle cx="4220" cy="1140" r="6.37154852175245" fill="#000000"/><circle cx="4260" cy="1140" r="0.8949752508425246" fill="#000000"/><circle cx="460" cy="1180" r="1.007824467677696" fill="#000000"/><circle cx="500" cy="1180" r="3.1572301528033098" fill="#000000"/><circle cx="540" cy="1180" r="0.9350394454656863" fill="#000000"/><circle cx="620" cy="1180" r="2.157099705116421" fill="#000000"/><circle cx="660" cy="1180" r="4.904537425321691" fill="#000000"/><circle cx="1060" cy="1180" r="9.774545706954656" fill="#000000"/><circle cx="1100" cy="1180" r="15.939108755074296" fill="#000000"/><circle cx="1140" cy="1180" r="8.189523734298408" fill="#000000"/><circle cx="1180" cy="1180" r="1.4902343749999991" fill="#000000"/><circle cx="1220" cy="1180" r="15.586232503255209" fill="#000000"/><circle cx="1260" cy="1180" r="10.853147020526961" fill="#000000"/><circle cx="1540" cy="1180" r="0.810416427313112" fill="#000000"/><circle cx="1580" cy="1180" r="6.001826267616421" fill="#000000"/><circle cx="1620" cy="1180" r="11.57072837679994" fill="#000000"/><circle cx="1660" cy="1180" r="13.22719020469516" fill="#000000"/><circle cx="1700" cy="1180" r="9.962562112247241" fill="#000000"/><circle cx="1740" cy="1180" r="6.641586004518995" fill="#000000"/><circle cx="1780" cy="1180" r="3.6380351945465694" fill="#000000"/><circle cx="1820" cy="1180" r="1.0771292892156858" fill="#000000"/><circle cx="3140" cy="1180" r="1.1669479070925237" fill="#000000"/><circle cx="3180" cy="1180" r="2.687850652956496" fill="#000000"/><circle cx="3220" cy="1180" r="1.8528442382812504" fill="#000000"/><circle cx="3260" cy="1180" r="5.616122376685048" fill="#000000"/><circle cx="3300" cy="1180" r="8.35675048828125" fill="#000000"/><circle cx="3380" cy="1180" r="7.559043734681373" fill="#000000"/><circle cx="3420" cy="1180" r="15.835089590035235" fill="#000000"/><circle cx="3460" cy="1180" r="12.281631768918505" fill="#000000"/><circle cx="3500" cy="1180" r="8.233127967984068" fill="#000000"/><circle cx="3540" cy="1180" r="7.235973881740197" fill="#000000"/><circle cx="3580" cy="1180" r="9.33862065333946" fill="#000000"/><circle cx="3620" cy="1180" r="14.332893521178002" fill="#000000"/><circle cx="3660" cy="1180" r="15.928524540919884" fill="#000000"/><circle cx="3700" cy="1180" r="15.919581095377604" fill="#000000"/><circle cx="3740" cy="1180" r="13.159490248736212" fill="#000000"/><circle cx="3780" cy="1180" r="15.50604487400429" fill="#000000"/><circle cx="3820" cy="1180" r="15.897254794251685" fill="#000000"/><circle cx="3860" cy="1180" r="15.895584106445312" fill="#000000"/><circle cx="3900" cy="1180" r="15.81721077713312" fill="#000000"/><circle cx="3940" cy="1180" r="2.986279057521446" fill="#000000"/><circle cx="4060" cy="1180" r="0.630120969286152" fill="#000000"/><circle cx="4100" cy="1180" r="5.609512628293505" fill="#000000"/><circle cx="4140" cy="1180" r="11.800726797066483" fill="#000000"/><circle cx="4180" cy="1180" r="15.812930836397058" fill="#000000"/><circle cx="4220" cy="1180" r="15.929815554151347" fill="#000000"/><circle cx="4260" cy="1180" r="15.111016965379902" fill="#000000"/><circle cx="4300" cy="1180" r="9.388962689568014" fill="#000000"/><circle cx="4340" cy="1180" r="2.5295110964307588" fill="#000000"/><circle cx="620" cy="1220" r="4.290017520680147" fill="#000000"/><circle cx="1060" cy="1220" r="0.9801563936121327" fill="#000000"/><circle cx="1100" cy="1220" r="14.86569034352022" fill="#000000"/><circle cx="1140" cy="1220" r="14.83431946997549" fill="#000000"/><circle cx="1220" cy="1220" r="11.989777808095896" fill="#000000"/><circle cx="1260" cy="1220" r="14.987169751933976" fill="#000000"/><circle cx="1460" cy="1220" r="2.2844609279258576" fill="#000000"/><circle cx="1500" cy="1220" r="8.60104310278799" fill="#000000"/><circle cx="1540" cy="1220" r="9.963578766467524" fill="#000000"/><circle cx="1580" cy="1220" r="5.994200463388479" fill="#000000"/><circle cx="1620" cy="1220" r="1.672259162454044" fill="#000000"/><circle cx="3260" cy="1220" r="10.580942191329656" fill="#000000"/><circle cx="3300" cy="1220" r="0.572161506204043" fill="#000000"/><circle cx="3340" cy="1220" r="5.016426834405636" fill="#000000"/><circle cx="3380" cy="1220" r="13.901818967333028" fill="#000000"/><circle cx="3420" cy="1220" r="3.8906238032322293" fill="#000000"/><circle cx="3620" cy="1220" r="0.5248975566789205" fill="#000000"/><circle cx="3660" cy="1220" r="8.476964613970587" fill="#000000"/><circle cx="3700" cy="1220" r="15.85364128561581" fill="#000000"/><circle cx="3740" cy="1220" r="15.897254794251685" fill="#000000"/><circle cx="3780" cy="1220" r="15.897254794251685" fill="#000000"/><circle cx="3820" cy="1220" r="15.897254794251685" fill="#000000"/><circle cx="3860" cy="1220" r="15.897254794251685" fill="#000000"/><circle cx="3900" cy="1220" r="15.90440667844286" fill="#000000"/><circle cx="3940" cy="1220" r="9.663950003829658" fill="#000000"/><circle cx="4180" cy="1220" r="2.4108300302542895" fill="#000000"/><circle cx="4220" cy="1220" r="9.013068704044118" fill="#000000"/><circle cx="4260" cy="1220" r="15.056600533279719" fill="#000000"/><circle cx="4300" cy="1220" r="15.913549984202666" fill="#000000"/><circle cx="4340" cy="1220" r="15.782630770814185" fill="#000000"/><circle cx="4380" cy="1220" r="10.919100293926164" fill="#000000"/><circle cx="4420" cy="1220" r="3.170863731234681" fill="#000000"/><circle cx="620" cy="1260" r="2.3987438725490207" fill="#000000"/><circle cx="1100" cy="1260" r="9.543519263174021" fill="#000000"/><circle cx="1140" cy="1260" r="15.921093510646447" fill="#000000"/><circle cx="1180" cy="1260" r="3.7577083812040435" fill="#000000"/><circle cx="1220" cy="1260" r="8.969495586320466" fill="#000000"/><circle cx="1260" cy="1260" r="15.920169905120252" fill="#000000"/><circle cx="1300" cy="1260" r="1.876918418734681" fill="#000000"/><circle cx="1380" cy="1260" r="1.6403150371476705" fill="#000000"/><circle cx="1420" cy="1260" r="6.305131500842524" fill="#000000"/><circle cx="1460" cy="1260" r="5.715591729856005" fill="#000000"/><circle cx="1500" cy="1260" r="0.8126747280943625" fill="#000000"/><circle cx="3220" cy="1260" r="1.3349202473958344" fill="#000000"/><circle cx="3260" cy="1260" r="7.129892386642156" fill="#000000"/><circle cx="3340" cy="1260" r="11.85992670994179" fill="#000000"/><circle cx="3380" cy="1260" r="1.7643995098039222" fill="#000000"/><circle cx="3700" cy="1260" r="7.935499004289214" fill="#000000"/><circle cx="3740" cy="1260" r="15.905278224571077" fill="#000000"/><circle cx="3780" cy="1260" r="15.897254794251685" fill="#000000"/><circle cx="3820" cy="1260" r="15.897254794251685" fill="#000000"/><circle cx="3860" cy="1260" r="15.897254794251685" fill="#000000"/><circle cx="3900" cy="1260" r="15.897254794251685" fill="#000000"/><circle cx="3940" cy="1260" r="14.337999530867034" fill="#000000"/><circle cx="4260" cy="1260" r="1.0252147001378686" fill="#000000"/><circle cx="4300" cy="1260" r="7.696650486366421" fill="#000000"/><circle cx="4340" cy="1260" r="14.764461741727942" fill="#000000"/><circle cx="4380" cy="1260" r="15.919718125287226" fill="#000000"/><circle cx="4420" cy="1260" r="15.83065855736826" fill="#000000"/><circle cx="4460" cy="1260" r="10.59766343060662" fill="#000000"/><circle cx="4500" cy="1260" r="1.5253678864123765" fill="#000000"/><circle cx="620" cy="1300" r="1.0952663047640931" fill="#000000"/><circle cx="1100" cy="1300" r="6.159273035386031" fill="#000000"/><circle cx="1140" cy="1300" r="15.903438194125306" fill="#000000"/><circle cx="1180" cy="1300" r="5.854061351102942" fill="#000000"/><circle cx="1220" cy="1300" r="7.804115445006127" fill="#000000"/><circle cx="1260" cy="1300" r="15.92904722924326" fill="#000000"/><circle cx="1300" cy="1300" r="2.772056429993872" fill="#000000"/><circle cx="1340" cy="1300" r="1.5030397901348036" fill="#000000"/><circle cx="1380" cy="1300" r="2.6275455250459556" fill="#000000"/><circle cx="2940" cy="1300" r="0.6003501742493866" fill="#000000"/><circle cx="2980" cy="1300" r="0.9782200233609073" fill="#000000"/><circle cx="3020" cy="1300" r="0.9115971583946081" fill="#000000"/><circle cx="3220" cy="1300" r="4.003763834635416" fill="#000000"/><circle cx="3260" cy="1300" r="2.0973917643229156" fill="#000000"/><circle cx="3300" cy="1300" r="3.2692428289675246" fill="#000000"/><circle cx="3340" cy="1300" r="5.039611816406251" fill="#000000"/><circle cx="3740" cy="1300" r="13.398573931525736" fill="#000000"/><circle cx="3780" cy="1300" r="15.902338962928921" fill="#000000"/><circle cx="3820" cy="1300" r="15.898633769914214" fill="#000000"/><circle cx="3860" cy="1300" r="15.897254794251685" fill="#000000"/><circle cx="3900" cy="1300" r="15.897254794251685" fill="#000000"/><circle cx="3940" cy="1300" r="15.898973352768841" fill="#000000"/><circle cx="3980" cy="1300" r="1.3505440506280642" fill="#000000"/><circle cx="4340" cy="1300" r="1.0899215399050255" fill="#000000"/><circle cx="4380" cy="1300" r="9.433079139859068" fill="#000000"/><circle cx="4420" cy="1300" r="15.870517805510875" fill="#000000"/><circle cx="4460" cy="1300" r="15.898427327473959" fill="#000000"/><circle cx="4500" cy="1300" r="9.568895526960784" fill="#000000"/><circle cx="1100" cy="1340" r="5.4100341796875" fill="#000000"/><circle cx="1140" cy="1340" r="15.921634150486366" fill="#000000"/><circle cx="1180" cy="1340" r="5.673412846583945" fill="#000000"/><circle cx="1220" cy="1340" r="8.516413669960173" fill="#000000"/><circle cx="1260" cy="1340" r="15.914803000057445" fill="#000000"/><circle cx="1300" cy="1340" r="1.896516687729779" fill="#000000"/><circle cx="2700" cy="1340" r="0.9389995500153181" fill="#000000"/><circle cx="2740" cy="1340" r="4.328026865042894" fill="#000000"/><circle cx="2780" cy="1340" r="7.638292499617034" fill="#000000"/><circle cx="2820" cy="1340" r="10.572567808861827" fill="#000000"/><circle cx="2860" cy="1340" r="13.019559972426471" fill="#000000"/><circle cx="2900" cy="1340" r="14.917482263901656" fill="#000000"/><circle cx="2940" cy="1340" r="15.68846279967065" fill="#000000"/><circle cx="2980" cy="1340" r="15.948904000076594" fill="#000000"/><circle cx="3020" cy="1340" r="15.914149864047182" fill="#000000"/><circle cx="3060" cy="1340" r="15.522690417719822" fill="#000000"/><circle cx="3100" cy="1340" r="13.733189003140318" fill="#000000"/><circle cx="3140" cy="1340" r="8.097191904105392" fill="#000000"/><circle cx="3180" cy="1340" r="1.0301154641544108" fill="#000000"/><circle cx="3220" cy="1340" r="4.057811063878676" fill="#000000"/><circle cx="3300" cy="1340" r="4.3558325674019605" fill="#000000"/><circle cx="3740" cy="1340" r="7.609889610140932" fill="#000000"/><circle cx="3780" cy="1340" r="15.918036666570925" fill="#000000"/><circle cx="3820" cy="1340" r="15.902988209443933" fill="#000000"/><circle cx="3860" cy="1340" r="15.897254794251685" fill="#000000"/><circle cx="3900" cy="1340" r="15.897254794251685" fill="#000000"/><circle cx="3940" cy="1340" r="15.939900416953892" fill="#000000"/><circle cx="3980" cy="1340" r="2.4370895086550237" fill="#000000"/><circle cx="4420" cy="1340" r="9.94921994676777" fill="#000000"/><circle cx="4460" cy="1340" r="15.897254794251685" fill="#000000"/><circle cx="4500" cy="1340" r="12.634282729204962" fill="#000000"/><circle cx="1100" cy="1380" r="7.160128724341299" fill="#000000"/><circle cx="1140" cy="1380" r="15.942637724034928" fill="#000000"/><circle cx="1180" cy="1380" r="3.2182916379442394" fill="#000000"/><circle cx="1220" cy="1380" r="11.12384392233456" fill="#000000"/><circle cx="1260" cy="1380" r="15.022341859106925" fill="#000000"/><circle cx="1460" cy="1380" r="3.581619561887255" fill="#000000"/><circle cx="1500" cy="1380" r="3.78963934206495" fill="#000000"/><circle cx="2540" cy="1380" r="0.5622498755361516" fill="#000000"/><circle cx="2580" cy="1380" r="4.28277707567402" fill="#000000"/><circle cx="2620" cy="1380" r="8.56109619140625" fill="#000000"/><circle cx="2660" cy="1380" r="12.711245069316789" fill="#000000"/><circle cx="2700" cy="1380" r="15.675700767367493" fill="#000000"/><circle cx="2740" cy="1380" r="15.936943502987134" fill="#000000"/><circle cx="2780" cy="1380" r="15.92035031786152" fill="#000000"/><circle cx="2820" cy="1380" r="15.920667162128524" fill="#000000"/><circle cx="2860" cy="1380" r="15.928502699908087" fill="#000000"/><circle cx="2900" cy="1380" r="15.456669826133577" fill="#000000"/><circle cx="2940" cy="1380" r="12.932762594784005" fill="#000000"/><circle cx="2980" cy="1380" r="9.911920285692402" fill="#000000"/><circle cx="3020" cy="1380" r="6.864711387484681" fill="#000000"/><circle cx="3060" cy="1380" r="3.7774179496017157" fill="#000000"/><circle cx="3100" cy="1380" r="0.8156953699448533" fill="#000000"/><circle cx="3180" cy="1380" r="1.8344235887714455" fill="#000000"/><circle cx="3220" cy="1380" r="2.4124863568474275" fill="#000000"/><circle cx="3300" cy="1380" r="1.9387458352481612" fill="#000000"/><circle cx="3740" cy="1380" r="4.839051489736519" fill="#000000"/><circle cx="3780" cy="1380" r="15.93563034955193" fill="#000000"/><circle cx="3820" cy="1380" r="15.901289696786918" fill="#000000"/><circle cx="3860" cy="1380" r="15.897254794251685" fill="#000000"/><circle cx="3900" cy="1380" r="15.897254794251685" fill="#000000"/><circle cx="3940" cy="1380" r="15.943915273628983" fill="#000000"/><circle cx="3980" cy="1380" r="1.8091418696384798" fill="#000000"/><circle cx="4420" cy="1380" r="9.258159562653185" fill="#000000"/><circle cx="4460" cy="1380" r="15.897254794251685" fill="#000000"/><circle cx="4500" cy="1380" r="13.453239291321996" fill="#000000"/><circle cx="1100" cy="1420" r="11.644120758655024" fill="#000000"/><circle cx="1140" cy="1420" r="14.100514131433822" fill="#000000"/><circle cx="1180" cy="1420" r="0.8825563916973045" fill="#000000"/><circle cx="1220" cy="1420" r="15.061915678136488" fill="#000000"/><circle cx="1260" cy="1420" r="10.859488094554228" fill="#000000"/><circle cx="1500" cy="1420" r="2.8595868278952197" fill="#000000"/><circle cx="1540" cy="1420" r="8.72473383884804" fill="#000000"/><circle cx="1580" cy="1420" r="9.949389887791053" fill="#000000"/><circle cx="1620" cy="1420" r="5.921027688419118" fill="#000000"/><circle cx="1660" cy="1420" r="1.4294206207873783" fill="#000000"/><circle cx="2420" cy="1420" r="2.535711550245099" fill="#000000"/><circle cx="2460" cy="1420" r="6.918071672028185" fill="#000000"/><circle cx="2500" cy="1420" r="11.370809517654719" fill="#000000"/><circle cx="2540" cy="1420" r="15.264241237266392" fill="#000000"/><circle cx="2580" cy="1420" r="15.923920874502144" fill="#000000"/><circle cx="2620" cy="1420" r="15.92157102098652" fill="#000000"/><circle cx="2660" cy="1420" r="15.852299409754135" fill="#000000"/><circle cx="2700" cy="1420" r="14.433068368949142" fill="#000000"/><circle cx="2740" cy="1420" r="11.599735035615808" fill="#000000"/><circle cx="2780" cy="1420" r="8.71841490502451" fill="#000000"/><circle cx="2820" cy="1420" r="5.799146465226716" fill="#000000"/><circle cx="2860" cy="1420" r="2.8804788028492645" fill="#000000"/><circle cx="3100" cy="1420" r="2.2770649031096823" fill="#000000"/><circle cx="3140" cy="1420" r="12.45860200769761" fill="#000000"/><circle cx="3180" cy="1420" r="9.302870806525736" fill="#000000"/><circle cx="3740" cy="1420" r="5.080105650658702" fill="#000000"/><circle cx="3780" cy="1420" r="15.924321791704962" fill="#000000"/><circle cx="3820" cy="1420" r="15.899599860696231" fill="#000000"/><circle cx="3860" cy="1420" r="15.897254794251685" fill="#000000"/><circle cx="3900" cy="1420" r="15.897254794251685" fill="#000000"/><circle cx="3940" cy="1420" r="15.107261807310815" fill="#000000"/><circle cx="4420" cy="1420" r="13.671013925589769" fill="#000000"/><circle cx="4460" cy="1420" r="15.897254794251685" fill="#000000"/><circle cx="4500" cy="1420" r="12.919987098843444" fill="#000000"/><circle cx="1060" cy="1460" r="3.4569079829197302" fill="#000000"/><circle cx="1100" cy="1460" r="15.84398037779565" fill="#000000"/><circle cx="1140" cy="1460" r="6.640221689261643" fill="#000000"/><circle cx="1180" cy="1460" r="6.65279852175245" fill="#000000"/><circle cx="1220" cy="1460" r="15.925976323146447" fill="#000000"/><circle cx="1260" cy="1460" r="4.47406364889706" fill="#000000"/><circle cx="1580" cy="1460" r="0.9790278416053932" fill="#000000"/><circle cx="1620" cy="1460" r="6.401204427083334" fill="#000000"/><circle cx="1660" cy="1460" r="11.999298095703125" fill="#000000"/><circle cx="1700" cy="1460" r="12.484369016161152" fill="#000000"/><circle cx="1740" cy="1460" r="8.313314998851101" fill="#000000"/><circle cx="1780" cy="1460" r="4.359745998008579" fill="#000000"/><circle cx="1820" cy="1460" r="1.0281826842064956" fill="#000000"/><circle cx="2260" cy="1460" r="2.68347048291973" fill="#000000"/><circle cx="2300" cy="1460" r="6.244397930070466" fill="#000000"/><circle cx="2340" cy="1460" r="10.07467711205576" fill="#000000"/><circle cx="2380" cy="1460" r="14.111334707222731" fill="#000000"/><circle cx="2420" cy="1460" r="15.929035560757505" fill="#000000"/><circle cx="2460" cy="1460" r="15.279829137465534" fill="#000000"/><circle cx="2500" cy="1460" r="12.755136527267156" fill="#000000"/><circle cx="2540" cy="1460" r="9.938648897058824" fill="#000000"/><circle cx="2580" cy="1460" r="7.083451813342525" fill="#000000"/><circle cx="2620" cy="1460" r="4.2359319948682606" fill="#000000"/><circle cx="2660" cy="1460" r="1.4577684589460782" fill="#000000"/><circle cx="3060" cy="1460" r="2.4620732326133576" fill="#000000"/><circle cx="3100" cy="1460" r="14.519476797066485" fill="#000000"/><circle cx="3140" cy="1460" r="15.904111974379596" fill="#000000"/><circle cx="3180" cy="1460" r="10.13135364008885" fill="#000000"/><circle cx="3740" cy="1460" r="8.450902602251837" fill="#000000"/><circle cx="3780" cy="1460" r="15.911285101198683" fill="#000000"/><circle cx="3820" cy="1460" r="15.897958194508274" fill="#000000"/><circle cx="3860" cy="1460" r="15.897254794251685" fill="#000000"/><circle cx="3900" cy="1460" r="15.904782164330575" fill="#000000"/><circle cx="3940" cy="1460" r="11.126355937882966" fill="#000000"/><circle cx="3980" cy="1460" r="2.4032939836090694" fill="#000000"/><circle cx="4020" cy="1460" r="4.392752853094364" fill="#000000"/><circle cx="4060" cy="1460" r="3.701410031786152" fill="#000000"/><circle cx="4100" cy="1460" r="2.545953488817403" fill="#000000"/><circle cx="4140" cy="1460" r="1.209830489813113" fill="#000000"/><circle cx="4340" cy="1460" r="3.3228257123161775" fill="#000000"/><circle cx="4380" cy="1460" r="11.513393626493567" fill="#000000"/><circle cx="4420" cy="1460" r="15.905620799345128" fill="#000000"/><circle cx="4460" cy="1460" r="15.897254794251685" fill="#000000"/><circle cx="4500" cy="1460" r="11.466130873736214" fill="#000000"/><circle cx="580" cy="1500" r="0.6624313055300246" fill="#000000"/><circle cx="1020" cy="1500" r="1.4282334271599262" fill="#000000"/><circle cx="1060" cy="1500" r="13.621979956533394" fill="#000000"/><circle cx="1100" cy="1500" r="11.266744576248469" fill="#000000"/><circle cx="1140" cy="1500" r="1.6869602577359077" fill="#000000"/><circle cx="1180" cy="1500" r="14.633129643458947" fill="#000000"/><circle cx="1220" cy="1500" r="11.644650328393077" fill="#000000"/><circle cx="1700" cy="1500" r="1.7584922640931366" fill="#000000"/><circle cx="1740" cy="1500" r="6.6321303423713225" fill="#000000"/><circle cx="1780" cy="1500" r="11.209248860677084" fill="#000000"/><circle cx="1820" cy="1500" r="14.758545520258885" fill="#000000"/><circle cx="1860" cy="1500" r="13.762551700367647" fill="#000000"/><circle cx="1900" cy="1500" r="11.371935077742034" fill="#000000"/><circle cx="1940" cy="1500" r="9.599962421492034" fill="#000000"/><circle cx="1980" cy="1500" r="8.448990167356005" fill="#000000"/><circle cx="2020" cy="1500" r="7.992010378370098" fill="#000000"/><circle cx="2060" cy="1500" r="8.116992426853553" fill="#000000"/><circle cx="2100" cy="1500" r="8.909099504059437" fill="#000000"/><circle cx="2140" cy="1500" r="10.508607752182906" fill="#000000"/><circle cx="2180" cy="1500" r="12.682833204082415" fill="#000000"/><circle cx="2220" cy="1500" r="14.85797358494179" fill="#000000"/><circle cx="2260" cy="1500" r="13.659182081035539" fill="#000000"/><circle cx="2300" cy="1500" r="10.972422880284928" fill="#000000"/><circle cx="2340" cy="1500" r="8.109596402037377" fill="#000000"/><circle cx="2380" cy="1500" r="5.261606253829656" fill="#000000"/><circle cx="2420" cy="1500" r="2.432741651348038" fill="#000000"/><circle cx="2500" cy="1500" r="0.5871881223192399" fill="#000000"/><circle cx="2540" cy="1500" r="1.7359918332567403" fill="#000000"/><circle cx="2580" cy="1500" r="3.014379164751839" fill="#000000"/><circle cx="2620" cy="1500" r="4.222960229013479" fill="#000000"/><circle cx="2660" cy="1500" r="5.302338244868259" fill="#000000"/><circle cx="2700" cy="1500" r="6.345253140318627" fill="#000000"/><circle cx="2740" cy="1500" r="7.183190439261642" fill="#000000"/><circle cx="2780" cy="1500" r="7.964132869944853" fill="#000000"/><circle cx="2820" cy="1500" r="8.446602615655635" fill="#000000"/><circle cx="2860" cy="1500" r="8.80981325635723" fill="#000000"/><circle cx="2900" cy="1500" r="8.934953278186274" fill="#000000"/><circle cx="2940" cy="1500" r="8.855837354473039" fill="#000000"/><circle cx="2980" cy="1500" r="8.471082500382964" fill="#000000"/><circle cx="3020" cy="1500" r="7.881403904335171" fill="#000000"/><circle cx="3060" cy="1500" r="13.526481478821996" fill="#000000"/><circle cx="3100" cy="1500" r="15.89869899375766" fill="#000000"/><circle cx="3140" cy="1500" r="15.897254794251685" fill="#000000"/><circle cx="3180" cy="1500" r="13.838173660577514" fill="#000000"/><circle cx="3260" cy="1500" r="2.6890605851715677" fill="#000000"/><circle cx="3340" cy="1500" r="1.7099992340686265" fill="#000000"/><circle cx="3700" cy="1500" r="0.9779280120251221" fill="#000000"/><circle cx="3740" cy="1500" r="14.498067818435967" fill="#000000"/><circle cx="3780" cy="1500" r="15.898191564223346" fill="#000000"/><circle cx="3820" cy="1500" r="15.897254794251685" fill="#000000"/><circle cx="3860" cy="1500" r="15.897658703373928" fill="#000000"/><circle cx="3900" cy="1500" r="15.925267238242952" fill="#000000"/><circle cx="3940" cy="1500" r="4.844356761259192" fill="#000000"/><circle cx="3980" cy="1500" r="10.843124090456495" fill="#000000"/><circle cx="4020" cy="1500" r="15.915982414694394" fill="#000000"/><circle cx="4060" cy="1500" r="15.921036364985447" fill="#000000"/><circle cx="4100" cy="1500" r="15.92868849810432" fill="#000000"/><circle cx="4140" cy="1500" r="15.909298167509192" fill="#000000"/><circle cx="4180" cy="1500" r="15.47996042288986" fill="#000000"/><circle cx="4220" cy="1500" r="14.939781637752759" fill="#000000"/><circle cx="4260" cy="1500" r="14.749907250497856" fill="#000000"/><circle cx="4300" cy="1500" r="15.463826497395834" fill="#000000"/><circle cx="4340" cy="1500" r="15.930191339231005" fill="#000000"/><circle cx="4380" cy="1500" r="15.903821758195464" fill="#000000"/><circle cx="4420" cy="1500" r="15.897254794251685" fill="#000000"/><circle cx="4460" cy="1500" r="15.898028504614736" fill="#000000"/><circle cx="4500" cy="1500" r="9.082778033088236" fill="#000000"/><circle cx="620" cy="1540" r="2.14260924096201" fill="#000000"/><circle cx="700" cy="1540" r="0.7717847637101705" fill="#000000"/><circle cx="740" cy="1540" r="0.9808636833639706" fill="#000000"/><circle cx="980" cy="1540" r="3.8166647518382346" fill="#000000"/><circle cx="1020" cy="1540" r="13.714999928193933" fill="#000000"/><circle cx="1060" cy="1540" r="10.504689534505207" fill="#000000"/><circle cx="1100" cy="1540" r="1.3968697342218128" fill="#000000"/><circle cx="1140" cy="1540" r="12.291927562040442" fill="#000000"/><circle cx="1180" cy="1540" r="14.335169773475798" fill="#000000"/><circle cx="1220" cy="1540" r="1.7678282494638475" fill="#000000"/><circle cx="1860" cy="1540" r="2.6366565180759793" fill="#000000"/><circle cx="1900" cy="1540" r="5.02471923828125" fill="#000000"/><circle cx="1940" cy="1540" r="6.413579005821079" fill="#000000"/><circle cx="1980" cy="1540" r="7.1450470569087" fill="#000000"/><circle cx="2020" cy="1540" r="7.480936686197916" fill="#000000"/><circle cx="2060" cy="1540" r="7.9982934091605395" fill="#000000"/><circle cx="2100" cy="1540" r="8.16101193895527" fill="#000000"/><circle cx="2140" cy="1540" r="8.06070006127451" fill="#000000"/><circle cx="2180" cy="1540" r="7.56436097388174" fill="#000000"/><circle cx="2220" cy="1540" r="7.0461042815563735" fill="#000000"/><circle cx="2260" cy="1540" r="7.922268736596201" fill="#000000"/><circle cx="2300" cy="1540" r="9.323281680836397" fill="#000000"/><circle cx="2340" cy="1540" r="10.729469448912376" fill="#000000"/><circle cx="2380" cy="1540" r="12.153424431295957" fill="#000000"/><circle cx="2420" cy="1540" r="13.574216954848346" fill="#000000"/><circle cx="2460" cy="1540" r="14.952829996744793" fill="#000000"/><circle cx="2500" cy="1540" r="15.71047524844899" fill="#000000"/><circle cx="2540" cy="1540" r="15.896640553193935" fill="#000000"/><circle cx="2580" cy="1540" r="15.903521369485293" fill="#000000"/><circle cx="2620" cy="1540" r="15.902449364755668" fill="#000000"/><circle cx="2660" cy="1540" r="15.899376663507198" fill="#000000"/><circle cx="2700" cy="1540" r="15.89967316272212" fill="#000000"/><circle cx="2740" cy="1540" r="15.900706571691178" fill="#000000"/><circle cx="2780" cy="1540" r="15.901222378599877" fill="#000000"/><circle cx="2820" cy="1540" r="15.902132520488665" fill="#000000"/><circle cx="2860" cy="1540" r="15.900617113300397" fill="#000000"/><circle cx="2900" cy="1540" r="15.897603352864582" fill="#000000"/><circle cx="2940" cy="1540" r="15.900536032284007" fill="#000000"/><circle cx="2980" cy="1540" r="15.899665383731618" fill="#000000"/><circle cx="3020" cy="1540" r="15.902410768995098" fill="#000000"/><circle cx="3060" cy="1540" r="15.898263071097581" fill="#000000"/><circle cx="3100" cy="1540" r="15.897254794251685" fill="#000000"/><circle cx="3140" cy="1540" r="15.897254794251685" fill="#000000"/><circle cx="3180" cy="1540" r="15.923192342122396" fill="#000000"/><circle cx="3220" cy="1540" r="5.008846507352942" fill="#000000"/><circle cx="3260" cy="1540" r="0.7853142233455879" fill="#000000"/><circle cx="3300" cy="1540" r="4.904179591758579" fill="#000000"/><circle cx="3340" cy="1540" r="1.3370816099877447" fill="#000000"/><circle cx="3380" cy="1540" r="3.352701822916666" fill="#000000"/><circle cx="3660" cy="1540" r="0.6313177370557588" fill="#000000"/><circle cx="3700" cy="1540" r="11.427217371323529" fill="#000000"/><circle cx="3740" cy="1540" r="15.912819955863204" fill="#000000"/><circle cx="3780" cy="1540" r="15.897254794251685" fill="#000000"/><circle cx="3820" cy="1540" r="15.897254794251685" fill="#000000"/><circle cx="3860" cy="1540" r="15.903049244600185" fill="#000000"/><circle cx="3900" cy="1540" r="12.081523820465687" fill="#000000"/><circle cx="3940" cy="1540" r="2.153058220358457" fill="#000000"/><circle cx="3980" cy="1540" r="15.504352045994178" fill="#000000"/><circle cx="4020" cy="1540" r="15.908544503006281" fill="#000000"/><circle cx="4060" cy="1540" r="15.899306652592678" fill="#000000"/><circle cx="4100" cy="1540" r="15.901858759861367" fill="#000000"/><circle cx="4140" cy="1540" r="15.90059257956112" fill="#000000"/><circle cx="4180" cy="1540" r="15.897254794251685" fill="#000000"/><circle cx="4220" cy="1540" r="15.897254794251685" fill="#000000"/><circle cx="4260" cy="1540" r="15.897254794251685" fill="#000000"/><circle cx="4300" cy="1540" r="15.901283114564183" fill="#000000"/><circle cx="4340" cy="1540" r="15.901513492359832" fill="#000000"/><circle cx="4380" cy="1540" r="15.897254794251685" fill="#000000"/><circle cx="4420" cy="1540" r="15.897254794251685" fill="#000000"/><circle cx="4460" cy="1540" r="15.913611019358916" fill="#000000"/><circle cx="4500" cy="1540" r="5.641708074831495" fill="#000000"/><circle cx="660" cy="1580" r="3.672354903875612" fill="#000000"/><circle cx="700" cy="1580" r="1.0199417413449763" fill="#000000"/><circle cx="740" cy="1580" r="1.2810345818014701" fill="#000000"/><circle cx="780" cy="1580" r="3.817993164062501" fill="#000000"/><circle cx="820" cy="1580" r="5.397983925015319" fill="#000000"/><circle cx="860" cy="1580" r="6.2290433995863985" fill="#000000"/><circle cx="900" cy="1580" r="7.993909648820465" fill="#000000"/><circle cx="940" cy="1580" r="11.560275208716298" fill="#000000"/><circle cx="980" cy="1580" r="11.2872314453125" fill="#000000"/><circle cx="1020" cy="1580" r="4.610410204120711" fill="#000000"/><circle cx="1060" cy="1580" r="2.2951911477481612" fill="#000000"/><circle cx="1100" cy="1580" r="12.758951822916666" fill="#000000"/><circle cx="1140" cy="1580" r="14.05294859643076" fill="#000000"/><circle cx="1180" cy="1580" r="2.674325980392156" fill="#000000"/><circle cx="1460" cy="1580" r="2.2254315544577197" fill="#000000"/><circle cx="1500" cy="1580" r="3.7950977998621327" fill="#000000"/><circle cx="1540" cy="1580" r="4.942573098575367" fill="#000000"/><circle cx="1580" cy="1580" r="5.649881998697916" fill="#000000"/><circle cx="1620" cy="1580" r="6.512448778339461" fill="#000000"/><circle cx="1660" cy="1580" r="7.362889906939339" fill="#000000"/><circle cx="1700" cy="1580" r="8.152414359298408" fill="#000000"/><circle cx="1740" cy="1580" r="9.021993001302084" fill="#000000"/><circle cx="1780" cy="1580" r="9.813326966528798" fill="#000000"/><circle cx="1820" cy="1580" r="10.753194771560967" fill="#000000"/><circle cx="1860" cy="1580" r="11.688524433210784" fill="#000000"/><circle cx="1900" cy="1580" r="12.715163286994486" fill="#000000"/><circle cx="1940" cy="1580" r="13.78747678270527" fill="#000000"/><circle cx="1980" cy="1580" r="14.816598929610906" fill="#000000"/><circle cx="2020" cy="1580" r="15.690765380859375" fill="#000000"/><circle cx="2060" cy="1580" r="15.899535534428615" fill="#000000"/><circle cx="2100" cy="1580" r="15.918267941942402" fill="#000000"/><circle cx="2140" cy="1580" r="15.925388410979625" fill="#000000"/><circle cx="2180" cy="1580" r="15.915390613032322" fill="#000000"/><circle cx="2220" cy="1580" r="15.925704956054688" fill="#000000"/><circle cx="2260" cy="1580" r="15.929538502412683" fill="#000000"/><circle cx="2300" cy="1580" r="15.927682016410078" fill="#000000"/><circle cx="2340" cy="1580" r="15.92920430501302" fill="#000000"/><circle cx="2380" cy="1580" r="15.930200614181217" fill="#000000"/><circle cx="2420" cy="1580" r="15.926282097311582" fill="#000000"/><circle cx="2460" cy="1580" r="15.90800117043888" fill="#000000"/><circle cx="2500" cy="1580" r="15.91554738961014" fill="#000000"/><circle cx="2540" cy="1580" r="15.91265749463848" fill="#000000"/><circle cx="2580" cy="1580" r="15.91765100815717" fill="#000000"/><circle cx="2620" cy="1580" r="15.908756031709558" fill="#000000"/><circle cx="2660" cy="1580" r="15.90722775926777" fill="#000000"/><circle cx="2700" cy="1580" r="15.910832124597887" fill="#000000"/><circle cx="2740" cy="1580" r="15.907172408758425" fill="#000000"/><circle cx="2780" cy="1580" r="15.911946614583332" fill="#000000"/><circle cx="2820" cy="1580" r="15.913242414885875" fill="#000000"/><circle cx="2860" cy="1580" r="15.920806585573683" fill="#000000"/><circle cx="2900" cy="1580" r="15.910890467026654" fill="#000000"/><circle cx="2940" cy="1580" r="15.902280022116269" fill="#000000"/><circle cx="2980" cy="1580" r="15.91140058928845" fill="#000000"/><circle cx="3020" cy="1580" r="15.907324697457108" fill="#000000"/><circle cx="3060" cy="1580" r="15.903452555338543" fill="#000000"/><circle cx="3100" cy="1580" r="15.916164323395375" fill="#000000"/><circle cx="3140" cy="1580" r="15.899037080652574" fill="#000000"/><circle cx="3180" cy="1580" r="15.908615112304688" fill="#000000"/><circle cx="3220" cy="1580" r="14.213645785462623" fill="#000000"/><circle cx="3260" cy="1580" r="1.6141560872395844" fill="#000000"/><circle cx="3300" cy="1580" r="3.620259602864584" fill="#000000"/><circle cx="3340" cy="1580" r="5.301036161534927" fill="#000000"/><circle cx="3380" cy="1580" r="2.534821155024509" fill="#000000"/><circle cx="3420" cy="1580" r="6.236575855928308" fill="#000000"/><circle cx="3460" cy="1580" r="0.9785419538909323" fill="#000000"/><circle cx="3620" cy="1580" r="3.483121984145221" fill="#000000"/><circle cx="3660" cy="1580" r="12.902881697112438" fill="#000000"/><circle cx="3700" cy="1580" r="15.907650218290442" fill="#000000"/><circle cx="3740" cy="1580" r="15.897254794251685" fill="#000000"/><circle cx="3780" cy="1580" r="15.897254794251685" fill="#000000"/><circle cx="3820" cy="1580" r="15.897800520354625" fill="#000000"/><circle cx="3860" cy="1580" r="14.578922645718444" fill="#000000"/><circle cx="3900" cy="1580" r="2.6685527726715685" fill="#000000"/><circle cx="3940" cy="1580" r="12.100125181908702" fill="#000000"/><circle cx="3980" cy="1580" r="15.922860538258272" fill="#000000"/><circle cx="4020" cy="1580" r="15.91303387810202" fill="#000000"/><circle cx="4060" cy="1580" r="15.909860049977024" fill="#000000"/><circle cx="4100" cy="1580" r="15.910874310661764" fill="#000000"/><circle cx="4140" cy="1580" r="15.909916298062194" fill="#000000"/><circle cx="4180" cy="1580" r="15.910425522748161" fill="#000000"/><circle cx="4220" cy="1580" r="15.912494135837928" fill="#000000"/><circle cx="4260" cy="1580" r="15.91007277544807" fill="#000000"/><circle cx="4300" cy="1580" r="15.90482016170726" fill="#000000"/><circle cx="4340" cy="1580" r="15.907724118700216" fill="#000000"/><circle cx="4380" cy="1580" r="15.89866279153263" fill="#000000"/><circle cx="4420" cy="1580" r="15.900312535903032" fill="#000000"/><circle cx="4460" cy="1580" r="15.31803445255055" fill="#000000"/><circle cx="4500" cy="1580" r="1.147118661917892" fill="#000000"/><circle cx="700" cy="1620" r="4.000552906709558" fill="#000000"/><circle cx="740" cy="1620" r="5.712270699295344" fill="#000000"/><circle cx="780" cy="1620" r="1.8167772480085786" fill="#000000"/><circle cx="860" cy="1620" r="0.97998286228554" fill="#000000"/><circle cx="900" cy="1620" r="1.3007525275735299" fill="#000000"/><circle cx="980" cy="1620" r="2.817855535768996" fill="#000000"/><circle cx="1020" cy="1620" r="8.980886421951592" fill="#000000"/><circle cx="1060" cy="1620" r="15.234741809321385" fill="#000000"/><circle cx="1100" cy="1620" r="10.172947902305454" fill="#000000"/><circle cx="1140" cy="1620" r="1.2856433344822293" fill="#000000"/><circle cx="1620" cy="1620" r="0.6239276960784323" fill="#000000"/><circle cx="1660" cy="1620" r="0.8838106043198524" fill="#000000"/><circle cx="1700" cy="1620" r="1.0771951114430145" fill="#000000"/><circle cx="1740" cy="1620" r="1.3331023571537992" fill="#000000"/><circle cx="1780" cy="1620" r="1.633196662454044" fill="#000000"/><circle cx="1820" cy="1620" r="1.917841892616421" fill="#000000"/><circle cx="1860" cy="1620" r="2.168340944776348" fill="#000000"/><circle cx="1900" cy="1620" r="2.422987994025736" fill="#000000"/><circle cx="1940" cy="1620" r="2.6431118834252443" fill="#000000"/><circle cx="1980" cy="1620" r="2.800298952588849" fill="#000000"/><circle cx="2020" cy="1620" r="2.9437028473498783" fill="#000000"/><circle cx="2060" cy="1620" r="3.1520337871476722" fill="#000000"/><circle cx="2100" cy="1620" r="3.322864008884805" fill="#000000"/><circle cx="2140" cy="1620" r="3.489735322840073" fill="#000000"/><circle cx="2180" cy="1620" r="3.677193435968138" fill="#000000"/><circle cx="2220" cy="1620" r="3.826489018458945" fill="#000000"/><circle cx="2260" cy="1620" r="4.011189778645834" fill="#000000"/><circle cx="2300" cy="1620" r="4.171968347886031" fill="#000000"/><circle cx="2340" cy="1620" r="4.3243958716299025" fill="#000000"/><circle cx="2380" cy="1620" r="4.481700224034926" fill="#000000"/><circle cx="2420" cy="1620" r="4.572212967218137" fill="#000000"/><circle cx="2460" cy="1620" r="4.682910395603555" fill="#000000"/><circle cx="2500" cy="1620" r="4.824768066406251" fill="#000000"/><circle cx="2540" cy="1620" r="4.958949668734682" fill="#000000"/><circle cx="2580" cy="1620" r="5.095559512867647" fill="#000000"/><circle cx="2620" cy="1620" r="5.236179725796568" fill="#000000"/><circle cx="2660" cy="1620" r="5.406105191099877" fill="#000000"/><circle cx="2700" cy="1620" r="5.545960669424019" fill="#000000"/><circle cx="2740" cy="1620" r="5.692275103400735" fill="#000000"/><circle cx="2780" cy="1620" r="5.876722148820466" fill="#000000"/><circle cx="2820" cy="1620" r="6.022496840533089" fill="#000000"/><circle cx="2860" cy="1620" r="6.186931535309437" fill="#000000"/><circle cx="2900" cy="1620" r="6.282140395220588" fill="#000000"/><circle cx="2940" cy="1620" r="6.416619992723652" fill="#000000"/><circle cx="2980" cy="1620" r="6.573981789981618" fill="#000000"/><circle cx="3020" cy="1620" r="6.765645345052082" fill="#000000"/><circle cx="3060" cy="1620" r="6.984281652113971" fill="#000000"/><circle cx="3100" cy="1620" r="7.231182023590685" fill="#000000"/><circle cx="3140" cy="1620" r="7.5126953125" fill="#000000"/><circle cx="3180" cy="1620" r="7.807091806449142" fill="#000000"/><circle cx="3220" cy="1620" r="8.076827703737745" fill="#000000"/><circle cx="3260" cy="1620" r="6.317320580575981" fill="#000000"/><circle cx="3340" cy="1620" r="4.685500201056985" fill="#000000"/><circle cx="3380" cy="1620" r="8.450569900811885" fill="#000000"/><circle cx="3420" cy="1620" r="1.909354415594362" fill="#000000"/><circle cx="3460" cy="1620" r="7.011402803308824" fill="#000000"/><circle cx="3500" cy="1620" r="9.416488348268995" fill="#000000"/><circle cx="3540" cy="1620" r="10.79747039196538" fill="#000000"/><circle cx="3580" cy="1620" r="13.293917188457414" fill="#000000"/><circle cx="3620" cy="1620" r="15.669200822418812" fill="#000000"/><circle cx="3660" cy="1620" r="15.564347510244332" fill="#000000"/><circle cx="3700" cy="1620" r="15.897254794251685" fill="#000000"/><circle cx="3740" cy="1620" r="15.897254794251685" fill="#000000"/><circle cx="3780" cy="1620" r="15.904918595856312" fill="#000000"/><circle cx="3820" cy="1620" r="14.267777985217524" fill="#000000"/><circle cx="3860" cy="1620" r="2.985555013020833" fill="#000000"/><circle cx="3900" cy="1620" r="3.8540410060508568" fill="#000000"/><circle cx="3940" cy="1620" r="6.618755265778187" fill="#000000"/><circle cx="3980" cy="1620" r="6.608220119102328" fill="#000000"/><circle cx="4020" cy="1620" r="6.623110303691789" fill="#000000"/><circle cx="4060" cy="1620" r="6.723107431449142" fill="#000000"/><circle cx="4100" cy="1620" r="6.725376503140319" fill="#000000"/><circle cx="4140" cy="1620" r="6.727458879059435" fill="#000000"/><circle cx="4180" cy="1620" r="6.814614688648897" fill="#000000"/><circle cx="4220" cy="1620" r="6.828956753599877" fill="#000000"/><circle cx="4260" cy="1620" r="6.873103123085171" fill="#000000"/><circle cx="4300" cy="1620" r="6.951473460477942" fill="#000000"/><circle cx="4340" cy="1620" r="6.9831040326286775" fill="#000000"/><circle cx="4380" cy="1620" r="7.071368049172795" fill="#000000"/><circle cx="4420" cy="1620" r="7.105606378293505" fill="#000000"/><circle cx="4460" cy="1620" r="4.542558258655025" fill="#000000"/><circle cx="740" cy="1660" r="0.5114219515931362" fill="#000000"/><circle cx="780" cy="1660" r="5.575373630897671" fill="#000000"/><circle cx="820" cy="1660" r="8.696139466528798" fill="#000000"/><circle cx="860" cy="1660" r="10.01155060412837" fill="#000000"/><circle cx="900" cy="1660" r="11.402328192018995" fill="#000000"/><circle cx="940" cy="1660" r="12.981173047832414" fill="#000000"/><circle cx="980" cy="1660" r="12.137216007008274" fill="#000000"/><circle cx="1020" cy="1660" r="8.207689472273286" fill="#000000"/><circle cx="1060" cy="1660" r="2.475424373851103" fill="#000000"/><circle cx="3380" cy="1660" r="2.5205736347273278" fill="#000000"/><circle cx="3420" cy="1660" r="11.058332854626226" fill="#000000"/><circle cx="3460" cy="1660" r="10.601892807904411" fill="#000000"/><circle cx="3500" cy="1660" r="7.664148667279411" fill="#000000"/><circle cx="3540" cy="1660" r="8.111158183976716" fill="#000000"/><circle cx="3580" cy="1660" r="10.828358369715074" fill="#000000"/><circle cx="3620" cy="1660" r="13.63025141697304" fill="#000000"/><circle cx="3660" cy="1660" r="15.857693541283702" fill="#000000"/><circle cx="3700" cy="1660" r="15.906390321020986" fill="#000000"/><circle cx="3740" cy="1660" r="15.79980588426777" fill="#000000"/><circle cx="3780" cy="1660" r="10.339949065563726" fill="#000000"/><circle cx="3820" cy="1660" r="1.4390677657781858" fill="#000000"/><circle cx="3460" cy="1700" r="3.3951727175245106" fill="#000000"/><circle cx="3500" cy="1700" r="8.721241670496322" fill="#000000"/><circle cx="3540" cy="1700" r="12.08677822935815" fill="#000000"/><circle cx="3580" cy="1700" r="13.708773743872548" fill="#000000"/><circle cx="3620" cy="1700" r="13.541935341030944" fill="#000000"/><circle cx="3660" cy="1700" r="11.60482847924326" fill="#000000"/><circle cx="3700" cy="1700" r="7.915540508195466" fill="#000000"/><circle cx="3740" cy="1700" r="2.4104769837622553" fill="#000000"/></svg>