<svg xmlns="http://www.w3.org/2000/svg" width="265" height="216">
  <rect width="100%" height="100%" fill="#FFF"/>
  <circle cx="1700" cy="60" r=".527"/>
  <circle cx="1540" cy="100" r="2.528"/>
  <circle cx="1580" cy="100" r="9.458"/>
  <circle cx="1620" cy="100" r="14.08"/>
  <circle cx="1660" cy="100" r="16.167"/>
  <circle cx="1700" cy="100" r="16.502"/>
  <circle cx="1740" cy="100" r="15.885"/>
  <circle cx="1780" cy="100" r="9.772"/>
  <circle cx="1500" cy="140" r="7.764"/>
  <circle cx="1540" cy="140" r="16.67"/>
  <circle cx="1580" cy="140" r="17.185"/>
  <circle cx="1620" cy="140" r="17.17"/>
  <circle cx="1660" cy="140" r="17.176"/>
  <circle cx="1700" cy="140" r="17.194"/>
  <circle cx="1740" cy="140" r="14.202"/>
  <circle cx="1780" cy="140" r="1.444"/>
  <circle cx="1460" cy="180" r="7.717"/>
  <circle cx="1500" cy="180" r="17.158"/>
  <circle cx="1540" cy="180" r="17.172"/>
  <circle cx="1580" cy="180" r="17.183"/>
  <circle cx="1620" cy="180" r="17.168"/>
  <circle cx="1660" cy="180" r="17.125"/>
  <circle cx="1700" cy="180" r="14.744"/>
  <circle cx="1740" cy="180" r="1.923"/>
  <circle cx="1420" cy="220" r="2.408"/>
  <circle cx="1460" cy="220" r="16.603"/>
  <circle cx="1500" cy="220" r="17.168"/>
  <circle cx="1540" cy="220" r="17.176"/>
  <circle cx="1580" cy="220" r="17.205"/>
  <circle cx="1620" cy="220" r="17.184"/>
  <circle cx="1660" cy="220" r="15.323"/>
  <circle cx="1700" cy="220" r="2.535"/>
  <circle cx="1420" cy="260" r="10.133"/>
  <circle cx="1460" cy="260" r="17.18"/>
  <circle cx="1500" cy="260" r="17.176"/>
  <circle cx="1540" cy="260" r="17.175"/>
  <circle cx="1580" cy="260" r="17.146"/>
  <circle cx="1620" cy="260" r="15.77"/>
  <circle cx="1660" cy="260" r="3.068"/>
  <circle cx="1420" cy="300" r="15.674"/>
  <circle cx="1460" cy="300" r="17.164"/>
  <circle cx="1500" cy="300" r="17.172"/>
  <circle cx="1540" cy="300" r="17.172"/>
  <circle cx="1580" cy="300" r="17.193"/>
  <circle cx="1620" cy="300" r="5.209"/>
  <circle cx="1380" cy="340" r="2.437"/>
  <circle cx="1420" cy="340" r="17.126"/>
  <circle cx="1460" cy="340" r="17.2"/>
  <circle cx="1500" cy="340" r="17.174"/>
  <circle cx="1540" cy="340" r="17.174"/>
  <circle cx="1580" cy="340" r="17.125"/>
  <circle cx="1620" cy="340" r="7.582"/>
  <circle cx="1380" cy="380" r="3.87"/>
  <circle cx="1420" cy="380" r="17.168"/>
  <circle cx="1460" cy="380" r="17.181"/>
  <circle cx="1500" cy="380" r="17.18"/>
  <circle cx="1540" cy="380" r="17.172"/>
  <circle cx="1580" cy="380" r="17.196"/>
  <circle cx="1620" cy="380" r="13.075"/>
  <circle cx="2060" cy="380" r="1.286"/>
  <circle cx="2100" cy="380" r="2.967"/>
  <circle cx="1380" cy="420" r="3.169"/>
  <circle cx="1420" cy="420" r="17.151"/>
  <circle cx="1460" cy="420" r="17.185"/>
  <circle cx="1500" cy="420" r="17.175"/>
  <circle cx="1540" cy="420" r="17.172"/>
  <circle cx="1580" cy="420" r="17.19"/>
  <circle cx="1620" cy="420" r="16.84"/>
  <circle cx="1660" cy="420" r="1.756"/>
  <circle cx="2020" cy="420" r="1.004"/>
  <circle cx="2060" cy="420" r="13.315"/>
  <circle cx="2100" cy="420" r="9.119"/>
  <circle cx="1380" cy="460" r="1.026"/>
  <circle cx="1420" cy="460" r="16.679"/>
  <circle cx="1460" cy="460" r="17.187"/>
  <circle cx="1500" cy="460" r="17.183"/>
  <circle cx="1540" cy="460" r="17.172"/>
  <circle cx="1580" cy="460" r="17.133"/>
  <circle cx="1620" cy="460" r="17.187"/>
  <circle cx="1660" cy="460" r="6.898"/>
  <circle cx="1980" cy="460" r=".826"/>
  <circle cx="2020" cy="460" r="12.853"/>
  <circle cx="2060" cy="460" r="17.195"/>
  <circle cx="2100" cy="460" r="11.856"/>
  <circle cx="1420" cy="500" r="12.968"/>
  <circle cx="1460" cy="500" r="17.214"/>
  <circle cx="1500" cy="500" r="17.182"/>
  <circle cx="1540" cy="500" r="17.174"/>
  <circle cx="1580" cy="500" r="17.199"/>
  <circle cx="1620" cy="500" r="17.187"/>
  <circle cx="1660" cy="500" r="12.54"/>
  <circle cx="1940" cy="500" r=".563"/>
  <circle cx="1980" cy="500" r="12.369"/>
  <circle cx="2020" cy="500" r="17.189"/>
  <circle cx="2060" cy="500" r="17.156"/>
  <circle cx="2100" cy="500" r="12.736"/>
  <circle cx="1420" cy="540" r="7.661"/>
  <circle cx="1460" cy="540" r="17.128"/>
  <circle cx="1500" cy="540" r="17.167"/>
  <circle cx="1540" cy="540" r="17.173"/>
  <circle cx="1580" cy="540" r="17.187"/>
  <circle cx="1620" cy="540" r="17.189"/>
  <circle cx="1660" cy="540" r="17.14"/>
  <circle cx="1700" cy="540" r="15.567"/>
  <circle cx="1740" cy="540" r="10.837"/>
  <circle cx="1780" cy="540" r="5.755"/>
  <circle cx="1820" cy="540" r="1.228"/>
  <circle cx="1940" cy="540" r="11.801"/>
  <circle cx="1980" cy="540" r="17.16"/>
  <circle cx="2020" cy="540" r="17.167"/>
  <circle cx="2060" cy="540" r="17.212"/>
  <circle cx="2100" cy="540" r="11.803"/>
  <circle cx="1380" cy="580" r="3.792"/>
  <circle cx="1420" cy="580" r="16.04"/>
  <circle cx="1460" cy="580" r="17.115"/>
  <circle cx="1500" cy="580" r="17.174"/>
  <circle cx="1540" cy="580" r="17.173"/>
  <circle cx="1580" cy="580" r="17.178"/>
  <circle cx="1620" cy="580" r="17.193"/>
  <circle cx="1660" cy="580" r="17.166"/>
  <circle cx="1700" cy="580" r="17.177"/>
  <circle cx="1740" cy="580" r="17.182"/>
  <circle cx="1780" cy="580" r="17.199"/>
  <circle cx="1820" cy="580" r="16.593"/>
  <circle cx="1860" cy="580" r="12.925"/>
  <circle cx="1900" cy="580" r="12.491"/>
  <circle cx="1940" cy="580" r="17.155"/>
  <circle cx="1980" cy="580" r="17.207"/>
  <circle cx="2020" cy="580" r="17.166"/>
  <circle cx="2060" cy="580" r="17.141"/>
  <circle cx="2100" cy="580" r="8.42"/>
  <circle cx="1340" cy="620" r="3.739"/>
  <circle cx="1380" cy="620" r="16.006"/>
  <circle cx="1420" cy="620" r="17.169"/>
  <circle cx="1460" cy="620" r="17.179"/>
  <circle cx="1500" cy="620" r="17.179"/>
  <circle cx="1540" cy="620" r="17.177"/>
  <circle cx="1580" cy="620" r="17.182"/>
  <circle cx="1620" cy="620" r="17.18"/>
  <circle cx="1660" cy="620" r="17.178"/>
  <circle cx="1700" cy="620" r="17.162"/>
  <circle cx="1740" cy="620" r="17.179"/>
  <circle cx="1780" cy="620" r="17.2"/>
  <circle cx="1820" cy="620" r="17.165"/>
  <circle cx="1860" cy="620" r="17.163"/>
  <circle cx="1900" cy="620" r="17.164"/>
  <circle cx="1940" cy="620" r="17.172"/>
  <circle cx="1980" cy="620" r="17.188"/>
  <circle cx="2020" cy="620" r="17.19"/>
  <circle cx="2060" cy="620" r="16.871"/>
  <circle cx="2100" cy="620" r="2.461"/>
  <circle cx="1300" cy="660" r="3.794"/>
  <circle cx="1340" cy="660" r="16.001"/>
  <circle cx="1380" cy="660" r="17.158"/>
  <circle cx="1420" cy="660" r="17.198"/>
  <circle cx="1460" cy="660" r="17.182"/>
  <circle cx="1500" cy="660" r="17.18"/>
  <circle cx="1540" cy="660" r="17.177"/>
  <circle cx="1580" cy="660" r="17.182"/>
  <circle cx="1620" cy="660" r="17.189"/>
  <circle cx="1660" cy="660" r="17.173"/>
  <circle cx="1700" cy="660" r="17.178"/>
  <circle cx="1740" cy="660" r="17.172"/>
  <circle cx="1780" cy="660" r="17.178"/>
  <circle cx="1820" cy="660" r="17.177"/>
  <circle cx="1860" cy="660" r="17.182"/>
  <circle cx="1900" cy="660" r="17.18"/>
  <circle cx="1940" cy="660" r="17.192"/>
  <circle cx="1980" cy="660" r="17.179"/>
  <circle cx="2020" cy="660" r="17.145"/>
  <circle cx="2060" cy="660" r="9.237"/>
  <circle cx="1260" cy="700" r="3.744"/>
  <circle cx="1300" cy="700" r="16.079"/>
  <circle cx="1340" cy="700" r="17.193"/>
  <circle cx="1380" cy="700" r="17.169"/>
  <circle cx="1420" cy="700" r="17.169"/>
  <circle cx="1460" cy="700" r="17.178"/>
  <circle cx="1500" cy="700" r="17.179"/>
  <circle cx="1540" cy="700" r="17.182"/>
  <circle cx="1580" cy="700" r="17.165"/>
  <circle cx="1620" cy="700" r="17.207"/>
  <circle cx="1660" cy="700" r="17.184"/>
  <circle cx="1700" cy="700" r="17.161"/>
  <circle cx="1740" cy="700" r="17.172"/>
  <circle cx="1780" cy="700" r="17.178"/>
  <circle cx="1820" cy="700" r="17.18"/>
  <circle cx="1860" cy="700" r="17.183"/>
  <circle cx="1900" cy="700" r="17.181"/>
  <circle cx="1940" cy="700" r="17.165"/>
  <circle cx="1980" cy="700" r="17.214"/>
  <circle cx="2020" cy="700" r="10.526"/>
  <circle cx="1220" cy="740" r="3.792"/>
  <circle cx="1260" cy="740" r="15.984"/>
  <circle cx="1300" cy="740" r="17.179"/>
  <circle cx="1340" cy="740" r="17.166"/>
  <circle cx="1380" cy="740" r="17.165"/>
  <circle cx="1420" cy="740" r="17.186"/>
  <circle cx="1460" cy="740" r="17.179"/>
  <circle cx="1500" cy="740" r="17.182"/>
  <circle cx="1540" cy="740" r="17.191"/>
  <circle cx="1580" cy="740" r="17.232"/>
  <circle cx="1620" cy="740" r="16.722"/>
  <circle cx="1660" cy="740" r="16.079"/>
  <circle cx="1700" cy="740" r="17.221"/>
  <circle cx="1740" cy="740" r="17.185"/>
  <circle cx="1780" cy="740" r="17.169"/>
  <circle cx="1820" cy="740" r="17.191"/>
  <circle cx="1860" cy="740" r="17.181"/>
  <circle cx="1900" cy="740" r="17.135"/>
  <circle cx="1940" cy="740" r="14.743"/>
  <circle cx="1980" cy="740" r="6.205"/>
  <circle cx="1180" cy="780" r="3.769"/>
  <circle cx="1220" cy="780" r="15.962"/>
  <circle cx="1260" cy="780" r="17.164"/>
  <circle cx="1300" cy="780" r="17.169"/>
  <circle cx="1340" cy="780" r="17.185"/>
  <circle cx="1380" cy="780" r="17.18"/>
  <circle cx="1420" cy="780" r="17.177"/>
  <circle cx="1460" cy="780" r="17.188"/>
  <circle cx="1500" cy="780" r="17.178"/>
  <circle cx="1540" cy="780" r="17.234"/>
  <circle cx="1580" cy="780" r="16.743"/>
  <circle cx="1620" cy="780" r="5.545"/>
  <circle cx="1660" cy="780" r=".831"/>
  <circle cx="1700" cy="780" r="5.118"/>
  <circle cx="1740" cy="780" r="8.471"/>
  <circle cx="1780" cy="780" r="10.064"/>
  <circle cx="1820" cy="780" r="9.938"/>
  <circle cx="1860" cy="780" r="7.962"/>
  <circle cx="1900" cy="780" r="4.09"/>
  <circle cx="1140" cy="820" r="3.731"/>
  <circle cx="1180" cy="820" r="15.953"/>
  <circle cx="1220" cy="820" r="17.187"/>
  <circle cx="1260" cy="820" r="17.18"/>
  <circle cx="1300" cy="820" r="17.188"/>
  <circle cx="1340" cy="820" r="17.182"/>
  <circle cx="1380" cy="820" r="17.18"/>
  <circle cx="1420" cy="820" r="17.171"/>
  <circle cx="1460" cy="820" r="17.179"/>
  <circle cx="1500" cy="820" r="17.171"/>
  <circle cx="1540" cy="820" r="16.684"/>
  <circle cx="1580" cy="820" r="5.575"/>
  <circle cx="1100" cy="860" r="3.775"/>
  <circle cx="1140" cy="860" r="16.018"/>
  <circle cx="1180" cy="860" r="17.193"/>
  <circle cx="1220" cy="860" r="17.18"/>
  <circle cx="1260" cy="860" r="17.187"/>
  <circle cx="1300" cy="860" r="17.176"/>
  <circle cx="1340" cy="860" r="17.179"/>
  <circle cx="1380" cy="860" r="17.172"/>
  <circle cx="1420" cy="860" r="17.171"/>
  <circle cx="1460" cy="860" r="17.126"/>
  <circle cx="1500" cy="860" r="16.679"/>
  <circle cx="1540" cy="860" r="5.399"/>
  <circle cx="1060" cy="900" r="3.723"/>
  <circle cx="1100" cy="900" r="16.09"/>
  <circle cx="1140" cy="900" r="17.198"/>
  <circle cx="1180" cy="900" r="17.17"/>
  <circle cx="1220" cy="900" r="17.181"/>
  <circle cx="1260" cy="900" r="17.183"/>
  <circle cx="1300" cy="900" r="17.18"/>
  <circle cx="1340" cy="900" r="17.167"/>
  <circle cx="1380" cy="900" r="17.2"/>
  <circle cx="1420" cy="900" r="17.205"/>
  <circle cx="1460" cy="900" r="16.726"/>
  <circle cx="1500" cy="900" r="5.378"/>
  <circle cx="1020" cy="940" r="3.727"/>
  <circle cx="1060" cy="940" r="16.014"/>
  <circle cx="1100" cy="940" r="17.173"/>
  <circle cx="1140" cy="940" r="17.18"/>
  <circle cx="1180" cy="940" r="17.166"/>
  <circle cx="1220" cy="940" r="17.178"/>
  <circle cx="1260" cy="940" r="17.173"/>
  <circle cx="1300" cy="940" r="17.178"/>
  <circle cx="1340" cy="940" r="17.198"/>
  <circle cx="1380" cy="940" r="17.222"/>
  <circle cx="1420" cy="940" r="16.619"/>
  <circle cx="1460" cy="940" r="5.285"/>
  <circle cx="980" cy="980" r="3.792"/>
  <circle cx="1020" cy="980" r="15.982"/>
  <circle cx="1060" cy="980" r="17.189"/>
  <circle cx="1100" cy="980" r="17.175"/>
  <circle cx="1140" cy="980" r="17.17"/>
  <circle cx="1180" cy="980" r="17.175"/>
  <circle cx="1220" cy="980" r="17.175"/>
  <circle cx="1260" cy="980" r="17.188"/>
  <circle cx="1300" cy="980" r="17.186"/>
  <circle cx="1340" cy="980" r="17.217"/>
  <circle cx="1380" cy="980" r="16.664"/>
  <circle cx="1420" cy="980" r="5.261"/>
  <circle cx="940" cy="1020" r="3.724"/>
  <circle cx="980" cy="1020" r="15.975"/>
  <circle cx="1020" cy="1020" r="17.193"/>
  <circle cx="1060" cy="1020" r="17.168"/>
  <circle cx="1100" cy="1020" r="17.18"/>
  <circle cx="1140" cy="1020" r="17.176"/>
  <circle cx="1180" cy="1020" r="17.178"/>
  <circle cx="1220" cy="1020" r="17.176"/>
  <circle cx="1260" cy="1020" r="17.204"/>
  <circle cx="1300" cy="1020" r="17.157"/>
  <circle cx="1340" cy="1020" r="16.569"/>
  <circle cx="1380" cy="1020" r="5.242"/>
  <circle cx="900" cy="1060" r="3.725"/>
  <circle cx="940" cy="1060" r="16.077"/>
  <circle cx="980" cy="1060" r="17.191"/>
  <circle cx="1020" cy="1060" r="17.164"/>
  <circle cx="1060" cy="1060" r="17.167"/>
  <circle cx="1100" cy="1060" r="17.179"/>
  <circle cx="1140" cy="1060" r="17.181"/>
  <circle cx="1180" cy="1060" r="17.179"/>
  <circle cx="1220" cy="1060" r="17.185"/>
  <circle cx="1260" cy="1060" r="17.183"/>
  <circle cx="1300" cy="1060" r="16.536"/>
  <circle cx="1340" cy="1060" r="5.186"/>
  <circle cx="860" cy="1100" r="3.761"/>
  <circle cx="900" cy="1100" r="16"/>
  <circle cx="940" cy="1100" r="17.188"/>
  <circle cx="980" cy="1100" r="17.179"/>
  <circle cx="1020" cy="1100" r="17.168"/>
  <circle cx="1060" cy="1100" r="17.169"/>
  <circle cx="1100" cy="1100" r="17.174"/>
  <circle cx="1140" cy="1100" r="17.18"/>
  <circle cx="1180" cy="1100" r="17.192"/>
  <circle cx="1220" cy="1100" r="17.205"/>
  <circle cx="1260" cy="1100" r="16.512"/>
  <circle cx="1300" cy="1100" r="5.066"/>
  <circle cx="820" cy="1140" r="3.702"/>
  <circle cx="860" cy="1140" r="16.04"/>
  <circle cx="900" cy="1140" r="17.17"/>
  <circle cx="940" cy="1140" r="17.165"/>
  <circle cx="980" cy="1140" r="17.178"/>
  <circle cx="1020" cy="1140" r="17.178"/>
  <circle cx="1060" cy="1140" r="17.173"/>
  <circle cx="1100" cy="1140" r="17.185"/>
  <circle cx="1140" cy="1140" r="17.191"/>
  <circle cx="1180" cy="1140" r="17.215"/>
  <circle cx="1220" cy="1140" r="16.486"/>
  <circle cx="1260" cy="1140" r="5.031"/>
  <circle cx="780" cy="1180" r="3.679"/>
  <circle cx="820" cy="1180" r="15.997"/>
  <circle cx="860" cy="1180" r="17.218"/>
  <circle cx="900" cy="1180" r="17.181"/>
  <circle cx="940" cy="1180" r="17.169"/>
  <circle cx="980" cy="1180" r="17.176"/>
  <circle cx="1020" cy="1180" r="17.18"/>
  <circle cx="1060" cy="1180" r="17.19"/>
  <circle cx="1100" cy="1180" r="17.166"/>
  <circle cx="1140" cy="1180" r="17.143"/>
  <circle cx="1180" cy="1180" r="16.447"/>
  <circle cx="1220" cy="1180" r="4.967"/>
  <circle cx="740" cy="1220" r="3.662"/>
  <circle cx="780" cy="1220" r="15.968"/>
  <circle cx="820" cy="1220" r="17.179"/>
  <circle cx="860" cy="1220" r="17.195"/>
  <circle cx="900" cy="1220" r="17.167"/>
  <circle cx="940" cy="1220" r="17.171"/>
  <circle cx="980" cy="1220" r="17.171"/>
  <circle cx="1020" cy="1220" r="17.184"/>
  <circle cx="1060" cy="1220" r="17.175"/>
  <circle cx="1100" cy="1220" r="17.185"/>
  <circle cx="1140" cy="1220" r="16.412"/>
  <circle cx="1180" cy="1220" r="4.721"/>
  <circle cx="700" cy="1260" r="3.68"/>
  <circle cx="740" cy="1260" r="15.957"/>
  <circle cx="780" cy="1260" r="17.199"/>
  <circle cx="820" cy="1260" r="17.178"/>
  <circle cx="860" cy="1260" r="17.177"/>
  <circle cx="900" cy="1260" r="17.179"/>
  <circle cx="940" cy="1260" r="17.182"/>
  <circle cx="980" cy="1260" r="17.182"/>
  <circle cx="1020" cy="1260" r="17.183"/>
  <circle cx="1060" cy="1260" r="17.15"/>
  <circle cx="1100" cy="1260" r="16.333"/>
  <circle cx="1140" cy="1260" r="4.746"/>
  <circle cx="660" cy="1300" r="3.646"/>
  <circle cx="700" cy="1300" r="16.023"/>
  <circle cx="740" cy="1300" r="17.21"/>
  <circle cx="780" cy="1300" r="17.173"/>
  <circle cx="820" cy="1300" r="17.165"/>
  <circle cx="860" cy="1300" r="17.182"/>
  <circle cx="900" cy="1300" r="17.178"/>
  <circle cx="940" cy="1300" r="17.168"/>
  <circle cx="980" cy="1300" r="17.177"/>
  <circle cx="1020" cy="1300" r="17.178"/>
  <circle cx="1060" cy="1300" r="16.303"/>
  <circle cx="1100" cy="1300" r="4.604"/>
  <circle cx="620" cy="1340" r="3.704"/>
  <circle cx="660" cy="1340" r="15.961"/>
  <circle cx="700" cy="1340" r="17.188"/>
  <circle cx="740" cy="1340" r="17.168"/>
  <circle cx="780" cy="1340" r="17.165"/>
  <circle cx="820" cy="1340" r="17.186"/>
  <circle cx="860" cy="1340" r="17.172"/>
  <circle cx="900" cy="1340" r="17.178"/>
  <circle cx="940" cy="1340" r="17.178"/>
  <circle cx="980" cy="1340" r="17.167"/>
  <circle cx="1020" cy="1340" r="16.241"/>
  <circle cx="1060" cy="1340" r="4.535"/>
  <circle cx="340" cy="1380" r="2.097"/>
  <circle cx="380" cy="1380" r="3.156"/>
  <circle cx="420" cy="1380" r="2.75"/>
  <circle cx="460" cy="1380" r="1.031"/>
  <circle cx="580" cy="1380" r="3.715"/>
  <circle cx="620" cy="1380" r="15.983"/>
  <circle cx="660" cy="1380" r="17.187"/>
  <circle cx="700" cy="1380" r="17.185"/>
  <circle cx="740" cy="1380" r="17.186"/>
  <circle cx="780" cy="1380" r="17.18"/>
  <circle cx="820" cy="1380" r="17.177"/>
  <circle cx="860" cy="1380" r="17.186"/>
  <circle cx="900" cy="1380" r="17.188"/>
  <circle cx="940" cy="1380" r="17.196"/>
  <circle cx="980" cy="1380" r="16.237"/>
  <circle cx="1020" cy="1380" r="4.515"/>
  <circle cx="220" cy="1420" r="4.331"/>
  <circle cx="260" cy="1420" r="11.507"/>
  <circle cx="300" cy="1420" r="15.971"/>
  <circle cx="340" cy="1420" r="17.092"/>
  <circle cx="380" cy="1420" r="17.194"/>
  <circle cx="420" cy="1420" r="17.215"/>
  <circle cx="460" cy="1420" r="16.751"/>
  <circle cx="500" cy="1420" r="13.545"/>
  <circle cx="540" cy="1420" r="8.317"/>
  <circle cx="580" cy="1420" r="15.993"/>
  <circle cx="620" cy="1420" r="17.18"/>
  <circle cx="660" cy="1420" r="17.185"/>
  <circle cx="700" cy="1420" r="17.181"/>
  <circle cx="740" cy="1420" r="17.182"/>
  <circle cx="780" cy="1420" r="17.181"/>
  <circle cx="820" cy="1420" r="17.169"/>
  <circle cx="860" cy="1420" r="17.178"/>
  <circle cx="900" cy="1420" r="17.205"/>
  <circle cx="940" cy="1420" r="16.252"/>
  <circle cx="980" cy="1420" r="4.362"/>
  <circle cx="140" cy="1460" r=".619"/>
  <circle cx="180" cy="1460" r="10.735"/>
  <circle cx="220" cy="1460" r="17.076"/>
  <circle cx="260" cy="1460" r="17.199"/>
  <circle cx="300" cy="1460" r="17.187"/>
  <circle cx="340" cy="1460" r="17.166"/>
  <circle cx="380" cy="1460" r="17.174"/>
  <circle cx="420" cy="1460" r="17.174"/>
  <circle cx="460" cy="1460" r="17.173"/>
  <circle cx="500" cy="1460" r="17.182"/>
  <circle cx="540" cy="1460" r="17.191"/>
  <circle cx="580" cy="1460" r="17.172"/>
  <circle cx="620" cy="1460" r="17.179"/>
  <circle cx="660" cy="1460" r="17.184"/>
  <circle cx="700" cy="1460" r="17.169"/>
  <circle cx="740" cy="1460" r="17.18"/>
  <circle cx="780" cy="1460" r="17.17"/>
  <circle cx="820" cy="1460" r="17.194"/>
  <circle cx="860" cy="1460" r="17.2"/>
  <circle cx="900" cy="1460" r="16.212"/>
  <circle cx="940" cy="1460" r="4.297"/>
  <circle cx="140" cy="1500" r="11.247"/>
  <circle cx="180" cy="1500" r="17.218"/>
  <circle cx="220" cy="1500" r="17.171"/>
  <circle cx="260" cy="1500" r="17.175"/>
  <circle cx="300" cy="1500" r="17.181"/>
  <circle cx="340" cy="1500" r="17.182"/>
  <circle cx="380" cy="1500" r="17.177"/>
  <circle cx="420" cy="1500" r="17.176"/>
  <circle cx="460" cy="1500" r="17.177"/>
  <circle cx="500" cy="1500" r="17.183"/>
  <circle cx="540" cy="1500" r="17.17"/>
  <circle cx="580" cy="1500" r="17.191"/>
  <circle cx="620" cy="1500" r="17.18"/>
  <circle cx="660" cy="1500" r="17.182"/>
  <circle cx="700" cy="1500" r="17.184"/>
  <circle cx="740" cy="1500" r="17.18"/>
  <circle cx="780" cy="1500" r="17.186"/>
  <circle cx="820" cy="1500" r="17.171"/>
  <circle cx="860" cy="1500" r="16.135"/>
  <circle cx="900" cy="1500" r="4.169"/>
  <circle cx="100" cy="1540" r="5.132"/>
  <circle cx="140" cy="1540" r="17.159"/>
  <circle cx="180" cy="1540" r="17.17"/>
  <circle cx="220" cy="1540" r="17.171"/>
  <circle cx="260" cy="1540" r="17.203"/>
  <circle cx="300" cy="1540" r="17.173"/>
  <circle cx="340" cy="1540" r="17.165"/>
  <circle cx="380" cy="1540" r="17.18"/>
  <circle cx="420" cy="1540" r="17.178"/>
  <circle cx="460" cy="1540" r="17.179"/>
  <circle cx="500" cy="1540" r="17.18"/>
  <circle cx="540" cy="1540" r="17.18"/>
  <circle cx="580" cy="1540" r="17.18"/>
  <circle cx="620" cy="1540" r="17.18"/>
  <circle cx="660" cy="1540" r="17.18"/>
  <circle cx="700" cy="1540" r="17.18"/>
  <circle cx="740" cy="1540" r="17.155"/>
  <circle cx="780" cy="1540" r="17.193"/>
  <circle cx="820" cy="1540" r="16.22"/>
  <circle cx="860" cy="1540" r="4.174"/>
  <circle cx="100" cy="1580" r="12.171"/>
  <circle cx="140" cy="1580" r="17.191"/>
  <circle cx="180" cy="1580" r="17.178"/>
  <circle cx="220" cy="1580" r="17.172"/>
  <circle cx="260" cy="1580" r="17.192"/>
  <circle cx="300" cy="1580" r="17.212"/>
  <circle cx="340" cy="1580" r="17.168"/>
  <circle cx="380" cy="1580" r="17.193"/>
  <circle cx="420" cy="1580" r="17.166"/>
  <circle cx="460" cy="1580" r="17.186"/>
  <circle cx="500" cy="1580" r="17.187"/>
  <circle cx="540" cy="1580" r="17.187"/>
  <circle cx="580" cy="1580" r="17.18"/>
  <circle cx="620" cy="1580" r="17.176"/>
  <circle cx="660" cy="1580" r="17.18"/>
  <circle cx="700" cy="1580" r="17.18"/>
  <circle cx="740" cy="1580" r="17.174"/>
  <circle cx="780" cy="1580" r="16.151"/>
  <circle cx="820" cy="1580" r="4.078"/>
  <circle cx="100" cy="1620" r="16.236"/>
  <circle cx="140" cy="1620" r="17.197"/>
  <circle cx="180" cy="1620" r="17.178"/>
  <circle cx="220" cy="1620" r="17.184"/>
  <circle cx="260" cy="1620" r="14.721"/>
  <circle cx="300" cy="1620" r="4.767"/>
  <circle cx="340" cy="1620" r="8.212"/>
  <circle cx="380" cy="1620" r="13.19"/>
  <circle cx="420" cy="1620" r="16.834"/>
  <circle cx="460" cy="1620" r="17.21"/>
  <circle cx="500" cy="1620" r="17.227"/>
  <circle cx="540" cy="1620" r="17.174"/>
  <circle cx="580" cy="1620" r="17.174"/>
  <circle cx="620" cy="1620" r="17.178"/>
  <circle cx="660" cy="1620" r="17.18"/>
  <circle cx="700" cy="1620" r="17.177"/>
  <circle cx="740" cy="1620" r="16.842"/>
  <circle cx="780" cy="1620" r="4.131"/>
  <circle cx="60" cy="1660" r="1.891"/>
  <circle cx="100" cy="1660" r="17.117"/>
  <circle cx="140" cy="1660" r="17.143"/>
  <circle cx="180" cy="1660" r="17.178"/>
  <circle cx="220" cy="1660" r="14.37"/>
  <circle cx="260" cy="1660" r="1.956"/>
  <circle cx="420" cy="1660" r="1.449"/>
  <circle cx="460" cy="1660" r="5.983"/>
  <circle cx="500" cy="1660" r="11.644"/>
  <circle cx="540" cy="1660" r="17.223"/>
  <circle cx="580" cy="1660" r="17.172"/>
  <circle cx="620" cy="1660" r="17.181"/>
  <circle cx="660" cy="1660" r="17.18"/>
  <circle cx="700" cy="1660" r="17.179"/>
  <circle cx="740" cy="1660" r="17.094"/>
  <circle cx="780" cy="1660" r="3.822"/>
  <circle cx="60" cy="1700" r="2.416"/>
  <circle cx="100" cy="1700" r="17.165"/>
  <circle cx="140" cy="1700" r="17.187"/>
  <circle cx="180" cy="1700" r="13.822"/>
  <circle cx="220" cy="1700" r="1.627"/>
  <circle cx="540" cy="1700" r="15.782"/>
  <circle cx="580" cy="1700" r="17.188"/>
  <circle cx="620" cy="1700" r="17.183"/>
  <circle cx="660" cy="1700" r="17.18"/>
  <circle cx="700" cy="1700" r="17.174"/>
  <circle cx="740" cy="1700" r="17.2"/>
  <circle cx="780" cy="1700" r="8.741"/>
  <circle cx="60" cy="1740" r="1.749"/>
  <circle cx="100" cy="1740" r="17.002"/>
  <circle cx="140" cy="1740" r="13.309"/>
  <circle cx="180" cy="1740" r="1.253"/>
  <circle cx="540" cy="1740" r="10.854"/>
  <circle cx="580" cy="1740" r="17.181"/>
  <circle cx="620" cy="1740" r="17.181"/>
  <circle cx="660" cy="1740" r="17.18"/>
  <circle cx="700" cy="1740" r="17.172"/>
  <circle cx="740" cy="1740" r="17.163"/>
  <circle cx="780" cy="1740" r="11.936"/>
  <circle cx="100" cy="1780" r="11.733"/>
  <circle cx="140" cy="1780" r=".99"/>
  <circle cx="540" cy="1780" r="5.44"/>
  <circle cx="580" cy="1780" r="17.257"/>
  <circle cx="620" cy="1780" r="17.148"/>
  <circle cx="660" cy="1780" r="17.18"/>
  <circle cx="700" cy="1780" r="17.172"/>
  <circle cx="740" cy="1780" r="17.201"/>
  <circle cx="780" cy="1780" r="13.313"/>
  <circle cx="540" cy="1820" r=".824"/>
  <circle cx="580" cy="1820" r="16.265"/>
  <circle cx="620" cy="1820" r="17.183"/>
  <circle cx="660" cy="1820" r="17.176"/>
  <circle cx="700" cy="1820" r="17.179"/>
  <circle cx="740" cy="1820" r="17.168"/>
  <circle cx="780" cy="1820" r="12.926"/>
  <circle cx="580" cy="1860" r="11.631"/>
  <circle cx="620" cy="1860" r="17.123"/>
  <circle cx="660" cy="1860" r="17.175"/>
  <circle cx="700" cy="1860" r="17.179"/>
  <circle cx="740" cy="1860" r="17.187"/>
  <circle cx="780" cy="1860" r="10.619"/>
  <circle cx="540" cy="1900" r="1.754"/>
  <circle cx="580" cy="1900" r="14.381"/>
  <circle cx="620" cy="1900" r="17.166"/>
  <circle cx="660" cy="1900" r="17.171"/>
  <circle cx="700" cy="1900" r="17.18"/>
  <circle cx="740" cy="1900" r="17.128"/>
  <circle cx="780" cy="1900" r="5.844"/>
  <circle cx="500" cy="1940" r="2.011"/>
  <circle cx="540" cy="1940" r="14.487"/>
  <circle cx="580" cy="1940" r="17.195"/>
  <circle cx="620" cy="1940" r="17.179"/>
  <circle cx="660" cy="1940" r="17.187"/>
  <circle cx="700" cy="1940" r="17.19"/>
  <circle cx="740" cy="1940" r="15.005"/>
  <circle cx="780" cy="1940" r=".618"/>
  <circle cx="460" cy="1980" r="2.18"/>
  <circle cx="500" cy="1980" r="14.753"/>
  <circle cx="540" cy="1980" r="17.209"/>
  <circle cx="580" cy="1980" r="17.172"/>
  <circle cx="620" cy="1980" r="17.181"/>
  <circle cx="660" cy="1980" r="17.187"/>
  <circle cx="700" cy="1980" r="16.973"/>
  <circle cx="740" cy="1980" r="5.349"/>
  <circle cx="420" cy="2020" r="2.432"/>
  <circle cx="460" cy="2020" r="14.894"/>
  <circle cx="500" cy="2020" r="17.213"/>
  <circle cx="540" cy="2020" r="17.175"/>
  <circle cx="580" cy="2020" r="17.24"/>
  <circle cx="620" cy="2020" r="17.185"/>
  <circle cx="660" cy="2020" r="16.923"/>
  <circle cx="700" cy="2020" r="7.833"/>
  <circle cx="380" cy="2060" r="2.729"/>
  <circle cx="420" cy="2060" r="15.139"/>
  <circle cx="460" cy="2060" r="17.194"/>
  <circle cx="500" cy="2060" r="17.193"/>
  <circle cx="540" cy="2060" r="17.241"/>
  <circle cx="580" cy="2060" r="16.64"/>
  <circle cx="620" cy="2060" r="12.305"/>
  <circle cx="660" cy="2060" r="4.035"/>
  <circle cx="380" cy="2100" r="1.435"/>
  <circle cx="420" cy="2100" r="4.308"/>
  <circle cx="460" cy="2100" r="5.443"/>
  <circle cx="500" cy="2100" r="5.354"/>
  <circle cx="540" cy="2100" r="3.953"/>
  <circle cx="580" cy="2100" r="1.122"/>
</svg>
