<svg xmlns="http://www.w3.org/2000/svg" width="2782" height="2160" viewBox="0 0 2782 2160"><rect width="100%" height="100%" fill="#FFFFFF"/><circle cx="2460" cy="20" r="1.2315685795802689" fill="#000000"/><circle cx="2500" cy="20" r="2.8203926834405646" fill="#000000"/><circle cx="2540" cy="20" r="4.2366668102788" fill="#000000"/><circle cx="2580" cy="20" r="5.203333237591911" fill="#000000"/><circle cx="2620" cy="20" r="6.503332998238358" fill="#000000"/><circle cx="2660" cy="20" r="6.766862457873774" fill="#000000"/><circle cx="2700" cy="20" r="6.675881778492647" fill="#000000"/><circle cx="2740" cy="20" r="4.7327450022977935" fill="#000000"/><circle cx="2260" cy="60" r="3.7147061217064947" fill="#000000"/><circle cx="2300" cy="60" r="10.599215638403798" fill="#000000"/><circle cx="2340" cy="60" r="13.37431365368413" fill="#000000"/><circle cx="2380" cy="60" r="15.54725497376685" fill="#000000"/><circle cx="2420" cy="60" r="17.580000035903034" fill="#000000"/><circle cx="2460" cy="60" r="18.43137254901961" fill="#000000"/><circle cx="2500" cy="60" r="18.43137254901961" fill="#000000"/><circle cx="2540" cy="60" r="18.43137254901961" fill="#000000"/><circle cx="2580" cy="60" r="18.43137254901961" fill="#000000"/><circle cx="2620" cy="60" r="18.43137254901961" fill="#000000"/><circle cx="2660" cy="60" r="18.43137254901961" fill="#000000"/><circle cx="2700" cy="60" r="18.29450973809934" fill="#000000"/><circle cx="2740" cy="60" r="8.989412195542279" fill="#000000"/><circle cx="2020" cy="100" r="2.312549067478553" fill="#000000"/><circle cx="2060" cy="100" r="7.288039263556985" fill="#000000"/><circle cx="2100" cy="100" r="11.90980380189185" fill="#000000"/><circle cx="2140" cy="100" r="15.67725477031633" fill="#000000"/><circle cx="2180" cy="100" r="4.778039072074143" fill="#000000"/><circle cx="2220" cy="100" r="11.371764538334865" fill="#000000"/><circle cx="2260" cy="100" r="18.308431438371247" fill="#000000"/><circle cx="2300" cy="100" r="18.43137254901961" fill="#000000"/><circle cx="2340" cy="100" r="18.43137254901961" fill="#000000"/><circle cx="2380" cy="100" r="18.43137254901961" fill="#000000"/><circle cx="2420" cy="100" r="18.43137254901961" fill="#000000"/><circle cx="2460" cy="100" r="18.43137254901961" fill="#000000"/><circle cx="2500" cy="100" r="18.43137254901961" fill="#000000"/><circle cx="2540" cy="100" r="18.43137254901961" fill="#000000"/><circle cx="2580" cy="100" r="18.43137254901961" fill="#000000"/><circle cx="2620" cy="100" r="18.43137254901961" fill="#000000"/><circle cx="2660" cy="100" r="15.479999916226257" fill="#000000"/><circle cx="2700" cy="100" r="4.761176614200369" fill="#000000"/><circle cx="1860" cy="140" r="3.4231375899969363" fill="#000000"/><circle cx="1900" cy="140" r="8.983137542126226" fill="#000000"/><circle cx="1940" cy="140" r="4.580391678155637" fill="#000000"/><circle cx="1980" cy="140" r="12.209019679649202" fill="#000000"/><circle cx="2020" cy="140" r="18.404117659026504" fill="#000000"/><circle cx="2060" cy="140" r="18.43137254901961" fill="#000000"/><circle cx="2100" cy="140" r="18.43137254901961" fill="#000000"/><circle cx="2140" cy="140" r="15.950784421434589" fill="#000000"/><circle cx="2180" cy="140" r="17.38568623860677" fill="#000000"/><circle cx="2220" cy="140" r="18.43137254901961" fill="#000000"/><circle cx="2260" cy="140" r="18.43137254901961" fill="#000000"/><circle cx="2300" cy="140" r="18.43137254901961" fill="#000000"/><circle cx="2340" cy="140" r="18.43137254901961" fill="#000000"/><circle cx="2380" cy="140" r="18.43137254901961" fill="#000000"/><circle cx="2420" cy="140" r="18.43137254901961" fill="#000000"/><circle cx="2460" cy="140" r="18.43137254901961" fill="#000000"/><circle cx="2500" cy="140" r="18.22823528214997" fill="#000000"/><circle cx="2540" cy="140" r="16.069411633061428" fill="#000000"/><circle cx="2580" cy="140" r="15.143725526099113" fill="#000000"/><circle cx="2620" cy="140" r="8.424510282628678" fill="#000000"/><circle cx="2660" cy="140" r="0.5984317555147056" fill="#000000"/><circle cx="1740" cy="180" r="2.604117599188114" fill="#000000"/><circle cx="1780" cy="180" r="9.436274509803921" fill="#000000"/><circle cx="1820" cy="180" r="15.702156814874385" fill="#000000"/><circle cx="1860" cy="180" r="18.42901955398859" fill="#000000"/><circle cx="1900" cy="180" r="17.19137244131051" fill="#000000"/><circle cx="1940" cy="180" r="15.651960784313726" fill="#000000"/><circle cx="1980" cy="180" r="18.43137254901961" fill="#000000"/><circle cx="2020" cy="180" r="18.43137254901961" fill="#000000"/><circle cx="2060" cy="180" r="18.43137254901961" fill="#000000"/><circle cx="2100" cy="180" r="18.43137254901961" fill="#000000"/><circle cx="2140" cy="180" r="18.43137254901961" fill="#000000"/><circle cx="2180" cy="180" r="18.43137254901961" fill="#000000"/><circle cx="2220" cy="180" r="18.43137254901961" fill="#000000"/><circle cx="2260" cy="180" r="18.43137254901961" fill="#000000"/><circle cx="2300" cy="180" r="18.43137254901961" fill="#000000"/><circle cx="2340" cy="180" r="18.43137254901961" fill="#000000"/><circle cx="2380" cy="180" r="18.43137254901961" fill="#000000"/><circle cx="2420" cy="180" r="18.43137254901961" fill="#000000"/><circle cx="2460" cy="180" r="18.43137254901961" fill="#000000"/><circle cx="2500" cy="180" r="18.38470593620749" fill="#000000"/><circle cx="2540" cy="180" r="16.608431348613664" fill="#000000"/><circle cx="2580" cy="180" r="6.041372261795344" fill="#000000"/><circle cx="1660" cy="220" r="4.626667097503063" fill="#000000"/><circle cx="1700" cy="220" r="13.81137264476103" fill="#000000"/><circle cx="1740" cy="220" r="18.33352945365158" fill="#000000"/><circle cx="1780" cy="220" r="18.43137254901961" fill="#000000"/><circle cx="1820" cy="220" r="18.43137254901961" fill="#000000"/><circle cx="1860" cy="220" r="18.43137254901961" fill="#000000"/><circle cx="1900" cy="220" r="18.43137254901961" fill="#000000"/><circle cx="1940" cy="220" r="18.43137254901961" fill="#000000"/><circle cx="1980" cy="220" r="18.43137254901961" fill="#000000"/><circle cx="2020" cy="220" r="18.43137254901961" fill="#000000"/><circle cx="2060" cy="220" r="18.43137254901961" fill="#000000"/><circle cx="2100" cy="220" r="18.43137254901961" fill="#000000"/><circle cx="2140" cy="220" r="18.43137254901961" fill="#000000"/><circle cx="2180" cy="220" r="18.43137254901961" fill="#000000"/><circle cx="2220" cy="220" r="18.43137254901961" fill="#000000"/><circle cx="2260" cy="220" r="18.43137254901961" fill="#000000"/><circle cx="2300" cy="220" r="18.43137254901961" fill="#000000"/><circle cx="2340" cy="220" r="18.43137254901961" fill="#000000"/><circle cx="2380" cy="220" r="18.43137254901961" fill="#000000"/><circle cx="2420" cy="220" r="18.43137254901961" fill="#000000"/><circle cx="2460" cy="220" r="18.43137254901961" fill="#000000"/><circle cx="2500" cy="220" r="11.907450956456799" fill="#000000"/><circle cx="2540" cy="220" r="1.2313723096660545" fill="#000000"/><circle cx="1460" cy="260" r="1.2635294596354174" fill="#000000"/><circle cx="1500" cy="260" r="8.029019224877452" fill="#000000"/><circle cx="1540" cy="260" r="13.254117479511336" fill="#000000"/><circle cx="1620" cy="260" r="8.317451028262868" fill="#000000"/><circle cx="1660" cy="260" r="18.306470534380747" fill="#000000"/><circle cx="1700" cy="260" r="18.43137254901961" fill="#000000"/><circle cx="1740" cy="260" r="18.43137254901961" fill="#000000"/><circle cx="1780" cy="260" r="18.43137254901961" fill="#000000"/><circle cx="1820" cy="260" r="18.43137254901961" fill="#000000"/><circle cx="1860" cy="260" r="18.43137254901961" fill="#000000"/><circle cx="1900" cy="260" r="18.43137254901961" fill="#000000"/><circle cx="1940" cy="260" r="18.43137254901961" fill="#000000"/><circle cx="1980" cy="260" r="18.43137254901961" fill="#000000"/><circle cx="2020" cy="260" r="18.43137254901961" fill="#000000"/><circle cx="2060" cy="260" r="18.43137254901961" fill="#000000"/><circle cx="2100" cy="260" r="18.43137254901961" fill="#000000"/><circle cx="2140" cy="260" r="18.43137254901961" fill="#000000"/><circle cx="2180" cy="260" r="18.43137254901961" fill="#000000"/><circle cx="2220" cy="260" r="18.43137254901961" fill="#000000"/><circle cx="2260" cy="260" r="18.43137254901961" fill="#000000"/><circle cx="2300" cy="260" r="18.43137254901961" fill="#000000"/><circle cx="2340" cy="260" r="18.380980398140704" fill="#000000"/><circle cx="2380" cy="260" r="16.705294141582414" fill="#000000"/><circle cx="2420" cy="260" r="12.694510067210478" fill="#000000"/><circle cx="2460" cy="260" r="5.040980918734681" fill="#000000"/><circle cx="1380" cy="300" r="1.5362740310968137" fill="#000000"/><circle cx="1420" cy="300" r="10.376470827588848" fill="#000000"/><circle cx="1460" cy="300" r="17.613137189079733" fill="#000000"/><circle cx="1500" cy="300" r="18.43137254901961" fill="#000000"/><circle cx="1540" cy="300" r="12.707843256931678" fill="#000000"/><circle cx="1580" cy="300" r="7.786078957950369" fill="#000000"/><circle cx="1620" cy="300" r="18.394313737457875" fill="#000000"/><circle cx="1660" cy="300" r="18.43137254901961" fill="#000000"/><circle cx="1700" cy="300" r="18.43137254901961" fill="#000000"/><circle cx="1740" cy="300" r="18.43137254901961" fill="#000000"/><circle cx="1780" cy="300" r="18.43137254901961" fill="#000000"/><circle cx="1820" cy="300" r="18.43137254901961" fill="#000000"/><circle cx="1860" cy="300" r="18.43137254901961" fill="#000000"/><circle cx="1900" cy="300" r="18.43137254901961" fill="#000000"/><circle cx="1940" cy="300" r="18.43137254901961" fill="#000000"/><circle cx="1980" cy="300" r="18.43137254901961" fill="#000000"/><circle cx="2020" cy="300" r="18.43137254901961" fill="#000000"/><circle cx="2060" cy="300" r="18.43137254901961" fill="#000000"/><circle cx="2100" cy="300" r="18.43137254901961" fill="#000000"/><circle cx="2140" cy="300" r="18.43137254901961" fill="#000000"/><circle cx="2180" cy="300" r="18.43137254901961" fill="#000000"/><circle cx="2220" cy="300" r="16.97078420601639" fill="#000000"/><circle cx="2260" cy="300" r="15.597058763691024" fill="#000000"/><circle cx="2300" cy="300" r="14.86901975145527" fill="#000000"/><circle cx="2340" cy="300" r="14.551764993106618" fill="#000000"/><circle cx="2380" cy="300" r="11.38392130533854" fill="#000000"/><circle cx="2420" cy="300" r="1.4315688189338238" fill="#000000"/><circle cx="1300" cy="340" r="1.663529938342525" fill="#000000"/><circle cx="1340" cy="340" r="5.778039072074142" fill="#000000"/><circle cx="1380" cy="340" r="15.4484312768076" fill="#000000"/><circle cx="1420" cy="340" r="18.43137254901961" fill="#000000"/><circle cx="1460" cy="340" r="18.43137254901961" fill="#000000"/><circle cx="1500" cy="340" r="18.398235246246937" fill="#000000"/><circle cx="1540" cy="340" r="10.169607723460476" fill="#000000"/><circle cx="1580" cy="340" r="18.254509869743796" fill="#000000"/><circle cx="1620" cy="340" r="18.43137254901961" fill="#000000"/><circle cx="1660" cy="340" r="18.43137254901961" fill="#000000"/><circle cx="1700" cy="340" r="18.43137254901961" fill="#000000"/><circle cx="1740" cy="340" r="18.43137254901961" fill="#000000"/><circle cx="1780" cy="340" r="18.43137254901961" fill="#000000"/><circle cx="1820" cy="340" r="18.43137254901961" fill="#000000"/><circle cx="1860" cy="340" r="18.43137254901961" fill="#000000"/><circle cx="1900" cy="340" r="18.43137254901961" fill="#000000"/><circle cx="1940" cy="340" r="18.43137254901961" fill="#000000"/><circle cx="1980" cy="340" r="18.43137254901961" fill="#000000"/><circle cx="2020" cy="340" r="18.43137254901961" fill="#000000"/><circle cx="2060" cy="340" r="18.43137254901961" fill="#000000"/><circle cx="2100" cy="340" r="18.43137254901961" fill="#000000"/><circle cx="2140" cy="340" r="18.43137254901961" fill="#000000"/><circle cx="2180" cy="340" r="18.43137254901961" fill="#000000"/><circle cx="2220" cy="340" r="18.43137254901961" fill="#000000"/><circle cx="2260" cy="340" r="18.43137254901961" fill="#000000"/><circle cx="2300" cy="340" r="18.1190196018593" fill="#000000"/><circle cx="2340" cy="340" r="9.397058823529411" fill="#000000"/><circle cx="1260" cy="380" r="7.0992156384038" fill="#000000"/><circle cx="1300" cy="380" r="17.139607747395832" fill="#000000"/><circle cx="1340" cy="380" r="13.274901745366115" fill="#000000"/><circle cx="1380" cy="380" r="18.43137254901961" fill="#000000"/><circle cx="1420" cy="380" r="18.43137254901961" fill="#000000"/><circle cx="1460" cy="380" r="18.43137254901961" fill="#000000"/><circle cx="1500" cy="380" r="17.369215722177543" fill="#000000"/><circle cx="1540" cy="380" r="17.63803923363779" fill="#000000"/><circle cx="1580" cy="380" r="18.43137254901961" fill="#000000"/><circle cx="1620" cy="380" r="18.43137254901961" fill="#000000"/><circle cx="1660" cy="380" r="18.4305882173426" fill="#000000"/><circle cx="1700" cy="380" r="14.655686322380514" fill="#000000"/><circle cx="1740" cy="380" r="10.715686274509803" fill="#000000"/><circle cx="1780" cy="380" r="18.43137254901961" fill="#000000"/><circle cx="1820" cy="380" r="18.43137254901961" fill="#000000"/><circle cx="1860" cy="380" r="18.43137254901961" fill="#000000"/><circle cx="1900" cy="380" r="18.43137254901961" fill="#000000"/><circle cx="1940" cy="380" r="18.43137254901961" fill="#000000"/><circle cx="1980" cy="380" r="18.43137254901961" fill="#000000"/><circle cx="2020" cy="380" r="18.43137254901961" fill="#000000"/><circle cx="2060" cy="380" r="18.43137254901961" fill="#000000"/><circle cx="2100" cy="380" r="18.43137254901961" fill="#000000"/><circle cx="2140" cy="380" r="18.43137254901961" fill="#000000"/><circle cx="2180" cy="380" r="18.43137254901961" fill="#000000"/><circle cx="2220" cy="380" r="18.43137254901961" fill="#000000"/><circle cx="2260" cy="380" r="15.215686274509803" fill="#000000"/><circle cx="2300" cy="380" r="3.6974511240042895" fill="#000000"/><circle cx="1180" cy="420" r="2.564314299938726" fill="#000000"/><circle cx="1220" cy="420" r="13.58431348613664" fill="#000000"/><circle cx="1260" cy="420" r="18.43137254901961" fill="#000000"/><circle cx="1300" cy="420" r="18.28607835956648" fill="#000000"/><circle cx="1340" cy="420" r="17.933725544050628" fill="#000000"/><circle cx="1380" cy="420" r="18.43137254901961" fill="#000000"/><circle cx="1420" cy="420" r="18.43137254901961" fill="#000000"/><circle cx="1460" cy="420" r="18.43137254901961" fill="#000000"/><circle cx="1500" cy="420" r="18.43137254901961" fill="#000000"/><circle cx="1540" cy="420" r="18.43137254901961" fill="#000000"/><circle cx="1580" cy="420" r="18.43137254901961" fill="#000000"/><circle cx="1620" cy="420" r="15.328235401826745" fill="#000000"/><circle cx="1660" cy="420" r="7.976862888710173" fill="#000000"/><circle cx="1700" cy="420" r="11.193921855851716" fill="#000000"/><circle cx="1740" cy="420" r="17.992941164502913" fill="#000000"/><circle cx="1780" cy="420" r="18.43137254901961" fill="#000000"/><circle cx="1820" cy="420" r="18.43137254901961" fill="#000000"/><circle cx="1860" cy="420" r="18.43137254901961" fill="#000000"/><circle cx="1900" cy="420" r="18.43137254901961" fill="#000000"/><circle cx="1940" cy="420" r="18.43137254901961" fill="#000000"/><circle cx="1980" cy="420" r="18.43137254901961" fill="#000000"/><circle cx="2020" cy="420" r="18.43137254901961" fill="#000000"/><circle cx="2060" cy="420" r="18.43137254901961" fill="#000000"/><circle cx="2100" cy="420" r="18.43137254901961" fill="#000000"/><circle cx="2140" cy="420" r="18.43137254901961" fill="#000000"/><circle cx="2180" cy="420" r="18.00764704685585" fill="#000000"/><circle cx="2220" cy="420" r="9.57294060202206" fill="#000000"/><circle cx="1140" cy="460" r="8.124314252068014" fill="#000000"/><circle cx="1180" cy="460" r="17.65509811102175" fill="#000000"/><circle cx="1220" cy="460" r="18.43137254901961" fill="#000000"/><circle cx="1260" cy="460" r="18.43137254901961" fill="#000000"/><circle cx="1300" cy="460" r="18.43137254901961" fill="#000000"/><circle cx="1340" cy="460" r="18.43137254901961" fill="#000000"/><circle cx="1380" cy="460" r="18.43137254901961" fill="#000000"/><circle cx="1420" cy="460" r="18.43137254901961" fill="#000000"/><circle cx="1460" cy="460" r="18.43137254901961" fill="#000000"/><circle cx="1500" cy="460" r="18.43137254901961" fill="#000000"/><circle cx="1540" cy="460" r="16.97352929208793" fill="#000000"/><circle cx="1580" cy="460" r="8.931961358762255" fill="#000000"/><circle cx="1620" cy="460" r="10.687842873965995" fill="#000000"/><circle cx="1660" cy="460" r="17.930784337660846" fill="#000000"/><circle cx="1700" cy="460" r="18.43137254901961" fill="#000000"/><circle cx="1740" cy="460" r="18.43137254901961" fill="#000000"/><circle cx="1780" cy="460" r="18.43137254901961" fill="#000000"/><circle cx="1820" cy="460" r="18.43137254901961" fill="#000000"/><circle cx="1860" cy="460" r="18.43137254901961" fill="#000000"/><circle cx="1900" cy="460" r="18.43137254901961" fill="#000000"/><circle cx="1940" cy="460" r="18.43137254901961" fill="#000000"/><circle cx="1980" cy="460" r="18.361764646043966" fill="#000000"/><circle cx="2020" cy="460" r="17.336862601485908" fill="#000000"/><circle cx="2060" cy="460" r="15.640980440027574" fill="#000000"/><circle cx="2100" cy="460" r="13.564313701554841" fill="#000000"/><circle cx="2140" cy="460" r="10.246666403377757" fill="#000000"/><circle cx="2180" cy="460" r="2.817254758348653" fill="#000000"/><circle cx="1060" cy="500" r="1.0547054515165444" fill="#000000"/><circle cx="1100" cy="500" r="13.873529172411152" fill="#000000"/><circle cx="1140" cy="500" r="18.43137254901961" fill="#000000"/><circle cx="1180" cy="500" r="18.43137254901961" fill="#000000"/><circle cx="1220" cy="500" r="18.43137254901961" fill="#000000"/><circle cx="1260" cy="500" r="18.43137254901961" fill="#000000"/><circle cx="1300" cy="500" r="18.43137254901961" fill="#000000"/><circle cx="1340" cy="500" r="18.43137254901961" fill="#000000"/><circle cx="1380" cy="500" r="18.43137254901961" fill="#000000"/><circle cx="1420" cy="500" r="18.43137254901961" fill="#000000"/><circle cx="1460" cy="500" r="18.335686328364353" fill="#000000"/><circle cx="1500" cy="500" r="11.540195839077818" fill="#000000"/><circle cx="1540" cy="500" r="9.320196413526347" fill="#000000"/><circle cx="1580" cy="500" r="17.219019571940105" fill="#000000"/><circle cx="1620" cy="500" r="18.43137254901961" fill="#000000"/><circle cx="1660" cy="500" r="18.43137254901961" fill="#000000"/><circle cx="1700" cy="500" r="18.43137254901961" fill="#000000"/><circle cx="1740" cy="500" r="18.43137254901961" fill="#000000"/><circle cx="1780" cy="500" r="18.43137254901961" fill="#000000"/><circle cx="1820" cy="500" r="18.43137254901961" fill="#000000"/><circle cx="1860" cy="500" r="18.43137254901961" fill="#000000"/><circle cx="1900" cy="500" r="18.43137254901961" fill="#000000"/><circle cx="1940" cy="500" r="18.43137254901961" fill="#000000"/><circle cx="1980" cy="500" r="17.298431396484375" fill="#000000"/><circle cx="2020" cy="500" r="16.684117635091145" fill="#000000"/><circle cx="2060" cy="500" r="11.298431396484375" fill="#000000"/><circle cx="2100" cy="500" r="1.20941162109375" fill="#000000"/><circle cx="980" cy="540" r="0.6917652803308827" fill="#000000"/><circle cx="1020" cy="540" r="6.515294692095588" fill="#000000"/><circle cx="1060" cy="540" r="10.976274677351409" fill="#000000"/><circle cx="1100" cy="540" r="18.43137254901961" fill="#000000"/><circle cx="1140" cy="540" r="18.43137254901961" fill="#000000"/><circle cx="1180" cy="540" r="18.43137254901961" fill="#000000"/><circle cx="1220" cy="540" r="18.43137254901961" fill="#000000"/><circle cx="1260" cy="540" r="18.43137254901961" fill="#000000"/><circle cx="1300" cy="540" r="18.43137254901961" fill="#000000"/><circle cx="1340" cy="540" r="18.43137254901961" fill="#000000"/><circle cx="1380" cy="540" r="18.43137254901961" fill="#000000"/><circle cx="1420" cy="540" r="16.080980487898284" fill="#000000"/><circle cx="1460" cy="540" r="8.302941415824144" fill="#000000"/><circle cx="1500" cy="540" r="14.810980104932598" fill="#000000"/><circle cx="1540" cy="540" r="18.43137254901961" fill="#000000"/><circle cx="1580" cy="540" r="18.43137254901961" fill="#000000"/><circle cx="1620" cy="540" r="18.43137254901961" fill="#000000"/><circle cx="1660" cy="540" r="18.43137254901961" fill="#000000"/><circle cx="1700" cy="540" r="18.43137254901961" fill="#000000"/><circle cx="1740" cy="540" r="18.43137254901961" fill="#000000"/><circle cx="1780" cy="540" r="18.43137254901961" fill="#000000"/><circle cx="1820" cy="540" r="18.43137254901961" fill="#000000"/><circle cx="1860" cy="540" r="18.43137254901961" fill="#000000"/><circle cx="1900" cy="540" r="18.43137254901961" fill="#000000"/><circle cx="1940" cy="540" r="18.43137254901961" fill="#000000"/><circle cx="1980" cy="540" r="16.843725466260725" fill="#000000"/><circle cx="2020" cy="540" r="6.2254901960784315" fill="#000000"/><circle cx="940" cy="580" r="4.493921616498162" fill="#000000"/><circle cx="980" cy="580" r="15.745098039215685" fill="#000000"/><circle cx="1020" cy="580" r="9.977254830154719" fill="#000000"/><circle cx="1060" cy="580" r="18.04117644066904" fill="#000000"/><circle cx="1100" cy="580" r="18.43137254901961" fill="#000000"/><circle cx="1140" cy="580" r="18.43137254901961" fill="#000000"/><circle cx="1180" cy="580" r="18.43137254901961" fill="#000000"/><circle cx="1220" cy="580" r="18.43137254901961" fill="#000000"/><circle cx="1260" cy="580" r="18.43137254901961" fill="#000000"/><circle cx="1300" cy="580" r="18.43137254901961" fill="#000000"/><circle cx="1340" cy="580" r="18.408431408452053" fill="#000000"/><circle cx="1380" cy="580" r="11.740196078431373" fill="#000000"/><circle cx="1420" cy="580" r="9.865097943474264" fill="#000000"/><circle cx="1460" cy="580" r="18.019411722819008" fill="#000000"/><circle cx="1500" cy="580" r="18.43137254901961" fill="#000000"/><circle cx="1540" cy="580" r="18.43137254901961" fill="#000000"/><circle cx="1580" cy="580" r="18.43137254901961" fill="#000000"/><circle cx="1620" cy="580" r="18.43137254901961" fill="#000000"/><circle cx="1660" cy="580" r="18.43137254901961" fill="#000000"/><circle cx="1700" cy="580" r="18.43137254901961" fill="#000000"/><circle cx="1740" cy="580" r="18.43137254901961" fill="#000000"/><circle cx="1780" cy="580" r="18.43137254901961" fill="#000000"/><circle cx="1820" cy="580" r="18.43137254901961" fill="#000000"/><circle cx="1860" cy="580" r="18.43137254901961" fill="#000000"/><circle cx="1900" cy="580" r="18.417843089384192" fill="#000000"/><circle cx="1940" cy="580" r="12.157254686542585" fill="#000000"/><circle cx="1980" cy="580" r="1.4799996170343133" fill="#000000"/><circle cx="860" cy="620" r="0.7933337641697302" fill="#000000"/><circle cx="900" cy="620" r="10.581372429342832" fill="#000000"/><circle cx="940" cy="620" r="18.280980428059898" fill="#000000"/><circle cx="980" cy="620" r="17.99764700496898" fill="#000000"/><circle cx="1020" cy="620" r="12.419803993374694" fill="#000000"/><circle cx="1060" cy="620" r="18.43137254901961" fill="#000000"/><circle cx="1100" cy="620" r="18.43137254901961" fill="#000000"/><circle cx="1140" cy="620" r="18.43137254901961" fill="#000000"/><circle cx="1180" cy="620" r="18.43137254901961" fill="#000000"/><circle cx="1220" cy="620" r="18.43137254901961" fill="#000000"/><circle cx="1260" cy="620" r="18.43137254901961" fill="#000000"/><circle cx="1300" cy="620" r="17.430588366938572" fill="#000000"/><circle cx="1340" cy="620" r="8.407255284926471" fill="#000000"/><circle cx="1380" cy="620" r="13.900196150237438" fill="#000000"/><circle cx="1420" cy="620" r="18.43137254901961" fill="#000000"/><circle cx="1460" cy="620" r="18.43137254901961" fill="#000000"/><circle cx="1500" cy="620" r="18.43137254901961" fill="#000000"/><circle cx="1540" cy="620" r="18.43137254901961" fill="#000000"/><circle cx="1580" cy="620" r="18.43137254901961" fill="#000000"/><circle cx="1620" cy="620" r="18.43137254901961" fill="#000000"/><circle cx="1660" cy="620" r="18.43137254901961" fill="#000000"/><circle cx="1700" cy="620" r="18.43137254901961" fill="#000000"/><circle cx="1740" cy="620" r="18.43137254901961" fill="#000000"/><circle cx="1780" cy="620" r="18.43137254901961" fill="#000000"/><circle cx="1820" cy="620" r="18.43137254901961" fill="#000000"/><circle cx="1860" cy="620" r="16.602352965111827" fill="#000000"/><circle cx="1900" cy="620" r="5.74215638403799" fill="#000000"/><circle cx="820" cy="660" r="4.110392252604167" fill="#000000"/><circle cx="860" cy="660" r="15.769607843137255" fill="#000000"/><circle cx="900" cy="660" r="18.43137254901961" fill="#000000"/><circle cx="940" cy="660" r="18.43137254901961" fill="#000000"/><circle cx="980" cy="660" r="14.859804041245406" fill="#000000"/><circle cx="1020" cy="660" r="18.04725497376685" fill="#000000"/><circle cx="1060" cy="660" r="18.43137254901961" fill="#000000"/><circle cx="1100" cy="660" r="18.43137254901961" fill="#000000"/><circle cx="1140" cy="660" r="18.43137254901961" fill="#000000"/><circle cx="1180" cy="660" r="18.43137254901961" fill="#000000"/><circle cx="1220" cy="660" r="18.43137254901961" fill="#000000"/><circle cx="1260" cy="660" r="15.068627450980392" fill="#000000"/><circle cx="1300" cy="660" r="7.704313390395221" fill="#000000"/><circle cx="1340" cy="660" r="16.896666582892923" fill="#000000"/><circle cx="1380" cy="660" r="18.43137254901961" fill="#000000"/><circle cx="1420" cy="660" r="18.43137254901961" fill="#000000"/><circle cx="1460" cy="660" r="18.43137254901961" fill="#000000"/><circle cx="1500" cy="660" r="18.43137254901961" fill="#000000"/><circle cx="1540" cy="660" r="18.43137254901961" fill="#000000"/><circle cx="1580" cy="660" r="18.43137254901961" fill="#000000"/><circle cx="1620" cy="660" r="18.43137254901961" fill="#000000"/><circle cx="1660" cy="660" r="18.43137254901961" fill="#000000"/><circle cx="1700" cy="660" r="18.43137254901961" fill="#000000"/><circle cx="1740" cy="660" r="18.43137254901961" fill="#000000"/><circle cx="1780" cy="660" r="18.324901954800474" fill="#000000"/><circle cx="1820" cy="660" r="10.996666403377757" fill="#000000"/><circle cx="1860" cy="660" r="1.1905876608455879" fill="#000000"/><circle cx="780" cy="700" r="8.750196269914216" fill="#000000"/><circle cx="820" cy="700" r="18.124509774002377" fill="#000000"/><circle cx="860" cy="700" r="18.43137254901961" fill="#000000"/><circle cx="900" cy="700" r="18.43137254901961" fill="#000000"/><circle cx="940" cy="700" r="18.43137254901961" fill="#000000"/><circle cx="980" cy="700" r="15.464902092428767" fill="#000000"/><circle cx="1020" cy="700" r="18.43137254901961" fill="#000000"/><circle cx="1060" cy="700" r="18.43137254901961" fill="#000000"/><circle cx="1100" cy="700" r="18.43137254901961" fill="#000000"/><circle cx="1140" cy="700" r="18.43137254901961" fill="#000000"/><circle cx="1180" cy="700" r="18.428039251589308" fill="#000000"/><circle cx="1220" cy="700" r="11.831568699257048" fill="#000000"/><circle cx="1260" cy="700" r="9.34686279296875" fill="#000000"/><circle cx="1300" cy="700" r="18.20784310733571" fill="#000000"/><circle cx="1340" cy="700" r="18.43137254901961" fill="#000000"/><circle cx="1380" cy="700" r="18.43137254901961" fill="#000000"/><circle cx="1420" cy="700" r="18.43137254901961" fill="#000000"/><circle cx="1460" cy="700" r="18.43137254901961" fill="#000000"/><circle cx="1500" cy="700" r="18.43137254901961" fill="#000000"/><circle cx="1540" cy="700" r="18.43137254901961" fill="#000000"/><circle cx="1580" cy="700" r="17.042548983704812" fill="#000000"/><circle cx="1620" cy="700" r="15.013333189721202" fill="#000000"/><circle cx="1660" cy="700" r="13.610588522518384" fill="#000000"/><circle cx="1700" cy="700" r="11.210588043811276" fill="#000000"/><circle cx="1740" cy="700" r="5.90176451439951" fill="#000000"/><circle cx="1780" cy="700" r="3.0670584884344354" fill="#000000"/><circle cx="740" cy="740" r="8.092157102098652" fill="#000000"/><circle cx="780" cy="740" r="18.43137254901961" fill="#000000"/><circle cx="820" cy="740" r="18.43137254901961" fill="#000000"/><circle cx="860" cy="740" r="18.43137254901961" fill="#000000"/><circle cx="900" cy="740" r="18.43137254901961" fill="#000000"/><circle cx="940" cy="740" r="18.268235300101484" fill="#000000"/><circle cx="980" cy="740" r="17.31568639418658" fill="#000000"/><circle cx="1020" cy="740" r="18.43137254901961" fill="#000000"/><circle cx="1060" cy="740" r="18.43137254901961" fill="#000000"/><circle cx="1100" cy="740" r="18.43137254901961" fill="#000000"/><circle cx="1140" cy="740" r="18.123921562643613" fill="#000000"/><circle cx="1180" cy="740" r="8.757451076133577" fill="#000000"/><circle cx="1220" cy="740" r="12.070784026501226" fill="#000000"/><circle cx="1260" cy="740" r="18.43137254901961" fill="#000000"/><circle cx="1300" cy="740" r="18.43137254901961" fill="#000000"/><circle cx="1340" cy="740" r="18.43137254901961" fill="#000000"/><circle cx="1380" cy="740" r="18.43137254901961" fill="#000000"/><circle cx="1420" cy="740" r="18.43137254901961" fill="#000000"/><circle cx="1460" cy="740" r="18.43137254901961" fill="#000000"/><circle cx="1500" cy="740" r="18.43137254901961" fill="#000000"/><circle cx="1540" cy="740" r="18.43137254901961" fill="#000000"/><circle cx="1580" cy="740" r="18.43137254901961" fill="#000000"/><circle cx="1620" cy="740" r="18.43137254901961" fill="#000000"/><circle cx="1660" cy="740" r="18.43137254901961" fill="#000000"/><circle cx="1700" cy="740" r="14.950784122242649" fill="#000000"/><circle cx="1740" cy="740" r="1.4645098517922794" fill="#000000"/><circle cx="620" cy="780" r="1.5247060738357843" fill="#000000"/><circle cx="660" cy="780" r="9.177254471124387" fill="#000000"/><circle cx="700" cy="780" r="0.7776465322457105" fill="#000000"/><circle cx="740" cy="780" r="15.488823385799632" fill="#000000"/><circle cx="780" cy="780" r="18.43137254901961" fill="#000000"/><circle cx="820" cy="780" r="18.43137254901961" fill="#000000"/><circle cx="860" cy="780" r="18.43137254901961" fill="#000000"/><circle cx="900" cy="780" r="18.43137254901961" fill="#000000"/><circle cx="940" cy="780" r="18.43137254901961" fill="#000000"/><circle cx="980" cy="780" r="18.43137254901961" fill="#000000"/><circle cx="1020" cy="780" r="18.43137254901961" fill="#000000"/><circle cx="1060" cy="780" r="18.43137254901961" fill="#000000"/><circle cx="1100" cy="780" r="17.093529495538448" fill="#000000"/><circle cx="1140" cy="780" r="6.679215973498776" fill="#000000"/><circle cx="1180" cy="780" r="14.550784241919423" fill="#000000"/><circle cx="1220" cy="780" r="18.43137254901961" fill="#000000"/><circle cx="1260" cy="780" r="18.43137254901961" fill="#000000"/><circle cx="1300" cy="780" r="18.43137254901961" fill="#000000"/><circle cx="1340" cy="780" r="18.43137254901961" fill="#000000"/><circle cx="1380" cy="780" r="18.43137254901961" fill="#000000"/><circle cx="1420" cy="780" r="18.43137254901961" fill="#000000"/><circle cx="1460" cy="780" r="18.43137254901961" fill="#000000"/><circle cx="1500" cy="780" r="18.43137254901961" fill="#000000"/><circle cx="1540" cy="780" r="18.43137254901961" fill="#000000"/><circle cx="1580" cy="780" r="18.43137254901961" fill="#000000"/><circle cx="1620" cy="780" r="18.43137254901961" fill="#000000"/><circle cx="1660" cy="780" r="13.355490291819851" fill="#000000"/><circle cx="1700" cy="780" r="1.0784313725490202" fill="#000000"/><circle cx="580" cy="820" r="3.96352969898897" fill="#000000"/><circle cx="620" cy="820" r="16.3392157461129" fill="#000000"/><circle cx="660" cy="820" r="18.43137254901961" fill="#000000"/><circle cx="700" cy="820" r="6.759020038679536" fill="#000000"/><circle cx="740" cy="820" r="18.324509863759957" fill="#000000"/><circle cx="780" cy="820" r="18.43137254901961" fill="#000000"/><circle cx="820" cy="820" r="18.43137254901961" fill="#000000"/><circle cx="860" cy="820" r="18.43137254901961" fill="#000000"/><circle cx="900" cy="820" r="18.43137254901961" fill="#000000"/><circle cx="940" cy="820" r="18.43137254901961" fill="#000000"/><circle cx="980" cy="820" r="18.43137254901961" fill="#000000"/><circle cx="1020" cy="820" r="18.43137254901961" fill="#000000"/><circle cx="1060" cy="820" r="15.407254985734529" fill="#000000"/><circle cx="1100" cy="820" r="5.886862362132352" fill="#000000"/><circle cx="1140" cy="820" r="16.26764693914675" fill="#000000"/><circle cx="1180" cy="820" r="18.43137254901961" fill="#000000"/><circle cx="1220" cy="820" r="18.43137254901961" fill="#000000"/><circle cx="1260" cy="820" r="18.43137254901961" fill="#000000"/><circle cx="1300" cy="820" r="18.43137254901961" fill="#000000"/><circle cx="1340" cy="820" r="18.43137254901961" fill="#000000"/><circle cx="1380" cy="820" r="18.43137254901961" fill="#000000"/><circle cx="1420" cy="820" r="18.43137254901961" fill="#000000"/><circle cx="1460" cy="820" r="18.43137254901961" fill="#000000"/><circle cx="1500" cy="820" r="18.43137254901961" fill="#000000"/><circle cx="1540" cy="820" r="18.43137254901961" fill="#000000"/><circle cx="1580" cy="820" r="18.37666664871515" fill="#000000"/><circle cx="1620" cy="820" r="10.199215758080577" fill="#000000"/><circle cx="540" cy="860" r="4.770000382965687" fill="#000000"/><circle cx="580" cy="860" r="17.71921569225835" fill="#000000"/><circle cx="620" cy="860" r="18.43137254901961" fill="#000000"/><circle cx="660" cy="860" r="18.43137254901961" fill="#000000"/><circle cx="700" cy="860" r="11.430196126302084" fill="#000000"/><circle cx="740" cy="860" r="18.43137254901961" fill="#000000"/><circle cx="780" cy="860" r="18.43137254901961" fill="#000000"/><circle cx="820" cy="860" r="18.43137254901961" fill="#000000"/><circle cx="860" cy="860" r="18.43137254901961" fill="#000000"/><circle cx="900" cy="860" r="18.43137254901961" fill="#000000"/><circle cx="940" cy="860" r="18.43137254901961" fill="#000000"/><circle cx="980" cy="860" r="18.43137254901961" fill="#000000"/><circle cx="1020" cy="860" r="13.179215973498774" fill="#000000"/><circle cx="1060" cy="860" r="6.122941559436274" fill="#000000"/><circle cx="1100" cy="860" r="17.38411757525276" fill="#000000"/><circle cx="1140" cy="860" r="18.43137254901961" fill="#000000"/><circle cx="1180" cy="860" r="18.43137254901961" fill="#000000"/><circle cx="1220" cy="860" r="18.43137254901961" fill="#000000"/><circle cx="1260" cy="860" r="18.43137254901961" fill="#000000"/><circle cx="1300" cy="860" r="18.43137254901961" fill="#000000"/><circle cx="1340" cy="860" r="18.43137254901961" fill="#000000"/><circle cx="1380" cy="860" r="18.43137254901961" fill="#000000"/><circle cx="1420" cy="860" r="18.281960730459176" fill="#000000"/><circle cx="1460" cy="860" r="14.324313893037683" fill="#000000"/><circle cx="1500" cy="860" r="13.337058871400123" fill="#000000"/><circle cx="1540" cy="860" r="12.597059062882966" fill="#000000"/><circle cx="1580" cy="860" r="5.665490243949143" fill="#000000"/><circle cx="500" cy="900" r="4.899607938878676" fill="#000000"/><circle cx="540" cy="900" r="17.68294121237362" fill="#000000"/><circle cx="580" cy="900" r="18.43137254901961" fill="#000000"/><circle cx="620" cy="900" r="18.43137254901961" fill="#000000"/><circle cx="660" cy="900" r="18.43137254901961" fill="#000000"/><circle cx="700" cy="900" r="15.241568771063111" fill="#000000"/><circle cx="740" cy="900" r="18.43137254901961" fill="#000000"/><circle cx="780" cy="900" r="18.43137254901961" fill="#000000"/><circle cx="820" cy="900" r="18.43137254901961" fill="#000000"/><circle cx="860" cy="900" r="18.43137254901961" fill="#000000"/><circle cx="900" cy="900" r="18.43137254901961" fill="#000000"/><circle cx="940" cy="900" r="18.43137254901961" fill="#000000"/><circle cx="980" cy="900" r="12.164313821231618" fill="#000000"/><circle cx="1020" cy="900" r="6.656078862208945" fill="#000000"/><circle cx="1060" cy="900" r="18.053529477586935" fill="#000000"/><circle cx="1100" cy="900" r="18.43137254901961" fill="#000000"/><circle cx="1140" cy="900" r="18.43137254901961" fill="#000000"/><circle cx="1180" cy="900" r="18.43137254901961" fill="#000000"/><circle cx="1220" cy="900" r="18.43137254901961" fill="#000000"/><circle cx="1260" cy="900" r="18.43137254901961" fill="#000000"/><circle cx="1300" cy="900" r="18.43137254901961" fill="#000000"/><circle cx="1340" cy="900" r="18.43137254901961" fill="#000000"/><circle cx="1380" cy="900" r="18.43137254901961" fill="#000000"/><circle cx="1420" cy="900" r="18.43137254901961" fill="#000000"/><circle cx="1460" cy="900" r="16.927647010952818" fill="#000000"/><circle cx="1500" cy="900" r="7.1496079388786775" fill="#000000"/><circle cx="460" cy="940" r="4.340784409466911" fill="#000000"/><circle cx="500" cy="940" r="17.685294057808672" fill="#000000"/><circle cx="540" cy="940" r="18.43137254901961" fill="#000000"/><circle cx="580" cy="940" r="18.43137254901961" fill="#000000"/><circle cx="620" cy="940" r="18.43137254901961" fill="#000000"/><circle cx="660" cy="940" r="18.43137254901961" fill="#000000"/><circle cx="700" cy="940" r="18.430196126302082" fill="#000000"/><circle cx="740" cy="940" r="18.43137254901961" fill="#000000"/><circle cx="780" cy="940" r="18.43137254901961" fill="#000000"/><circle cx="820" cy="940" r="18.43137254901961" fill="#000000"/><circle cx="860" cy="940" r="18.43137254901961" fill="#000000"/><circle cx="900" cy="940" r="18.43137254901961" fill="#000000"/><circle cx="940" cy="940" r="11.855294021905639" fill="#000000"/><circle cx="980" cy="940" r="6.763333189721202" fill="#000000"/><circle cx="1020" cy="940" r="18.13372548421224" fill="#000000"/><circle cx="1060" cy="940" r="18.43137254901961" fill="#000000"/><circle cx="1100" cy="940" r="18.43137254901961" fill="#000000"/><circle cx="1140" cy="940" r="18.43137254901961" fill="#000000"/><circle cx="1180" cy="940" r="18.43137254901961" fill="#000000"/><circle cx="1220" cy="940" r="18.43137254901961" fill="#000000"/><circle cx="1260" cy="940" r="18.43137254901961" fill="#000000"/><circle cx="1300" cy="940" r="18.43137254901961" fill="#000000"/><circle cx="1340" cy="940" r="18.43137254901961" fill="#000000"/><circle cx="1380" cy="940" r="18.43137254901961" fill="#000000"/><circle cx="1420" cy="940" r="18.43137254901961" fill="#000000"/><circle cx="1460" cy="940" r="12.598235485600489" fill="#000000"/><circle cx="1500" cy="940" r="0.88372563380821" fill="#000000"/><circle cx="460" cy="980" r="12.57843137254902" fill="#000000"/><circle cx="500" cy="980" r="18.43137254901961" fill="#000000"/><circle cx="540" cy="980" r="18.43137254901961" fill="#000000"/><circle cx="580" cy="980" r="18.43137254901961" fill="#000000"/><circle cx="620" cy="980" r="18.43137254901961" fill="#000000"/><circle cx="660" cy="980" r="18.43137254901961" fill="#000000"/><circle cx="700" cy="980" r="18.43137254901961" fill="#000000"/><circle cx="740" cy="980" r="18.43137254901961" fill="#000000"/><circle cx="780" cy="980" r="18.43137254901961" fill="#000000"/><circle cx="820" cy="980" r="18.43137254901961" fill="#000000"/><circle cx="860" cy="980" r="18.43137254901961" fill="#000000"/><circle cx="900" cy="980" r="11.851176542394303" fill="#000000"/><circle cx="940" cy="980" r="6.840980679381127" fill="#000000"/><circle cx="980" cy="980" r="18.192549013624003" fill="#000000"/><circle cx="1020" cy="980" r="18.43137254901961" fill="#000000"/><circle cx="1060" cy="980" r="18.43137254901961" fill="#000000"/><circle cx="1100" cy="980" r="18.43137254901961" fill="#000000"/><circle cx="1140" cy="980" r="18.43137254901961" fill="#000000"/><circle cx="1180" cy="980" r="18.43137254901961" fill="#000000"/><circle cx="1220" cy="980" r="18.43137254901961" fill="#000000"/><circle cx="1260" cy="980" r="18.43137254901961" fill="#000000"/><circle cx="1300" cy="980" r="18.43137254901961" fill="#000000"/><circle cx="1340" cy="980" r="18.43137254901961" fill="#000000"/><circle cx="1380" cy="980" r="18.426470588235297" fill="#000000"/><circle cx="1420" cy="980" r="10.26647051642923" fill="#000000"/><circle cx="420" cy="1020" r="7.286666570925244" fill="#000000"/><circle cx="460" cy="1020" r="13.936274509803921" fill="#000000"/><circle cx="500" cy="1020" r="18.43137254901961" fill="#000000"/><circle cx="540" cy="1020" r="18.43137254901961" fill="#000000"/><circle cx="580" cy="1020" r="18.43137254901961" fill="#000000"/><circle cx="620" cy="1020" r="18.43137254901961" fill="#000000"/><circle cx="660" cy="1020" r="18.43137254901961" fill="#000000"/><circle cx="700" cy="1020" r="18.43137254901961" fill="#000000"/><circle cx="740" cy="1020" r="18.43137254901961" fill="#000000"/><circle cx="780" cy="1020" r="18.43137254901961" fill="#000000"/><circle cx="820" cy="1020" r="18.43137254901961" fill="#000000"/><circle cx="860" cy="1020" r="11.877842921836702" fill="#000000"/><circle cx="900" cy="1020" r="6.843921137791053" fill="#000000"/><circle cx="940" cy="1020" r="18.193725436341527" fill="#000000"/><circle cx="980" cy="1020" r="18.43137254901961" fill="#000000"/><circle cx="1020" cy="1020" r="18.43137254901961" fill="#000000"/><circle cx="1060" cy="1020" r="18.43137254901961" fill="#000000"/><circle cx="1100" cy="1020" r="18.43137254901961" fill="#000000"/><circle cx="1140" cy="1020" r="18.43137254901961" fill="#000000"/><circle cx="1180" cy="1020" r="18.43137254901961" fill="#000000"/><circle cx="1220" cy="1020" r="18.43137254901961" fill="#000000"/><circle cx="1260" cy="1020" r="18.43137254901961" fill="#000000"/><circle cx="1300" cy="1020" r="18.27078426585478" fill="#000000"/><circle cx="1340" cy="1020" r="17.29254898370481" fill="#000000"/><circle cx="1380" cy="1020" r="8.199215159696692" fill="#000000"/><circle cx="380" cy="1060" r="3.5058821135876217" fill="#000000"/><circle cx="420" cy="1060" r="12.690196317784928" fill="#000000"/><circle cx="460" cy="1060" r="14.570392085056678" fill="#000000"/><circle cx="500" cy="1060" r="18.43137254901961" fill="#000000"/><circle cx="540" cy="1060" r="18.43137254901961" fill="#000000"/><circle cx="580" cy="1060" r="18.43137254901961" fill="#000000"/><circle cx="620" cy="1060" r="18.43137254901961" fill="#000000"/><circle cx="660" cy="1060" r="18.43137254901961" fill="#000000"/><circle cx="700" cy="1060" r="18.43137254901961" fill="#000000"/><circle cx="740" cy="1060" r="18.43137254901961" fill="#000000"/><circle cx="780" cy="1060" r="18.43137254901961" fill="#000000"/><circle cx="820" cy="1060" r="12.293921377144608" fill="#000000"/><circle cx="860" cy="1060" r="6.9086279775582105" fill="#000000"/><circle cx="900" cy="1060" r="18.19862739712584" fill="#000000"/><circle cx="940" cy="1060" r="18.43137254901961" fill="#000000"/><circle cx="980" cy="1060" r="18.43137254901961" fill="#000000"/><circle cx="1020" cy="1060" r="18.43137254901961" fill="#000000"/><circle cx="1060" cy="1060" r="18.43137254901961" fill="#000000"/><circle cx="1100" cy="1060" r="18.2917646520278" fill="#000000"/><circle cx="1140" cy="1060" r="15.434117635091145" fill="#000000"/><circle cx="1180" cy="1060" r="13.4866668102788" fill="#000000"/><circle cx="1220" cy="1060" r="11.881568459903493" fill="#000000"/><circle cx="1260" cy="1060" r="9.925686705346202" fill="#000000"/><circle cx="1300" cy="1060" r="7.352941176470589" fill="#000000"/><circle cx="380" cy="1100" r="7.426863128063726" fill="#000000"/><circle cx="420" cy="1100" r="15.425686406154258" fill="#000000"/><circle cx="460" cy="1100" r="15.11294106876149" fill="#000000"/><circle cx="500" cy="1100" r="18.43137254901961" fill="#000000"/><circle cx="540" cy="1100" r="18.43137254901961" fill="#000000"/><circle cx="580" cy="1100" r="18.43137254901961" fill="#000000"/><circle cx="620" cy="1100" r="18.43137254901961" fill="#000000"/><circle cx="660" cy="1100" r="18.43137254901961" fill="#000000"/><circle cx="700" cy="1100" r="18.43137254901961" fill="#000000"/><circle cx="740" cy="1100" r="18.43137254901961" fill="#000000"/><circle cx="780" cy="1100" r="12.930784337660846" fill="#000000"/><circle cx="820" cy="1100" r="6.659999473422182" fill="#000000"/><circle cx="860" cy="1100" r="18.188823475557214" fill="#000000"/><circle cx="900" cy="1100" r="18.43137254901961" fill="#000000"/><circle cx="940" cy="1100" r="18.43137254901961" fill="#000000"/><circle cx="980" cy="1100" r="18.43137254901961" fill="#000000"/><circle cx="1020" cy="1100" r="18.43137254901961" fill="#000000"/><circle cx="1060" cy="1100" r="18.43137254901961" fill="#000000"/><circle cx="1100" cy="1100" r="18.43137254901961" fill="#000000"/><circle cx="1140" cy="1100" r="18.43137254901961" fill="#000000"/><circle cx="1180" cy="1100" r="18.43137254901961" fill="#000000"/><circle cx="1220" cy="1100" r="18.43137254901961" fill="#000000"/><circle cx="1260" cy="1100" r="18.384117575252755" fill="#000000"/><circle cx="1300" cy="1100" r="7.0786276424632355" fill="#000000"/><circle cx="380" cy="1140" r="10.34764727424173" fill="#000000"/><circle cx="420" cy="1140" r="18.168431300742952" fill="#000000"/><circle cx="460" cy="1140" r="16.832156910615808" fill="#000000"/><circle cx="500" cy="1140" r="18.43137254901961" fill="#000000"/><circle cx="540" cy="1140" r="18.43137254901961" fill="#000000"/><circle cx="580" cy="1140" r="18.43137254901961" fill="#000000"/><circle cx="620" cy="1140" r="18.43137254901961" fill="#000000"/><circle cx="660" cy="1140" r="18.43137254901961" fill="#000000"/><circle cx="700" cy="1140" r="18.43137254901961" fill="#000000"/><circle cx="740" cy="1140" r="13.765097823797488" fill="#000000"/><circle cx="780" cy="1140" r="6.29058837890625" fill="#000000"/><circle cx="820" cy="1140" r="18.067254907944623" fill="#000000"/><circle cx="860" cy="1140" r="18.43137254901961" fill="#000000"/><circle cx="900" cy="1140" r="18.43137254901961" fill="#000000"/><circle cx="940" cy="1140" r="18.43137254901961" fill="#000000"/><circle cx="980" cy="1140" r="18.43137254901961" fill="#000000"/><circle cx="1020" cy="1140" r="18.43137254901961" fill="#000000"/><circle cx="1060" cy="1140" r="18.43137254901961" fill="#000000"/><circle cx="1100" cy="1140" r="18.43137254901961" fill="#000000"/><circle cx="1140" cy="1140" r="18.43137254901961" fill="#000000"/><circle cx="1180" cy="1140" r="18.43137254901961" fill="#000000"/><circle cx="1220" cy="1140" r="18.42529416551777" fill="#000000"/><circle cx="1260" cy="1140" r="9.030588187423408" fill="#000000"/><circle cx="380" cy="1180" r="12.624117383769914" fill="#000000"/><circle cx="420" cy="1180" r="18.43137254901961" fill="#000000"/><circle cx="460" cy="1180" r="18.43137254901961" fill="#000000"/><circle cx="500" cy="1180" r="18.43137254901961" fill="#000000"/><circle cx="540" cy="1180" r="18.43137254901961" fill="#000000"/><circle cx="580" cy="1180" r="18.43137254901961" fill="#000000"/><circle cx="620" cy="1180" r="18.43137254901961" fill="#000000"/><circle cx="660" cy="1180" r="18.43137254901961" fill="#000000"/><circle cx="700" cy="1180" r="14.713137159160539" fill="#000000"/><circle cx="740" cy="1180" r="5.789019416360295" fill="#000000"/><circle cx="780" cy="1180" r="17.85156863343482" fill="#000000"/><circle cx="820" cy="1180" r="18.43137254901961" fill="#000000"/><circle cx="860" cy="1180" r="18.43137254901961" fill="#000000"/><circle cx="900" cy="1180" r="18.43137254901961" fill="#000000"/><circle cx="940" cy="1180" r="18.43137254901961" fill="#000000"/><circle cx="980" cy="1180" r="18.43137254901961" fill="#000000"/><circle cx="1020" cy="1180" r="18.43137254901961" fill="#000000"/><circle cx="1060" cy="1180" r="18.43137254901961" fill="#000000"/><circle cx="1100" cy="1180" r="18.43137254901961" fill="#000000"/><circle cx="1140" cy="1180" r="18.378627403109682" fill="#000000"/><circle cx="1180" cy="1180" r="15.938823625153187" fill="#000000"/><circle cx="1220" cy="1180" r="7.258431228936888" fill="#000000"/><circle cx="380" cy="1220" r="14.281176398782168" fill="#000000"/><circle cx="420" cy="1220" r="18.43137254901961" fill="#000000"/><circle cx="460" cy="1220" r="18.43137254901961" fill="#000000"/><circle cx="500" cy="1220" r="18.43137254901961" fill="#000000"/><circle cx="540" cy="1220" r="18.43137254901961" fill="#000000"/><circle cx="580" cy="1220" r="18.43137254901961" fill="#000000"/><circle cx="620" cy="1220" r="18.43137254901961" fill="#000000"/><circle cx="660" cy="1220" r="15.758431228936887" fill="#000000"/><circle cx="700" cy="1220" r="5.2609803442861525" fill="#000000"/><circle cx="740" cy="1220" r="17.460392073089" fill="#000000"/><circle cx="780" cy="1220" r="18.43137254901961" fill="#000000"/><circle cx="820" cy="1220" r="18.43137254901961" fill="#000000"/><circle cx="860" cy="1220" r="18.43137254901961" fill="#000000"/><circle cx="900" cy="1220" r="18.431176428701363" fill="#000000"/><circle cx="940" cy="1220" r="17.833725424373853" fill="#000000"/><circle cx="980" cy="1220" r="15.199803969439339" fill="#000000"/><circle cx="1020" cy="1220" r="12.987058751723346" fill="#000000"/><circle cx="1060" cy="1220" r="10.66823503082874" fill="#000000"/><circle cx="1100" cy="1220" r="8.811765184589461" fill="#000000"/><circle cx="1140" cy="1220" r="7.1984312768075975" fill="#000000"/><circle cx="1180" cy="1220" r="0.5727455288756134" fill="#000000"/><circle cx="380" cy="1260" r="15.418039359298405" fill="#000000"/><circle cx="420" cy="1260" r="18.43137254901961" fill="#000000"/><circle cx="460" cy="1260" r="18.43137254901961" fill="#000000"/><circle cx="500" cy="1260" r="18.43137254901961" fill="#000000"/><circle cx="540" cy="1260" r="18.43137254901961" fill="#000000"/><circle cx="580" cy="1260" r="18.43137254901961" fill="#000000"/><circle cx="620" cy="1260" r="16.76843142041973" fill="#000000"/><circle cx="660" cy="1260" r="4.889215207567402" fill="#000000"/><circle cx="700" cy="1260" r="16.71784314922258" fill="#000000"/><circle cx="740" cy="1260" r="18.43137254901961" fill="#000000"/><circle cx="780" cy="1260" r="18.43137254901961" fill="#000000"/><circle cx="820" cy="1260" r="18.43137254901961" fill="#000000"/><circle cx="860" cy="1260" r="18.43137254901961" fill="#000000"/><circle cx="900" cy="1260" r="17.30862755868949" fill="#000000"/><circle cx="940" cy="1260" r="15.469215542662377" fill="#000000"/><circle cx="980" cy="1260" r="17.041372560987288" fill="#000000"/><circle cx="1020" cy="1260" r="18.323137320724186" fill="#000000"/><circle cx="1060" cy="1260" r="18.43137254901961" fill="#000000"/><circle cx="1100" cy="1260" r="18.419411752738203" fill="#000000"/><circle cx="1140" cy="1260" r="8.475882735906863" fill="#000000"/><circle cx="380" cy="1300" r="15.915293974034928" fill="#000000"/><circle cx="420" cy="1300" r="18.43137254901961" fill="#000000"/><circle cx="460" cy="1300" r="18.43137254901961" fill="#000000"/><circle cx="500" cy="1300" r="18.43137254901961" fill="#000000"/><circle cx="540" cy="1300" r="18.43137254901961" fill="#000000"/><circle cx="580" cy="1300" r="17.63941177667356" fill="#000000"/><circle cx="620" cy="1300" r="4.964117311963847" fill="#000000"/><circle cx="660" cy="1300" r="15.42294132008272" fill="#000000"/><circle cx="700" cy="1300" r="18.43137254901961" fill="#000000"/><circle cx="740" cy="1300" r="18.43137254901961" fill="#000000"/><circle cx="780" cy="1300" r="18.43137254901961" fill="#000000"/><circle cx="820" cy="1300" r="18.43137254901961" fill="#000000"/><circle cx="860" cy="1300" r="18.43137254901961" fill="#000000"/><circle cx="900" cy="1300" r="18.43137254901961" fill="#000000"/><circle cx="940" cy="1300" r="18.43137254901961" fill="#000000"/><circle cx="980" cy="1300" r="18.43137254901961" fill="#000000"/><circle cx="1020" cy="1300" r="18.43137254901961" fill="#000000"/><circle cx="1060" cy="1300" r="18.4305882173426" fill="#000000"/><circle cx="1100" cy="1300" r="9.671372357536764" fill="#000000"/><circle cx="380" cy="1340" r="14.188235413794423" fill="#000000"/><circle cx="420" cy="1340" r="18.43137254901961" fill="#000000"/><circle cx="460" cy="1340" r="18.43137254901961" fill="#000000"/><circle cx="500" cy="1340" r="18.43137254901961" fill="#000000"/><circle cx="540" cy="1340" r="18.23764711267808" fill="#000000"/><circle cx="580" cy="1340" r="5.956078622855392" fill="#000000"/><circle cx="620" cy="1340" r="13.217450908586091" fill="#000000"/><circle cx="660" cy="1340" r="18.43137254901961" fill="#000000"/><circle cx="700" cy="1340" r="18.43137254901961" fill="#000000"/><circle cx="740" cy="1340" r="18.43137254901961" fill="#000000"/><circle cx="780" cy="1340" r="18.43137254901961" fill="#000000"/><circle cx="820" cy="1340" r="18.43137254901961" fill="#000000"/><circle cx="860" cy="1340" r="18.43137254901961" fill="#000000"/><circle cx="900" cy="1340" r="18.43137254901961" fill="#000000"/><circle cx="940" cy="1340" r="18.43137254901961" fill="#000000"/><circle cx="980" cy="1340" r="18.43137254901961" fill="#000000"/><circle cx="1020" cy="1340" r="18.43137254901961" fill="#000000"/><circle cx="1060" cy="1340" r="10.919215782015932" fill="#000000"/><circle cx="380" cy="1380" r="11.066274605545344" fill="#000000"/><circle cx="420" cy="1380" r="18.43137254901961" fill="#000000"/><circle cx="460" cy="1380" r="18.43137254901961" fill="#000000"/><circle cx="500" cy="1380" r="18.431176428701363" fill="#000000"/><circle cx="540" cy="1380" r="8.418431899126839" fill="#000000"/><circle cx="580" cy="1380" r="9.767254997702207" fill="#000000"/><circle cx="620" cy="1380" r="18.43137254901961" fill="#000000"/><circle cx="660" cy="1380" r="18.43137254901961" fill="#000000"/><circle cx="700" cy="1380" r="18.43137254901961" fill="#000000"/><circle cx="740" cy="1380" r="18.43137254901961" fill="#000000"/><circle cx="780" cy="1380" r="18.43137254901961" fill="#000000"/><circle cx="820" cy="1380" r="18.43137254901961" fill="#000000"/><circle cx="860" cy="1380" r="18.43137254901961" fill="#000000"/><circle cx="900" cy="1380" r="18.43137254901961" fill="#000000"/><circle cx="940" cy="1380" r="18.43137254901961" fill="#000000"/><circle cx="980" cy="1380" r="18.43137254901961" fill="#000000"/><circle cx="1020" cy="1380" r="12.106666714537377" fill="#000000"/><circle cx="380" cy="1420" r="9.395686130897671" fill="#000000"/><circle cx="420" cy="1420" r="18.43137254901961" fill="#000000"/><circle cx="460" cy="1420" r="18.43137254901961" fill="#000000"/><circle cx="500" cy="1420" r="16.43098030838312" fill="#000000"/><circle cx="540" cy="1420" r="8.601764753753063" fill="#000000"/><circle cx="580" cy="1420" r="18.331176458620558" fill="#000000"/><circle cx="620" cy="1420" r="18.43137254901961" fill="#000000"/><circle cx="660" cy="1420" r="18.43137254901961" fill="#000000"/><circle cx="700" cy="1420" r="18.43137254901961" fill="#000000"/><circle cx="740" cy="1420" r="18.43137254901961" fill="#000000"/><circle cx="780" cy="1420" r="18.43137254901961" fill="#000000"/><circle cx="820" cy="1420" r="18.43137254901961" fill="#000000"/><circle cx="860" cy="1420" r="18.43137254901961" fill="#000000"/><circle cx="900" cy="1420" r="18.43137254901961" fill="#000000"/><circle cx="940" cy="1420" r="18.43137254901961" fill="#000000"/><circle cx="980" cy="1420" r="13.548039455039829" fill="#000000"/><circle cx="380" cy="1460" r="6.851764753753065" fill="#000000"/><circle cx="420" cy="1460" r="18.43137254901961" fill="#000000"/><circle cx="460" cy="1460" r="18.43137254901961" fill="#000000"/><circle cx="500" cy="1460" r="18.43137254901961" fill="#000000"/><circle cx="540" cy="1460" r="18.43137254901961" fill="#000000"/><circle cx="580" cy="1460" r="18.43137254901961" fill="#000000"/><circle cx="620" cy="1460" r="18.43137254901961" fill="#000000"/><circle cx="660" cy="1460" r="18.43137254901961" fill="#000000"/><circle cx="700" cy="1460" r="18.43137254901961" fill="#000000"/><circle cx="740" cy="1460" r="18.43137254901961" fill="#000000"/><circle cx="780" cy="1460" r="18.43137254901961" fill="#000000"/><circle cx="820" cy="1460" r="18.43137254901961" fill="#000000"/><circle cx="860" cy="1460" r="18.43137254901961" fill="#000000"/><circle cx="900" cy="1460" r="18.214117611155793" fill="#000000"/><circle cx="940" cy="1460" r="10.873921712239586" fill="#000000"/><circle cx="980" cy="1460" r="0.6625485887714455" fill="#000000"/><circle cx="380" cy="1500" r="3.5164711148131134" fill="#000000"/><circle cx="420" cy="1500" r="18.43137254901961" fill="#000000"/><circle cx="460" cy="1500" r="18.43137254901961" fill="#000000"/><circle cx="500" cy="1500" r="18.43137254901961" fill="#000000"/><circle cx="540" cy="1500" r="18.43137254901961" fill="#000000"/><circle cx="580" cy="1500" r="18.43137254901961" fill="#000000"/><circle cx="620" cy="1500" r="18.43137254901961" fill="#000000"/><circle cx="660" cy="1500" r="15.323725382486979" fill="#000000"/><circle cx="700" cy="1500" r="11.105490291819853" fill="#000000"/><circle cx="740" cy="1500" r="12.423333261527267" fill="#000000"/><circle cx="780" cy="1500" r="13.88470578661152" fill="#000000"/><circle cx="820" cy="1500" r="14.578235102634803" fill="#000000"/><circle cx="860" cy="1500" r="10.312549067478553" fill="#000000"/><circle cx="900" cy="1500" r="2.528039072074142" fill="#000000"/><circle cx="380" cy="1540" r="8.575882257199755" fill="#000000"/><circle cx="420" cy="1540" r="18.43137254901961" fill="#000000"/><circle cx="460" cy="1540" r="18.43137254901961" fill="#000000"/><circle cx="500" cy="1540" r="18.43137254901961" fill="#000000"/><circle cx="540" cy="1540" r="18.43137254901961" fill="#000000"/><circle cx="580" cy="1540" r="18.43137254901961" fill="#000000"/><circle cx="620" cy="1540" r="18.281960730459176" fill="#000000"/><circle cx="660" cy="1540" r="16.75039224063649" fill="#000000"/><circle cx="700" cy="1540" r="13.960392372280943" fill="#000000"/><circle cx="740" cy="1540" r="6.492941463694852" fill="#000000"/><circle cx="340" cy="1580" r="2.2474508846507346" fill="#000000"/><circle cx="380" cy="1580" r="17.671960718491498" fill="#000000"/><circle cx="420" cy="1580" r="18.43137254901961" fill="#000000"/><circle cx="460" cy="1580" r="18.298823487524892" fill="#000000"/><circle cx="500" cy="1580" r="6.4933328067555145" fill="#000000"/><circle cx="540" cy="1580" r="2.947843663832721" fill="#000000"/><circle cx="580" cy="1580" r="1.3841181736366415" fill="#000000"/><circle cx="340" cy="1620" r="12.546078551049327" fill="#000000"/><circle cx="380" cy="1620" r="18.43137254901961" fill="#000000"/><circle cx="420" cy="1620" r="18.43137254901961" fill="#000000"/><circle cx="460" cy="1620" r="10.418431300742954" fill="#000000"/><circle cx="300" cy="1660" r="4.9254904354319855" fill="#000000"/><circle cx="340" cy="1660" r="18.412352917241115" fill="#000000"/><circle cx="380" cy="1660" r="18.43137254901961" fill="#000000"/><circle cx="420" cy="1660" r="15.813725490196077" fill="#000000"/><circle cx="460" cy="1660" r="0.7890194163602948" fill="#000000"/><circle cx="260" cy="1700" r="1.3107838350183831" fill="#000000"/><circle cx="300" cy="1700" r="15.910980523801317" fill="#000000"/><circle cx="340" cy="1700" r="18.43137254901961" fill="#000000"/><circle cx="380" cy="1700" r="18.3160784852271" fill="#000000"/><circle cx="420" cy="1700" r="4.482745002297794" fill="#000000"/><circle cx="220" cy="1740" r="4.27862788181679" fill="#000000"/><circle cx="260" cy="1740" r="13.181568818933824" fill="#000000"/><circle cx="300" cy="1740" r="18.43137254901961" fill="#000000"/><circle cx="340" cy="1740" r="18.43137254901961" fill="#000000"/><circle cx="380" cy="1740" r="12.8378433526731" fill="#000000"/><circle cx="1460" cy="1740" r="1.3056868010876221" fill="#000000"/><circle cx="1500" cy="1740" r="4.347842945772058" fill="#000000"/><circle cx="1540" cy="1740" r="6.729019464231005" fill="#000000"/><circle cx="1580" cy="1740" r="7.889411477481618" fill="#000000"/><circle cx="1620" cy="1740" r="8.803921568627452" fill="#000000"/><circle cx="1660" cy="1740" r="8.09686279296875" fill="#000000"/><circle cx="1700" cy="1740" r="7.407646627987132" fill="#000000"/><circle cx="1740" cy="1740" r="5.649411668964461" fill="#000000"/><circle cx="1780" cy="1740" r="2.795097799862132" fill="#000000"/><circle cx="220" cy="1780" r="8.639020134420957" fill="#000000"/><circle cx="260" cy="1780" r="18.43137254901961" fill="#000000"/><circle cx="300" cy="1780" r="18.43137254901961" fill="#000000"/><circle cx="340" cy="1780" r="18.43137254901961" fill="#000000"/><circle cx="380" cy="1780" r="5.0649019129136015" fill="#000000"/><circle cx="1340" cy="1780" r="2.305881874234068" fill="#000000"/><circle cx="1380" cy="1780" r="9.602352366727942" fill="#000000"/><circle cx="1420" cy="1780" r="14.679411645029106" fill="#000000"/><circle cx="1460" cy="1780" r="14.012941248276656" fill="#000000"/><circle cx="1500" cy="1780" r="11.063921760110293" fill="#000000"/><circle cx="1540" cy="1780" r="8.834117216222426" fill="#000000"/><circle cx="1580" cy="1780" r="7.690000047870711" fill="#000000"/><circle cx="1620" cy="1780" r="7.623529172411152" fill="#000000"/><circle cx="1660" cy="1780" r="7.71960808249081" fill="#000000"/><circle cx="1700" cy="1780" r="9.174510282628676" fill="#000000"/><circle cx="1740" cy="1780" r="11.379019344554226" fill="#000000"/><circle cx="1780" cy="1780" r="14.63137278837316" fill="#000000"/><circle cx="1820" cy="1780" r="16.801372453278187" fill="#000000"/><circle cx="1860" cy="1780" r="12.26313751819087" fill="#000000"/><circle cx="1900" cy="1780" r="5.424314012714461" fill="#000000"/><circle cx="180" cy="1820" r="2.741176231234681" fill="#000000"/><circle cx="220" cy="1820" r="17.10686268525965" fill="#000000"/><circle cx="260" cy="1820" r="18.43137254901961" fill="#000000"/><circle cx="300" cy="1820" r="18.43137254901961" fill="#000000"/><circle cx="340" cy="1820" r="18.038039263556986" fill="#000000"/><circle cx="380" cy="1820" r="4.388627594592524" fill="#000000"/><circle cx="1300" cy="1820" r="9.868430941712623" fill="#000000"/><circle cx="1340" cy="1820" r="13.596666523054534" fill="#000000"/><circle cx="1380" cy="1820" r="6.02588249655331" fill="#000000"/><circle cx="1420" cy="1820" r="0.6560788622089464" fill="#000000"/><circle cx="1820" cy="1820" r="0.9350980870863967" fill="#000000"/><circle cx="1860" cy="1820" r="6.482352462469363" fill="#000000"/><circle cx="1900" cy="1820" r="14.464509851792279" fill="#000000"/><circle cx="1940" cy="1820" r="14.20803892846201" fill="#000000"/><circle cx="1980" cy="1820" r="2.115686753216912" fill="#000000"/><circle cx="140" cy="1860" r="1.3976476332720589" fill="#000000"/><circle cx="180" cy="1860" r="15.785294177485447" fill="#000000"/><circle cx="220" cy="1860" r="18.43137254901961" fill="#000000"/><circle cx="260" cy="1860" r="18.43137254901961" fill="#000000"/><circle cx="300" cy="1860" r="18.290392108992034" fill="#000000"/><circle cx="340" cy="1860" r="2.8535299862132346" fill="#000000"/><circle cx="1260" cy="1860" r="8.771764418658087" fill="#000000"/><circle cx="1300" cy="1860" r="8.63294175091912" fill="#000000"/><circle cx="1700" cy="1860" r="2.907842897901347" fill="#000000"/><circle cx="1740" cy="1860" r="5.168823242187499" fill="#000000"/><circle cx="1780" cy="1860" r="2.527646532245711" fill="#000000"/><circle cx="1940" cy="1860" r="8.36215628829657" fill="#000000"/><circle cx="1980" cy="1860" r="15.777254889993106" fill="#000000"/><circle cx="2020" cy="1860" r="0.8119602577359064" fill="#000000"/><circle cx="100" cy="1900" r="0.5045094209558831" fill="#000000"/><circle cx="140" cy="1900" r="14.066862816904106" fill="#000000"/><circle cx="180" cy="1900" r="17.574509863759957" fill="#000000"/><circle cx="220" cy="1900" r="11.987450693167894" fill="#000000"/><circle cx="260" cy="1900" r="18.43137254901961" fill="#000000"/><circle cx="300" cy="1900" r="13.065490124272365" fill="#000000"/><circle cx="1260" cy="1900" r="10.115882424747243" fill="#000000"/><circle cx="1300" cy="1900" r="6.423725202971813" fill="#000000"/><circle cx="1780" cy="1900" r="5.613528980928308" fill="#000000"/><circle cx="1820" cy="1900" r="6.8254897173713225" fill="#000000"/><circle cx="1980" cy="1900" r="13.202353084788603" fill="#000000"/><circle cx="2020" cy="1900" r="6.742548923866421" fill="#000000"/><circle cx="100" cy="1940" r="7.99862730736826" fill="#000000"/><circle cx="140" cy="1940" r="18.43137254901961" fill="#000000"/><circle cx="180" cy="1940" r="15.146274641448375" fill="#000000"/><circle cx="220" cy="1940" r="10.72215659945619" fill="#000000"/><circle cx="260" cy="1940" r="18.43137254901961" fill="#000000"/><circle cx="300" cy="1940" r="5.124901865042892" fill="#000000"/><circle cx="1260" cy="1940" r="0.6631373985140931" fill="#000000"/><circle cx="1300" cy="1940" r="10.727058560240504" fill="#000000"/><circle cx="1340" cy="1940" r="13.058823529411764" fill="#000000"/><circle cx="1380" cy="1940" r="7.9652937346813735" fill="#000000"/><circle cx="1420" cy="1940" r="4.240784888174021" fill="#000000"/><circle cx="1460" cy="1940" r="1.9531369676776955" fill="#000000"/><circle cx="1540" cy="1940" r="0.5019603056066169" fill="#000000"/><circle cx="1580" cy="1940" r="1.6272547104779411" fill="#000000"/><circle cx="1620" cy="1940" r="3.270391726026347" fill="#000000"/><circle cx="1660" cy="1940" r="5.345293830422795" fill="#000000"/><circle cx="1700" cy="1940" r="8.22509765625" fill="#000000"/><circle cx="1740" cy="1940" r="10.487450693167892" fill="#000000"/><circle cx="1780" cy="1940" r="9.893137015548408" fill="#000000"/><circle cx="1820" cy="1940" r="1.839804256663602" fill="#000000"/><circle cx="1980" cy="1940" r="11.156078263825062" fill="#000000"/><circle cx="2020" cy="1940" r="7.992941463694853" fill="#000000"/><circle cx="100" cy="1980" r="5.474313773360906" fill="#000000"/><circle cx="140" cy="1980" r="18.42901955398859" fill="#000000"/><circle cx="180" cy="1980" r="15.149999880323223" fill="#000000"/><circle cx="220" cy="1980" r="18.43137254901961" fill="#000000"/><circle cx="260" cy="1980" r="15.555490231981464" fill="#000000"/><circle cx="1340" cy="1980" r="0.8488230985753686" fill="#000000"/><circle cx="1380" cy="1980" r="5.204313390395221" fill="#000000"/><circle cx="1420" cy="1980" r="8.391960592830882" fill="#000000"/><circle cx="1460" cy="1980" r="10.41627472522212" fill="#000000"/><circle cx="1500" cy="1980" r="11.077843161190257" fill="#000000"/><circle cx="1540" cy="1980" r="11.01843142041973" fill="#000000"/><circle cx="1580" cy="1980" r="10.13705863204657" fill="#000000"/><circle cx="1620" cy="1980" r="8.473137350643382" fill="#000000"/><circle cx="1660" cy="1980" r="6.075098374310661" fill="#000000"/><circle cx="1700" cy="1980" r="3.0000000000000004" fill="#000000"/><circle cx="1940" cy="1980" r="1.2233336205575984" fill="#000000"/><circle cx="1980" cy="1980" r="16.762744978362438" fill="#000000"/><circle cx="2020" cy="1980" r="3.242548923866422" fill="#000000"/><circle cx="100" cy="2020" r="5.482548732383579" fill="#000000"/><circle cx="140" cy="2020" r="15.609215829886642" fill="#000000"/><circle cx="180" cy="2020" r="17.853725508147594" fill="#000000"/><circle cx="220" cy="2020" r="14.153333476945464" fill="#000000"/><circle cx="260" cy="2020" r="5.0243135340073515" fill="#000000"/><circle cx="1900" cy="2020" r="5.250783882889094" fill="#000000"/><circle cx="1940" cy="2020" r="15.41588248458563" fill="#000000"/><circle cx="1980" cy="2020" r="10.546863032322303" fill="#000000"/><circle cx="100" cy="2060" r="9.817451028262866" fill="#000000"/><circle cx="140" cy="2060" r="14.458038928462011" fill="#000000"/><circle cx="180" cy="2060" r="4.270587995940565" fill="#000000"/><circle cx="1700" cy="2060" r="1.6072543275122553" fill="#000000"/><circle cx="1740" cy="2060" r="4.164313821231618" fill="#000000"/><circle cx="1780" cy="2060" r="7.358627020143995" fill="#000000"/><circle cx="1820" cy="2060" r="11.322156719132966" fill="#000000"/><circle cx="1860" cy="2060" r="16.40686274509804" fill="#000000"/><circle cx="1900" cy="2060" r="15.694902008655024" fill="#000000"/><circle cx="1940" cy="2060" r="6.867450788909313" fill="#000000"/><circle cx="100" cy="2100" r="12.136274749157474" fill="#000000"/><circle cx="140" cy="2100" r="8.672745050168505" fill="#000000"/><circle cx="180" cy="2100" r="8.130196365655637" fill="#000000"/><circle cx="220" cy="2100" r="10.40980380189185" fill="#000000"/><circle cx="260" cy="2100" r="12.259607651654411" fill="#000000"/><circle cx="300" cy="2100" r="13.743137135225183" fill="#000000"/><circle cx="340" cy="2100" r="14.87725471047794" fill="#000000"/><circle cx="380" cy="2100" r="15.95274502623315" fill="#000000"/><circle cx="420" cy="2100" r="16.107450896618413" fill="#000000"/><circle cx="460" cy="2100" r="16.125490076401654" fill="#000000"/><circle cx="500" cy="2100" r="16.125490076401654" fill="#000000"/><circle cx="540" cy="2100" r="16.119411692899817" fill="#000000"/><circle cx="580" cy="2100" r="16.02745086071538" fill="#000000"/><circle cx="620" cy="2100" r="15.894509708180147" fill="#000000"/><circle cx="660" cy="2100" r="15.045490339690563" fill="#000000"/><circle cx="700" cy="2100" r="14.74098055970435" fill="#000000"/><circle cx="740" cy="2100" r="14.624509923598346" fill="#000000"/><circle cx="780" cy="2100" r="14.323529411764707" fill="#000000"/><circle cx="820" cy="2100" r="13.328039431104472" fill="#000000"/><circle cx="860" cy="2100" r="13.235882329005822" fill="#000000"/><circle cx="900" cy="2100" r="13.107843137254902" fill="#000000"/><circle cx="940" cy="2100" r="12.394509708180145" fill="#000000"/><circle cx="980" cy="2100" r="11.808627259497548" fill="#000000"/><circle cx="1020" cy="2100" r="11.710980583639707" fill="#000000"/><circle cx="1060" cy="2100" r="11.603333117915135" fill="#000000"/><circle cx="1100" cy="2100" r="11.474510043275124" fill="#000000"/><circle cx="1140" cy="2100" r="10.733725753484986" fill="#000000"/><circle cx="1180" cy="2100" r="10.494117886412377" fill="#000000"/><circle cx="1220" cy="2100" r="10.494117886412377" fill="#000000"/><circle cx="1260" cy="2100" r="10.494117886412377" fill="#000000"/><circle cx="1300" cy="2100" r="10.494117886412377" fill="#000000"/><circle cx="1340" cy="2100" r="10.870980655445772" fill="#000000"/><circle cx="1380" cy="2100" r="11.51196049708946" fill="#000000"/><circle cx="1420" cy="2100" r="11.69333304610907" fill="#000000"/><circle cx="1460" cy="2100" r="11.921960568895527" fill="#000000"/><circle cx="1500" cy="2100" r="13.12431365368413" fill="#000000"/><circle cx="1540" cy="2100" r="13.7050978716682" fill="#000000"/><circle cx="1580" cy="2100" r="14.833137063419118" fill="#000000"/><circle cx="1620" cy="2100" r="16.280980428059895" fill="#000000"/><circle cx="1660" cy="2100" r="17.935098087086395" fill="#000000"/><circle cx="1700" cy="2100" r="17.762941248276654" fill="#000000"/><circle cx="1740" cy="2100" r="15.319215662339154" fill="#000000"/><circle cx="1780" cy="2100" r="12.286274629480701" fill="#000000"/><circle cx="1820" cy="2100" r="8.393137015548406" fill="#000000"/><circle cx="1860" cy="2100" r="3.5425486845128673" fill="#000000"/><circle cx="340" cy="2140" r="0.7398035386029411" fill="#000000"/><circle cx="380" cy="2140" r="0.8972550934436274" fill="#000000"/><circle cx="420" cy="2140" r="0.9935290766697302" fill="#000000"/><circle cx="460" cy="2140" r="1.33490229587929" fill="#000000"/><circle cx="500" cy="2140" r="2.119803634344364" fill="#000000"/><circle cx="540" cy="2140" r="2.265686035156249" fill="#000000"/><circle cx="580" cy="2140" r="2.355882831648284" fill="#000000"/><circle cx="620" cy="2140" r="2.681765088848038" fill="#000000"/><circle cx="660" cy="2140" r="3.7623530369178915" fill="#000000"/><circle cx="700" cy="2140" r="3.8721564797794117" fill="#000000"/><circle cx="740" cy="2140" r="3.9598041609221823" fill="#000000"/><circle cx="780" cy="2140" r="4.871765136718751" fill="#000000"/><circle cx="820" cy="2140" r="5.151176901424632" fill="#000000"/><circle cx="860" cy="2140" r="5.261372884114584" fill="#000000"/><circle cx="900" cy="2140" r="6.465882544424019" fill="#000000"/><circle cx="940" cy="2140" r="6.706862505744486" fill="#000000"/><circle cx="980" cy="2140" r="6.801961263020832" fill="#000000"/><circle cx="1020" cy="2140" r="7.395686130897672" fill="#000000"/><circle cx="1060" cy="2140" r="7.941960353477329" fill="#000000"/><circle cx="1100" cy="2140" r="8.072156719132966" fill="#000000"/><circle cx="1140" cy="2140" r="8.14392209520527" fill="#000000"/><circle cx="1180" cy="2140" r="8.22745050168505" fill="#000000"/><circle cx="1220" cy="2140" r="8.22745050168505" fill="#000000"/><circle cx="1260" cy="2140" r="8.22745050168505" fill="#000000"/><circle cx="1300" cy="2140" r="8.22745050168505" fill="#000000"/><circle cx="1340" cy="2140" r="8.22745050168505" fill="#000000"/><circle cx="1380" cy="2140" r="8.170784744561887" fill="#000000"/><circle cx="1420" cy="2140" r="8.054314108455882" fill="#000000"/><circle cx="1460" cy="2140" r="7.478235581341912" fill="#000000"/><circle cx="1500" cy="2140" r="6.735097847732843" fill="#000000"/><circle cx="1540" cy="2140" r="5.725293926164216" fill="#000000"/><circle cx="1580" cy="2140" r="4.634118173636644" fill="#000000"/><circle cx="1620" cy="2140" r="3.3096074123008568" fill="#000000"/><circle cx="1660" cy="2140" r="1.5741182215073524" fill="#000000"/></svg>