<svg xmlns="http://www.w3.org/2000/svg" width="265" height="216" viewBox="0 0 2782 2160"><circle cx="2460" cy="20" r="1.232"/><circle cx="2500" cy="20" r="2.82"/><circle cx="2540" cy="20" r="4.237"/><circle cx="2580" cy="20" r="5.203"/><circle cx="2620" cy="20" r="6.503"/><circle cx="2660" cy="20" r="6.767"/><circle cx="2700" cy="20" r="6.676"/><circle cx="2740" cy="20" r="4.733"/><circle cx="2260" cy="60" r="3.715"/><circle cx="2300" cy="60" r="10.599"/><circle cx="2340" cy="60" r="13.374"/><circle cx="2380" cy="60" r="15.547"/><circle cx="2420" cy="60" r="17.58"/><circle cx="2460" cy="60" r="18.431"/><circle cx="2500" cy="60" r="18.431"/><circle cx="2540" cy="60" r="18.431"/><circle cx="2580" cy="60" r="18.431"/><circle cx="2620" cy="60" r="18.431"/><circle cx="2660" cy="60" r="18.431"/><circle cx="2700" cy="60" r="18.295"/><circle cx="2740" cy="60" r="8.989"/><circle cx="2020" cy="100" r="2.313"/><circle cx="2060" cy="100" r="7.288"/><circle cx="2100" cy="100" r="11.91"/><circle cx="2140" cy="100" r="15.677"/><circle cx="2180" cy="100" r="4.778"/><circle cx="2220" cy="100" r="11.372"/><circle cx="2260" cy="100" r="18.308"/><circle cx="2300" cy="100" r="18.431"/><circle cx="2340" cy="100" r="18.431"/><circle cx="2380" cy="100" r="18.431"/><circle cx="2420" cy="100" r="18.431"/><circle cx="2460" cy="100" r="18.431"/><circle cx="2500" cy="100" r="18.431"/><circle cx="2540" cy="100" r="18.431"/><circle cx="2580" cy="100" r="18.431"/><circle cx="2620" cy="100" r="18.431"/><circle cx="2660" cy="100" r="15.48"/><circle cx="2700" cy="100" r="4.761"/><circle cx="1860" cy="140" r="3.423"/><circle cx="1900" cy="140" r="8.983"/><circle cx="1940" cy="140" r="4.58"/><circle cx="1980" cy="140" r="12.209"/><circle cx="2020" cy="140" r="18.404"/><circle cx="2060" cy="140" r="18.431"/><circle cx="2100" cy="140" r="18.431"/><circle cx="2140" cy="140" r="15.951"/><circle cx="2180" cy="140" r="17.386"/><circle cx="2220" cy="140" r="18.431"/><circle cx="2260" cy="140" r="18.431"/><circle cx="2300" cy="140" r="18.431"/><circle cx="2340" cy="140" r="18.431"/><circle cx="2380" cy="140" r="18.431"/><circle cx="2420" cy="140" r="18.431"/><circle cx="2460" cy="140" r="18.431"/><circle cx="2500" cy="140" r="18.228"/><circle cx="2540" cy="140" r="16.069"/><circle cx="2580" cy="140" r="15.144"/><circle cx="2620" cy="140" r="8.425"/><circle cx="2660" cy="140" r=".598"/><circle cx="1740" cy="180" r="2.604"/><circle cx="1780" cy="180" r="9.436"/><circle cx="1820" cy="180" r="15.702"/><circle cx="1860" cy="180" r="18.429"/><circle cx="1900" cy="180" r="17.191"/><circle cx="1940" cy="180" r="15.652"/><circle cx="1980" cy="180" r="18.431"/><circle cx="2020" cy="180" r="18.431"/><circle cx="2060" cy="180" r="18.431"/><circle cx="2100" cy="180" r="18.431"/><circle cx="2140" cy="180" r="18.431"/><circle cx="2180" cy="180" r="18.431"/><circle cx="2220" cy="180" r="18.431"/><circle cx="2260" cy="180" r="18.431"/><circle cx="2300" cy="180" r="18.431"/><circle cx="2340" cy="180" r="18.431"/><circle cx="2380" cy="180" r="18.431"/><circle cx="2420" cy="180" r="18.431"/><circle cx="2460" cy="180" r="18.431"/><circle cx="2500" cy="180" r="18.385"/><circle cx="2540" cy="180" r="16.608"/><circle cx="2580" cy="180" r="6.041"/><circle cx="1660" cy="220" r="4.627"/><circle cx="1700" cy="220" r="13.811"/><circle cx="1740" cy="220" r="18.334"/><circle cx="1780" cy="220" r="18.431"/><circle cx="1820" cy="220" r="18.431"/><circle cx="1860" cy="220" r="18.431"/><circle cx="1900" cy="220" r="18.431"/><circle cx="1940" cy="220" r="18.431"/><circle cx="1980" cy="220" r="18.431"/><circle cx="2020" cy="220" r="18.431"/><circle cx="2060" cy="220" r="18.431"/><circle cx="2100" cy="220" r="18.431"/><circle cx="2140" cy="220" r="18.431"/><circle cx="2180" cy="220" r="18.431"/><circle cx="2220" cy="220" r="18.431"/><circle cx="2260" cy="220" r="18.431"/><circle cx="2300" cy="220" r="18.431"/><circle cx="2340" cy="220" r="18.431"/><circle cx="2380" cy="220" r="18.431"/><circle cx="2420" cy="220" r="18.431"/><circle cx="2460" cy="220" r="18.431"/><circle cx="2500" cy="220" r="11.907"/><circle cx="2540" cy="220" r="1.231"/><circle cx="1460" cy="260" r="1.264"/><circle cx="1500" cy="260" r="8.029"/><circle cx="1540" cy="260" r="13.254"/><circle cx="1620" cy="260" r="8.317"/><circle cx="1660" cy="260" r="18.306"/><circle cx="1700" cy="260" r="18.431"/><circle cx="1740" cy="260" r="18.431"/><circle cx="1780" cy="260" r="18.431"/><circle cx="1820" cy="260" r="18.431"/><circle cx="1860" cy="260" r="18.431"/><circle cx="1900" cy="260" r="18.431"/><circle cx="1940" cy="260" r="18.431"/><circle cx="1980" cy="260" r="18.431"/><circle cx="2020" cy="260" r="18.431"/><circle cx="2060" cy="260" r="18.431"/><circle cx="2100" cy="260" r="18.431"/><circle cx="2140" cy="260" r="18.431"/><circle cx="2180" cy="260" r="18.431"/><circle cx="2220" cy="260" r="18.431"/><circle cx="2260" cy="260" r="18.431"/><circle cx="2300" cy="260" r="18.431"/><circle cx="2340" cy="260" r="18.381"/><circle cx="2380" cy="260" r="16.705"/><circle cx="2420" cy="260" r="12.695"/><circle cx="2460" cy="260" r="5.041"/><circle cx="1380" cy="300" r="1.536"/><circle cx="1420" cy="300" r="10.376"/><circle cx="1460" cy="300" r="17.613"/><circle cx="1500" cy="300" r="18.431"/><circle cx="1540" cy="300" r="12.708"/><circle cx="1580" cy="300" r="7.786"/><circle cx="1620" cy="300" r="18.394"/><circle cx="1660" cy="300" r="18.431"/><circle cx="1700" cy="300" r="18.431"/><circle cx="1740" cy="300" r="18.431"/><circle cx="1780" cy="300" r="18.431"/><circle cx="1820" cy="300" r="18.431"/><circle cx="1860" cy="300" r="18.431"/><circle cx="1900" cy="300" r="18.431"/><circle cx="1940" cy="300" r="18.431"/><circle cx="1980" cy="300" r="18.431"/><circle cx="2020" cy="300" r="18.431"/><circle cx="2060" cy="300" r="18.431"/><circle cx="2100" cy="300" r="18.431"/><circle cx="2140" cy="300" r="18.431"/><circle cx="2180" cy="300" r="18.431"/><circle cx="2220" cy="300" r="16.971"/><circle cx="2260" cy="300" r="15.597"/><circle cx="2300" cy="300" r="14.869"/><circle cx="2340" cy="300" r="14.552"/><circle cx="2380" cy="300" r="11.384"/><circle cx="2420" cy="300" r="1.432"/><circle cx="1300" cy="340" r="1.664"/><circle cx="1340" cy="340" r="5.778"/><circle cx="1380" cy="340" r="15.448"/><circle cx="1420" cy="340" r="18.431"/><circle cx="1460" cy="340" r="18.431"/><circle cx="1500" cy="340" r="18.398"/><circle cx="1540" cy="340" r="10.17"/><circle cx="1580" cy="340" r="18.255"/><circle cx="1620" cy="340" r="18.431"/><circle cx="1660" cy="340" r="18.431"/><circle cx="1700" cy="340" r="18.431"/><circle cx="1740" cy="340" r="18.431"/><circle cx="1780" cy="340" r="18.431"/><circle cx="1820" cy="340" r="18.431"/><circle cx="1860" cy="340" r="18.431"/><circle cx="1900" cy="340" r="18.431"/><circle cx="1940" cy="340" r="18.431"/><circle cx="1980" cy="340" r="18.431"/><circle cx="2020" cy="340" r="18.431"/><circle cx="2060" cy="340" r="18.431"/><circle cx="2100" cy="340" r="18.431"/><circle cx="2140" cy="340" r="18.431"/><circle cx="2180" cy="340" r="18.431"/><circle cx="2220" cy="340" r="18.431"/><circle cx="2260" cy="340" r="18.431"/><circle cx="2300" cy="340" r="18.119"/><circle cx="2340" cy="340" r="9.397"/><circle cx="1260" cy="380" r="7.099"/><circle cx="1300" cy="380" r="17.14"/><circle cx="1340" cy="380" r="13.275"/><circle cx="1380" cy="380" r="18.431"/><circle cx="1420" cy="380" r="18.431"/><circle cx="1460" cy="380" r="18.431"/><circle cx="1500" cy="380" r="17.369"/><circle cx="1540" cy="380" r="17.638"/><circle cx="1580" cy="380" r="18.431"/><circle cx="1620" cy="380" r="18.431"/><circle cx="1660" cy="380" r="18.431"/><circle cx="1700" cy="380" r="14.656"/><circle cx="1740" cy="380" r="10.716"/><circle cx="1780" cy="380" r="18.431"/><circle cx="1820" cy="380" r="18.431"/><circle cx="1860" cy="380" r="18.431"/><circle cx="1900" cy="380" r="18.431"/><circle cx="1940" cy="380" r="18.431"/><circle cx="1980" cy="380" r="18.431"/><circle cx="2020" cy="380" r="18.431"/><circle cx="2060" cy="380" r="18.431"/><circle cx="2100" cy="380" r="18.431"/><circle cx="2140" cy="380" r="18.431"/><circle cx="2180" cy="380" r="18.431"/><circle cx="2220" cy="380" r="18.431"/><circle cx="2260" cy="380" r="15.216"/><circle cx="2300" cy="380" r="3.697"/><circle cx="1180" cy="420" r="2.564"/><circle cx="1220" cy="420" r="13.584"/><circle cx="1260" cy="420" r="18.431"/><circle cx="1300" cy="420" r="18.286"/><circle cx="1340" cy="420" r="17.934"/><circle cx="1380" cy="420" r="18.431"/><circle cx="1420" cy="420" r="18.431"/><circle cx="1460" cy="420" r="18.431"/><circle cx="1500" cy="420" r="18.431"/><circle cx="1540" cy="420" r="18.431"/><circle cx="1580" cy="420" r="18.431"/><circle cx="1620" cy="420" r="15.328"/><circle cx="1660" cy="420" r="7.977"/><circle cx="1700" cy="420" r="11.194"/><circle cx="1740" cy="420" r="17.993"/><circle cx="1780" cy="420" r="18.431"/><circle cx="1820" cy="420" r="18.431"/><circle cx="1860" cy="420" r="18.431"/><circle cx="1900" cy="420" r="18.431"/><circle cx="1940" cy="420" r="18.431"/><circle cx="1980" cy="420" r="18.431"/><circle cx="2020" cy="420" r="18.431"/><circle cx="2060" cy="420" r="18.431"/><circle cx="2100" cy="420" r="18.431"/><circle cx="2140" cy="420" r="18.431"/><circle cx="2180" cy="420" r="18.008"/><circle cx="2220" cy="420" r="9.573"/><circle cx="1140" cy="460" r="8.124"/><circle cx="1180" cy="460" r="17.655"/><circle cx="1220" cy="460" r="18.431"/><circle cx="1260" cy="460" r="18.431"/><circle cx="1300" cy="460" r="18.431"/><circle cx="1340" cy="460" r="18.431"/><circle cx="1380" cy="460" r="18.431"/><circle cx="1420" cy="460" r="18.431"/><circle cx="1460" cy="460" r="18.431"/><circle cx="1500" cy="460" r="18.431"/><circle cx="1540" cy="460" r="16.974"/><circle cx="1580" cy="460" r="8.932"/><circle cx="1620" cy="460" r="10.688"/><circle cx="1660" cy="460" r="17.931"/><circle cx="1700" cy="460" r="18.431"/><circle cx="1740" cy="460" r="18.431"/><circle cx="1780" cy="460" r="18.431"/><circle cx="1820" cy="460" r="18.431"/><circle cx="1860" cy="460" r="18.431"/><circle cx="1900" cy="460" r="18.431"/><circle cx="1940" cy="460" r="18.431"/><circle cx="1980" cy="460" r="18.362"/><circle cx="2020" cy="460" r="17.337"/><circle cx="2060" cy="460" r="15.641"/><circle cx="2100" cy="460" r="13.564"/><circle cx="2140" cy="460" r="10.247"/><circle cx="2180" cy="460" r="2.817"/><circle cx="1060" cy="500" r="1.055"/><circle cx="1100" cy="500" r="13.874"/><circle cx="1140" cy="500" r="18.431"/><circle cx="1180" cy="500" r="18.431"/><circle cx="1220" cy="500" r="18.431"/><circle cx="1260" cy="500" r="18.431"/><circle cx="1300" cy="500" r="18.431"/><circle cx="1340" cy="500" r="18.431"/><circle cx="1380" cy="500" r="18.431"/><circle cx="1420" cy="500" r="18.431"/><circle cx="1460" cy="500" r="18.336"/><circle cx="1500" cy="500" r="11.54"/><circle cx="1540" cy="500" r="9.32"/><circle cx="1580" cy="500" r="17.219"/><circle cx="1620" cy="500" r="18.431"/><circle cx="1660" cy="500" r="18.431"/><circle cx="1700" cy="500" r="18.431"/><circle cx="1740" cy="500" r="18.431"/><circle cx="1780" cy="500" r="18.431"/><circle cx="1820" cy="500" r="18.431"/><circle cx="1860" cy="500" r="18.431"/><circle cx="1900" cy="500" r="18.431"/><circle cx="1940" cy="500" r="18.431"/><circle cx="1980" cy="500" r="17.298"/><circle cx="2020" cy="500" r="16.684"/><circle cx="2060" cy="500" r="11.298"/><circle cx="2100" cy="500" r="1.209"/><circle cx="980" cy="540" r=".692"/><circle cx="1020" cy="540" r="6.515"/><circle cx="1060" cy="540" r="10.976"/><circle cx="1100" cy="540" r="18.431"/><circle cx="1140" cy="540" r="18.431"/><circle cx="1180" cy="540" r="18.431"/><circle cx="1220" cy="540" r="18.431"/><circle cx="1260" cy="540" r="18.431"/><circle cx="1300" cy="540" r="18.431"/><circle cx="1340" cy="540" r="18.431"/><circle cx="1380" cy="540" r="18.431"/><circle cx="1420" cy="540" r="16.081"/><circle cx="1460" cy="540" r="8.303"/><circle cx="1500" cy="540" r="14.811"/><circle cx="1540" cy="540" r="18.431"/><circle cx="1580" cy="540" r="18.431"/><circle cx="1620" cy="540" r="18.431"/><circle cx="1660" cy="540" r="18.431"/><circle cx="1700" cy="540" r="18.431"/><circle cx="1740" cy="540" r="18.431"/><circle cx="1780" cy="540" r="18.431"/><circle cx="1820" cy="540" r="18.431"/><circle cx="1860" cy="540" r="18.431"/><circle cx="1900" cy="540" r="18.431"/><circle cx="1940" cy="540" r="18.431"/><circle cx="1980" cy="540" r="16.844"/><circle cx="2020" cy="540" r="6.225"/><circle cx="940" cy="580" r="4.494"/><circle cx="980" cy="580" r="15.745"/><circle cx="1020" cy="580" r="9.977"/><circle cx="1060" cy="580" r="18.041"/><circle cx="1100" cy="580" r="18.431"/><circle cx="1140" cy="580" r="18.431"/><circle cx="1180" cy="580" r="18.431"/><circle cx="1220" cy="580" r="18.431"/><circle cx="1260" cy="580" r="18.431"/><circle cx="1300" cy="580" r="18.431"/><circle cx="1340" cy="580" r="18.408"/><circle cx="1380" cy="580" r="11.74"/><circle cx="1420" cy="580" r="9.865"/><circle cx="1460" cy="580" r="18.019"/><circle cx="1500" cy="580" r="18.431"/><circle cx="1540" cy="580" r="18.431"/><circle cx="1580" cy="580" r="18.431"/><circle cx="1620" cy="580" r="18.431"/><circle cx="1660" cy="580" r="18.431"/><circle cx="1700" cy="580" r="18.431"/><circle cx="1740" cy="580" r="18.431"/><circle cx="1780" cy="580" r="18.431"/><circle cx="1820" cy="580" r="18.431"/><circle cx="1860" cy="580" r="18.431"/><circle cx="1900" cy="580" r="18.418"/><circle cx="1940" cy="580" r="12.157"/><circle cx="1980" cy="580" r="1.48"/><circle cx="860" cy="620" r=".793"/><circle cx="900" cy="620" r="10.581"/><circle cx="940" cy="620" r="18.281"/><circle cx="980" cy="620" r="17.998"/><circle cx="1020" cy="620" r="12.42"/><circle cx="1060" cy="620" r="18.431"/><circle cx="1100" cy="620" r="18.431"/><circle cx="1140" cy="620" r="18.431"/><circle cx="1180" cy="620" r="18.431"/><circle cx="1220" cy="620" r="18.431"/><circle cx="1260" cy="620" r="18.431"/><circle cx="1300" cy="620" r="17.431"/><circle cx="1340" cy="620" r="8.407"/><circle cx="1380" cy="620" r="13.9"/><circle cx="1420" cy="620" r="18.431"/><circle cx="1460" cy="620" r="18.431"/><circle cx="1500" cy="620" r="18.431"/><circle cx="1540" cy="620" r="18.431"/><circle cx="1580" cy="620" r="18.431"/><circle cx="1620" cy="620" r="18.431"/><circle cx="1660" cy="620" r="18.431"/><circle cx="1700" cy="620" r="18.431"/><circle cx="1740" cy="620" r="18.431"/><circle cx="1780" cy="620" r="18.431"/><circle cx="1820" cy="620" r="18.431"/><circle cx="1860" cy="620" r="16.602"/><circle cx="1900" cy="620" r="5.742"/><circle cx="820" cy="660" r="4.11"/><circle cx="860" cy="660" r="15.77"/><circle cx="900" cy="660" r="18.431"/><circle cx="940" cy="660" r="18.431"/><circle cx="980" cy="660" r="14.86"/><circle cx="1020" cy="660" r="18.047"/><circle cx="1060" cy="660" r="18.431"/><circle cx="1100" cy="660" r="18.431"/><circle cx="1140" cy="660" r="18.431"/><circle cx="1180" cy="660" r="18.431"/><circle cx="1220" cy="660" r="18.431"/><circle cx="1260" cy="660" r="15.069"/><circle cx="1300" cy="660" r="7.704"/><circle cx="1340" cy="660" r="16.897"/><circle cx="1380" cy="660" r="18.431"/><circle cx="1420" cy="660" r="18.431"/><circle cx="1460" cy="660" r="18.431"/><circle cx="1500" cy="660" r="18.431"/><circle cx="1540" cy="660" r="18.431"/><circle cx="1580" cy="660" r="18.431"/><circle cx="1620" cy="660" r="18.431"/><circle cx="1660" cy="660" r="18.431"/><circle cx="1700" cy="660" r="18.431"/><circle cx="1740" cy="660" r="18.431"/><circle cx="1780" cy="660" r="18.325"/><circle cx="1820" cy="660" r="10.997"/><circle cx="1860" cy="660" r="1.191"/><circle cx="780" cy="700" r="8.75"/><circle cx="820" cy="700" r="18.125"/><circle cx="860" cy="700" r="18.431"/><circle cx="900" cy="700" r="18.431"/><circle cx="940" cy="700" r="18.431"/><circle cx="980" cy="700" r="15.465"/><circle cx="1020" cy="700" r="18.431"/><circle cx="1060" cy="700" r="18.431"/><circle cx="1100" cy="700" r="18.431"/><circle cx="1140" cy="700" r="18.431"/><circle cx="1180" cy="700" r="18.428"/><circle cx="1220" cy="700" r="11.832"/><circle cx="1260" cy="700" r="9.347"/><circle cx="1300" cy="700" r="18.208"/><circle cx="1340" cy="700" r="18.431"/><circle cx="1380" cy="700" r="18.431"/><circle cx="1420" cy="700" r="18.431"/><circle cx="1460" cy="700" r="18.431"/><circle cx="1500" cy="700" r="18.431"/><circle cx="1540" cy="700" r="18.431"/><circle cx="1580" cy="700" r="17.043"/><circle cx="1620" cy="700" r="15.013"/><circle cx="1660" cy="700" r="13.611"/><circle cx="1700" cy="700" r="11.211"/><circle cx="1740" cy="700" r="5.902"/><circle cx="1780" cy="700" r="3.067"/><circle cx="740" cy="740" r="8.092"/><circle cx="780" cy="740" r="18.431"/><circle cx="820" cy="740" r="18.431"/><circle cx="860" cy="740" r="18.431"/><circle cx="900" cy="740" r="18.431"/><circle cx="940" cy="740" r="18.268"/><circle cx="980" cy="740" r="17.316"/><circle cx="1020" cy="740" r="18.431"/><circle cx="1060" cy="740" r="18.431"/><circle cx="1100" cy="740" r="18.431"/><circle cx="1140" cy="740" r="18.124"/><circle cx="1180" cy="740" r="8.757"/><circle cx="1220" cy="740" r="12.071"/><circle cx="1260" cy="740" r="18.431"/><circle cx="1300" cy="740" r="18.431"/><circle cx="1340" cy="740" r="18.431"/><circle cx="1380" cy="740" r="18.431"/><circle cx="1420" cy="740" r="18.431"/><circle cx="1460" cy="740" r="18.431"/><circle cx="1500" cy="740" r="18.431"/><circle cx="1540" cy="740" r="18.431"/><circle cx="1580" cy="740" r="18.431"/><circle cx="1620" cy="740" r="18.431"/><circle cx="1660" cy="740" r="18.431"/><circle cx="1700" cy="740" r="14.951"/><circle cx="1740" cy="740" r="1.465"/><circle cx="620" cy="780" r="1.525"/><circle cx="660" cy="780" r="9.177"/><circle cx="700" cy="780" r=".778"/><circle cx="740" cy="780" r="15.489"/><circle cx="780" cy="780" r="18.431"/><circle cx="820" cy="780" r="18.431"/><circle cx="860" cy="780" r="18.431"/><circle cx="900" cy="780" r="18.431"/><circle cx="940" cy="780" r="18.431"/><circle cx="980" cy="780" r="18.431"/><circle cx="1020" cy="780" r="18.431"/><circle cx="1060" cy="780" r="18.431"/><circle cx="1100" cy="780" r="17.094"/><circle cx="1140" cy="780" r="6.679"/><circle cx="1180" cy="780" r="14.551"/><circle cx="1220" cy="780" r="18.431"/><circle cx="1260" cy="780" r="18.431"/><circle cx="1300" cy="780" r="18.431"/><circle cx="1340" cy="780" r="18.431"/><circle cx="1380" cy="780" r="18.431"/><circle cx="1420" cy="780" r="18.431"/><circle cx="1460" cy="780" r="18.431"/><circle cx="1500" cy="780" r="18.431"/><circle cx="1540" cy="780" r="18.431"/><circle cx="1580" cy="780" r="18.431"/><circle cx="1620" cy="780" r="18.431"/><circle cx="1660" cy="780" r="13.355"/><circle cx="1700" cy="780" r="1.078"/><circle cx="580" cy="820" r="3.964"/><circle cx="620" cy="820" r="16.339"/><circle cx="660" cy="820" r="18.431"/><circle cx="700" cy="820" r="6.759"/><circle cx="740" cy="820" r="18.325"/><circle cx="780" cy="820" r="18.431"/><circle cx="820" cy="820" r="18.431"/><circle cx="860" cy="820" r="18.431"/><circle cx="900" cy="820" r="18.431"/><circle cx="940" cy="820" r="18.431"/><circle cx="980" cy="820" r="18.431"/><circle cx="1020" cy="820" r="18.431"/><circle cx="1060" cy="820" r="15.407"/><circle cx="1100" cy="820" r="5.887"/><circle cx="1140" cy="820" r="16.268"/><circle cx="1180" cy="820" r="18.431"/><circle cx="1220" cy="820" r="18.431"/><circle cx="1260" cy="820" r="18.431"/><circle cx="1300" cy="820" r="18.431"/><circle cx="1340" cy="820" r="18.431"/><circle cx="1380" cy="820" r="18.431"/><circle cx="1420" cy="820" r="18.431"/><circle cx="1460" cy="820" r="18.431"/><circle cx="1500" cy="820" r="18.431"/><circle cx="1540" cy="820" r="18.431"/><circle cx="1580" cy="820" r="18.377"/><circle cx="1620" cy="820" r="10.199"/><circle cx="540" cy="860" r="4.77"/><circle cx="580" cy="860" r="17.719"/><circle cx="620" cy="860" r="18.431"/><circle cx="660" cy="860" r="18.431"/><circle cx="700" cy="860" r="11.43"/><circle cx="740" cy="860" r="18.431"/><circle cx="780" cy="860" r="18.431"/><circle cx="820" cy="860" r="18.431"/><circle cx="860" cy="860" r="18.431"/><circle cx="900" cy="860" r="18.431"/><circle cx="940" cy="860" r="18.431"/><circle cx="980" cy="860" r="18.431"/><circle cx="1020" cy="860" r="13.179"/><circle cx="1060" cy="860" r="6.123"/><circle cx="1100" cy="860" r="17.384"/><circle cx="1140" cy="860" r="18.431"/><circle cx="1180" cy="860" r="18.431"/><circle cx="1220" cy="860" r="18.431"/><circle cx="1260" cy="860" r="18.431"/><circle cx="1300" cy="860" r="18.431"/><circle cx="1340" cy="860" r="18.431"/><circle cx="1380" cy="860" r="18.431"/><circle cx="1420" cy="860" r="18.282"/><circle cx="1460" cy="860" r="14.324"/><circle cx="1500" cy="860" r="13.337"/><circle cx="1540" cy="860" r="12.597"/><circle cx="1580" cy="860" r="5.665"/><circle cx="500" cy="900" r="4.9"/><circle cx="540" cy="900" r="17.683"/><circle cx="580" cy="900" r="18.431"/><circle cx="620" cy="900" r="18.431"/><circle cx="660" cy="900" r="18.431"/><circle cx="700" cy="900" r="15.242"/><circle cx="740" cy="900" r="18.431"/><circle cx="780" cy="900" r="18.431"/><circle cx="820" cy="900" r="18.431"/><circle cx="860" cy="900" r="18.431"/><circle cx="900" cy="900" r="18.431"/><circle cx="940" cy="900" r="18.431"/><circle cx="980" cy="900" r="12.164"/><circle cx="1020" cy="900" r="6.656"/><circle cx="1060" cy="900" r="18.054"/><circle cx="1100" cy="900" r="18.431"/><circle cx="1140" cy="900" r="18.431"/><circle cx="1180" cy="900" r="18.431"/><circle cx="1220" cy="900" r="18.431"/><circle cx="1260" cy="900" r="18.431"/><circle cx="1300" cy="900" r="18.431"/><circle cx="1340" cy="900" r="18.431"/><circle cx="1380" cy="900" r="18.431"/><circle cx="1420" cy="900" r="18.431"/><circle cx="1460" cy="900" r="16.928"/><circle cx="1500" cy="900" r="7.15"/><circle cx="460" cy="940" r="4.341"/><circle cx="500" cy="940" r="17.685"/><circle cx="540" cy="940" r="18.431"/><circle cx="580" cy="940" r="18.431"/><circle cx="620" cy="940" r="18.431"/><circle cx="660" cy="940" r="18.431"/><circle cx="700" cy="940" r="18.43"/><circle cx="740" cy="940" r="18.431"/><circle cx="780" cy="940" r="18.431"/><circle cx="820" cy="940" r="18.431"/><circle cx="860" cy="940" r="18.431"/><circle cx="900" cy="940" r="18.431"/><circle cx="940" cy="940" r="11.855"/><circle cx="980" cy="940" r="6.763"/><circle cx="1020" cy="940" r="18.134"/><circle cx="1060" cy="940" r="18.431"/><circle cx="1100" cy="940" r="18.431"/><circle cx="1140" cy="940" r="18.431"/><circle cx="1180" cy="940" r="18.431"/><circle cx="1220" cy="940" r="18.431"/><circle cx="1260" cy="940" r="18.431"/><circle cx="1300" cy="940" r="18.431"/><circle cx="1340" cy="940" r="18.431"/><circle cx="1380" cy="940" r="18.431"/><circle cx="1420" cy="940" r="18.431"/><circle cx="1460" cy="940" r="12.598"/><circle cx="1500" cy="940" r=".884"/><circle cx="460" cy="980" r="12.578"/><circle cx="500" cy="980" r="18.431"/><circle cx="540" cy="980" r="18.431"/><circle cx="580" cy="980" r="18.431"/><circle cx="620" cy="980" r="18.431"/><circle cx="660" cy="980" r="18.431"/><circle cx="700" cy="980" r="18.431"/><circle cx="740" cy="980" r="18.431"/><circle cx="780" cy="980" r="18.431"/><circle cx="820" cy="980" r="18.431"/><circle cx="860" cy="980" r="18.431"/><circle cx="900" cy="980" r="11.851"/><circle cx="940" cy="980" r="6.841"/><circle cx="980" cy="980" r="18.193"/><circle cx="1020" cy="980" r="18.431"/><circle cx="1060" cy="980" r="18.431"/><circle cx="1100" cy="980" r="18.431"/><circle cx="1140" cy="980" r="18.431"/><circle cx="1180" cy="980" r="18.431"/><circle cx="1220" cy="980" r="18.431"/><circle cx="1260" cy="980" r="18.431"/><circle cx="1300" cy="980" r="18.431"/><circle cx="1340" cy="980" r="18.431"/><circle cx="1380" cy="980" r="18.426"/><circle cx="1420" cy="980" r="10.266"/><circle cx="420" cy="1020" r="7.287"/><circle cx="460" cy="1020" r="13.936"/><circle cx="500" cy="1020" r="18.431"/><circle cx="540" cy="1020" r="18.431"/><circle cx="580" cy="1020" r="18.431"/><circle cx="620" cy="1020" r="18.431"/><circle cx="660" cy="1020" r="18.431"/><circle cx="700" cy="1020" r="18.431"/><circle cx="740" cy="1020" r="18.431"/><circle cx="780" cy="1020" r="18.431"/><circle cx="820" cy="1020" r="18.431"/><circle cx="860" cy="1020" r="11.878"/><circle cx="900" cy="1020" r="6.844"/><circle cx="940" cy="1020" r="18.194"/><circle cx="980" cy="1020" r="18.431"/><circle cx="1020" cy="1020" r="18.431"/><circle cx="1060" cy="1020" r="18.431"/><circle cx="1100" cy="1020" r="18.431"/><circle cx="1140" cy="1020" r="18.431"/><circle cx="1180" cy="1020" r="18.431"/><circle cx="1220" cy="1020" r="18.431"/><circle cx="1260" cy="1020" r="18.431"/><circle cx="1300" cy="1020" r="18.271"/><circle cx="1340" cy="1020" r="17.293"/><circle cx="1380" cy="1020" r="8.199"/><circle cx="380" cy="1060" r="3.506"/><circle cx="420" cy="1060" r="12.69"/><circle cx="460" cy="1060" r="14.57"/><circle cx="500" cy="1060" r="18.431"/><circle cx="540" cy="1060" r="18.431"/><circle cx="580" cy="1060" r="18.431"/><circle cx="620" cy="1060" r="18.431"/><circle cx="660" cy="1060" r="18.431"/><circle cx="700" cy="1060" r="18.431"/><circle cx="740" cy="1060" r="18.431"/><circle cx="780" cy="1060" r="18.431"/><circle cx="820" cy="1060" r="12.294"/><circle cx="860" cy="1060" r="6.909"/><circle cx="900" cy="1060" r="18.199"/><circle cx="940" cy="1060" r="18.431"/><circle cx="980" cy="1060" r="18.431"/><circle cx="1020" cy="1060" r="18.431"/><circle cx="1060" cy="1060" r="18.431"/><circle cx="1100" cy="1060" r="18.292"/><circle cx="1140" cy="1060" r="15.434"/><circle cx="1180" cy="1060" r="13.487"/><circle cx="1220" cy="1060" r="11.882"/><circle cx="1260" cy="1060" r="9.926"/><circle cx="1300" cy="1060" r="7.353"/><circle cx="380" cy="1100" r="7.427"/><circle cx="420" cy="1100" r="15.426"/><circle cx="460" cy="1100" r="15.113"/><circle cx="500" cy="1100" r="18.431"/><circle cx="540" cy="1100" r="18.431"/><circle cx="580" cy="1100" r="18.431"/><circle cx="620" cy="1100" r="18.431"/><circle cx="660" cy="1100" r="18.431"/><circle cx="700" cy="1100" r="18.431"/><circle cx="740" cy="1100" r="18.431"/><circle cx="780" cy="1100" r="12.931"/><circle cx="820" cy="1100" r="6.66"/><circle cx="860" cy="1100" r="18.189"/><circle cx="900" cy="1100" r="18.431"/><circle cx="940" cy="1100" r="18.431"/><circle cx="980" cy="1100" r="18.431"/><circle cx="1020" cy="1100" r="18.431"/><circle cx="1060" cy="1100" r="18.431"/><circle cx="1100" cy="1100" r="18.431"/><circle cx="1140" cy="1100" r="18.431"/><circle cx="1180" cy="1100" r="18.431"/><circle cx="1220" cy="1100" r="18.431"/><circle cx="1260" cy="1100" r="18.384"/><circle cx="1300" cy="1100" r="7.079"/><circle cx="380" cy="1140" r="10.348"/><circle cx="420" cy="1140" r="18.168"/><circle cx="460" cy="1140" r="16.832"/><circle cx="500" cy="1140" r="18.431"/><circle cx="540" cy="1140" r="18.431"/><circle cx="580" cy="1140" r="18.431"/><circle cx="620" cy="1140" r="18.431"/><circle cx="660" cy="1140" r="18.431"/><circle cx="700" cy="1140" r="18.431"/><circle cx="740" cy="1140" r="13.765"/><circle cx="780" cy="1140" r="6.291"/><circle cx="820" cy="1140" r="18.067"/><circle cx="860" cy="1140" r="18.431"/><circle cx="900" cy="1140" r="18.431"/><circle cx="940" cy="1140" r="18.431"/><circle cx="980" cy="1140" r="18.431"/><circle cx="1020" cy="1140" r="18.431"/><circle cx="1060" cy="1140" r="18.431"/><circle cx="1100" cy="1140" r="18.431"/><circle cx="1140" cy="1140" r="18.431"/><circle cx="1180" cy="1140" r="18.431"/><circle cx="1220" cy="1140" r="18.425"/><circle cx="1260" cy="1140" r="9.031"/><circle cx="380" cy="1180" r="12.624"/><circle cx="420" cy="1180" r="18.431"/><circle cx="460" cy="1180" r="18.431"/><circle cx="500" cy="1180" r="18.431"/><circle cx="540" cy="1180" r="18.431"/><circle cx="580" cy="1180" r="18.431"/><circle cx="620" cy="1180" r="18.431"/><circle cx="660" cy="1180" r="18.431"/><circle cx="700" cy="1180" r="14.713"/><circle cx="740" cy="1180" r="5.789"/><circle cx="780" cy="1180" r="17.852"/><circle cx="820" cy="1180" r="18.431"/><circle cx="860" cy="1180" r="18.431"/><circle cx="900" cy="1180" r="18.431"/><circle cx="940" cy="1180" r="18.431"/><circle cx="980" cy="1180" r="18.431"/><circle cx="1020" cy="1180" r="18.431"/><circle cx="1060" cy="1180" r="18.431"/><circle cx="1100" cy="1180" r="18.431"/><circle cx="1140" cy="1180" r="18.379"/><circle cx="1180" cy="1180" r="15.939"/><circle cx="1220" cy="1180" r="7.258"/><circle cx="380" cy="1220" r="14.281"/><circle cx="420" cy="1220" r="18.431"/><circle cx="460" cy="1220" r="18.431"/><circle cx="500" cy="1220" r="18.431"/><circle cx="540" cy="1220" r="18.431"/><circle cx="580" cy="1220" r="18.431"/><circle cx="620" cy="1220" r="18.431"/><circle cx="660" cy="1220" r="15.758"/><circle cx="700" cy="1220" r="5.261"/><circle cx="740" cy="1220" r="17.46"/><circle cx="780" cy="1220" r="18.431"/><circle cx="820" cy="1220" r="18.431"/><circle cx="860" cy="1220" r="18.431"/><circle cx="900" cy="1220" r="18.431"/><circle cx="940" cy="1220" r="17.834"/><circle cx="980" cy="1220" r="15.2"/><circle cx="1020" cy="1220" r="12.987"/><circle cx="1060" cy="1220" r="10.668"/><circle cx="1100" cy="1220" r="8.812"/><circle cx="1140" cy="1220" r="7.198"/><circle cx="1180" cy="1220" r=".573"/><circle cx="380" cy="1260" r="15.418"/><circle cx="420" cy="1260" r="18.431"/><circle cx="460" cy="1260" r="18.431"/><circle cx="500" cy="1260" r="18.431"/><circle cx="540" cy="1260" r="18.431"/><circle cx="580" cy="1260" r="18.431"/><circle cx="620" cy="1260" r="16.768"/><circle cx="660" cy="1260" r="4.889"/><circle cx="700" cy="1260" r="16.718"/><circle cx="740" cy="1260" r="18.431"/><circle cx="780" cy="1260" r="18.431"/><circle cx="820" cy="1260" r="18.431"/><circle cx="860" cy="1260" r="18.431"/><circle cx="900" cy="1260" r="17.309"/><circle cx="940" cy="1260" r="15.469"/><circle cx="980" cy="1260" r="17.041"/><circle cx="1020" cy="1260" r="18.323"/><circle cx="1060" cy="1260" r="18.431"/><circle cx="1100" cy="1260" r="18.419"/><circle cx="1140" cy="1260" r="8.476"/><circle cx="380" cy="1300" r="15.915"/><circle cx="420" cy="1300" r="18.431"/><circle cx="460" cy="1300" r="18.431"/><circle cx="500" cy="1300" r="18.431"/><circle cx="540" cy="1300" r="18.431"/><circle cx="580" cy="1300" r="17.639"/><circle cx="620" cy="1300" r="4.964"/><circle cx="660" cy="1300" r="15.423"/><circle cx="700" cy="1300" r="18.431"/><circle cx="740" cy="1300" r="18.431"/><circle cx="780" cy="1300" r="18.431"/><circle cx="820" cy="1300" r="18.431"/><circle cx="860" cy="1300" r="18.431"/><circle cx="900" cy="1300" r="18.431"/><circle cx="940" cy="1300" r="18.431"/><circle cx="980" cy="1300" r="18.431"/><circle cx="1020" cy="1300" r="18.431"/><circle cx="1060" cy="1300" r="18.431"/><circle cx="1100" cy="1300" r="9.671"/><circle cx="380" cy="1340" r="14.188"/><circle cx="420" cy="1340" r="18.431"/><circle cx="460" cy="1340" r="18.431"/><circle cx="500" cy="1340" r="18.431"/><circle cx="540" cy="1340" r="18.238"/><circle cx="580" cy="1340" r="5.956"/><circle cx="620" cy="1340" r="13.217"/><circle cx="660" cy="1340" r="18.431"/><circle cx="700" cy="1340" r="18.431"/><circle cx="740" cy="1340" r="18.431"/><circle cx="780" cy="1340" r="18.431"/><circle cx="820" cy="1340" r="18.431"/><circle cx="860" cy="1340" r="18.431"/><circle cx="900" cy="1340" r="18.431"/><circle cx="940" cy="1340" r="18.431"/><circle cx="980" cy="1340" r="18.431"/><circle cx="1020" cy="1340" r="18.431"/><circle cx="1060" cy="1340" r="10.919"/><circle cx="380" cy="1380" r="11.066"/><circle cx="420" cy="1380" r="18.431"/><circle cx="460" cy="1380" r="18.431"/><circle cx="500" cy="1380" r="18.431"/><circle cx="540" cy="1380" r="8.418"/><circle cx="580" cy="1380" r="9.767"/><circle cx="620" cy="1380" r="18.431"/><circle cx="660" cy="1380" r="18.431"/><circle cx="700" cy="1380" r="18.431"/><circle cx="740" cy="1380" r="18.431"/><circle cx="780" cy="1380" r="18.431"/><circle cx="820" cy="1380" r="18.431"/><circle cx="860" cy="1380" r="18.431"/><circle cx="900" cy="1380" r="18.431"/><circle cx="940" cy="1380" r="18.431"/><circle cx="980" cy="1380" r="18.431"/><circle cx="1020" cy="1380" r="12.107"/><circle cx="380" cy="1420" r="9.396"/><circle cx="420" cy="1420" r="18.431"/><circle cx="460" cy="1420" r="18.431"/><circle cx="500" cy="1420" r="16.431"/><circle cx="540" cy="1420" r="8.602"/><circle cx="580" cy="1420" r="18.331"/><circle cx="620" cy="1420" r="18.431"/><circle cx="660" cy="1420" r="18.431"/><circle cx="700" cy="1420" r="18.431"/><circle cx="740" cy="1420" r="18.431"/><circle cx="780" cy="1420" r="18.431"/><circle cx="820" cy="1420" r="18.431"/><circle cx="860" cy="1420" r="18.431"/><circle cx="900" cy="1420" r="18.431"/><circle cx="940" cy="1420" r="18.431"/><circle cx="980" cy="1420" r="13.548"/><circle cx="380" cy="1460" r="6.852"/><circle cx="420" cy="1460" r="18.431"/><circle cx="460" cy="1460" r="18.431"/><circle cx="500" cy="1460" r="18.431"/><circle cx="540" cy="1460" r="18.431"/><circle cx="580" cy="1460" r="18.431"/><circle cx="620" cy="1460" r="18.431"/><circle cx="660" cy="1460" r="18.431"/><circle cx="700" cy="1460" r="18.431"/><circle cx="740" cy="1460" r="18.431"/><circle cx="780" cy="1460" r="18.431"/><circle cx="820" cy="1460" r="18.431"/><circle cx="860" cy="1460" r="18.431"/><circle cx="900" cy="1460" r="18.214"/><circle cx="940" cy="1460" r="10.874"/><circle cx="980" cy="1460" r=".663"/><circle cx="380" cy="1500" r="3.516"/><circle cx="420" cy="1500" r="18.431"/><circle cx="460" cy="1500" r="18.431"/><circle cx="500" cy="1500" r="18.431"/><circle cx="540" cy="1500" r="18.431"/><circle cx="580" cy="1500" r="18.431"/><circle cx="620" cy="1500" r="18.431"/><circle cx="660" cy="1500" r="15.324"/><circle cx="700" cy="1500" r="11.105"/><circle cx="740" cy="1500" r="12.423"/><circle cx="780" cy="1500" r="13.885"/><circle cx="820" cy="1500" r="14.578"/><circle cx="860" cy="1500" r="10.313"/><circle cx="900" cy="1500" r="2.528"/><circle cx="380" cy="1540" r="8.576"/><circle cx="420" cy="1540" r="18.431"/><circle cx="460" cy="1540" r="18.431"/><circle cx="500" cy="1540" r="18.431"/><circle cx="540" cy="1540" r="18.431"/><circle cx="580" cy="1540" r="18.431"/><circle cx="620" cy="1540" r="18.282"/><circle cx="660" cy="1540" r="16.75"/><circle cx="700" cy="1540" r="13.96"/><circle cx="740" cy="1540" r="6.493"/><circle cx="340" cy="1580" r="2.247"/><circle cx="380" cy="1580" r="17.672"/><circle cx="420" cy="1580" r="18.431"/><circle cx="460" cy="1580" r="18.299"/><circle cx="500" cy="1580" r="6.493"/><circle cx="540" cy="1580" r="2.948"/><circle cx="580" cy="1580" r="1.384"/><circle cx="340" cy="1620" r="12.546"/><circle cx="380" cy="1620" r="18.431"/><circle cx="420" cy="1620" r="18.431"/><circle cx="460" cy="1620" r="10.418"/><circle cx="300" cy="1660" r="4.925"/><circle cx="340" cy="1660" r="18.412"/><circle cx="380" cy="1660" r="18.431"/><circle cx="420" cy="1660" r="15.814"/><circle cx="460" cy="1660" r=".789"/><circle cx="260" cy="1700" r="1.311"/><circle cx="300" cy="1700" r="15.911"/><circle cx="340" cy="1700" r="18.431"/><circle cx="380" cy="1700" r="18.316"/><circle cx="420" cy="1700" r="4.483"/><circle cx="220" cy="1740" r="4.279"/><circle cx="260" cy="1740" r="13.182"/><circle cx="300" cy="1740" r="18.431"/><circle cx="340" cy="1740" r="18.431"/><circle cx="380" cy="1740" r="12.838"/><circle cx="1460" cy="1740" r="1.306"/><circle cx="1500" cy="1740" r="4.348"/><circle cx="1540" cy="1740" r="6.729"/><circle cx="1580" cy="1740" r="7.889"/><circle cx="1620" cy="1740" r="8.804"/><circle cx="1660" cy="1740" r="8.097"/><circle cx="1700" cy="1740" r="7.408"/><circle cx="1740" cy="1740" r="5.649"/><circle cx="1780" cy="1740" r="2.795"/><circle cx="220" cy="1780" r="8.639"/><circle cx="260" cy="1780" r="18.431"/><circle cx="300" cy="1780" r="18.431"/><circle cx="340" cy="1780" r="18.431"/><circle cx="380" cy="1780" r="5.065"/><circle cx="1340" cy="1780" r="2.306"/><circle cx="1380" cy="1780" r="9.602"/><circle cx="1420" cy="1780" r="14.679"/><circle cx="1460" cy="1780" r="14.013"/><circle cx="1500" cy="1780" r="11.064"/><circle cx="1540" cy="1780" r="8.834"/><circle cx="1580" cy="1780" r="7.69"/><circle cx="1620" cy="1780" r="7.624"/><circle cx="1660" cy="1780" r="7.72"/><circle cx="1700" cy="1780" r="9.175"/><circle cx="1740" cy="1780" r="11.379"/><circle cx="1780" cy="1780" r="14.631"/><circle cx="1820" cy="1780" r="16.801"/><circle cx="1860" cy="1780" r="12.263"/><circle cx="1900" cy="1780" r="5.424"/><circle cx="180" cy="1820" r="2.741"/><circle cx="220" cy="1820" r="17.107"/><circle cx="260" cy="1820" r="18.431"/><circle cx="300" cy="1820" r="18.431"/><circle cx="340" cy="1820" r="18.038"/><circle cx="380" cy="1820" r="4.389"/><circle cx="1300" cy="1820" r="9.868"/><circle cx="1340" cy="1820" r="13.597"/><circle cx="1380" cy="1820" r="6.026"/><circle cx="1420" cy="1820" r=".656"/><circle cx="1820" cy="1820" r=".935"/><circle cx="1860" cy="1820" r="6.482"/><circle cx="1900" cy="1820" r="14.465"/><circle cx="1940" cy="1820" r="14.208"/><circle cx="1980" cy="1820" r="2.116"/><circle cx="140" cy="1860" r="1.398"/><circle cx="180" cy="1860" r="15.785"/><circle cx="220" cy="1860" r="18.431"/><circle cx="260" cy="1860" r="18.431"/><circle cx="300" cy="1860" r="18.29"/><circle cx="340" cy="1860" r="2.854"/><circle cx="1260" cy="1860" r="8.772"/><circle cx="1300" cy="1860" r="8.633"/><circle cx="1700" cy="1860" r="2.908"/><circle cx="1740" cy="1860" r="5.169"/><circle cx="1780" cy="1860" r="2.528"/><circle cx="1940" cy="1860" r="8.362"/><circle cx="1980" cy="1860" r="15.777"/><circle cx="2020" cy="1860" r=".812"/><circle cx="100" cy="1900" r=".505"/><circle cx="140" cy="1900" r="14.067"/><circle cx="180" cy="1900" r="17.575"/><circle cx="220" cy="1900" r="11.987"/><circle cx="260" cy="1900" r="18.431"/><circle cx="300" cy="1900" r="13.065"/><circle cx="1260" cy="1900" r="10.116"/><circle cx="1300" cy="1900" r="6.424"/><circle cx="1780" cy="1900" r="5.614"/><circle cx="1820" cy="1900" r="6.825"/><circle cx="1980" cy="1900" r="13.202"/><circle cx="2020" cy="1900" r="6.743"/><circle cx="100" cy="1940" r="7.999"/><circle cx="140" cy="1940" r="18.431"/><circle cx="180" cy="1940" r="15.146"/><circle cx="220" cy="1940" r="10.722"/><circle cx="260" cy="1940" r="18.431"/><circle cx="300" cy="1940" r="5.125"/><circle cx="1260" cy="1940" r=".663"/><circle cx="1300" cy="1940" r="10.727"/><circle cx="1340" cy="1940" r="13.059"/><circle cx="1380" cy="1940" r="7.965"/><circle cx="1420" cy="1940" r="4.241"/><circle cx="1460" cy="1940" r="1.953"/><circle cx="1540" cy="1940" r=".502"/><circle cx="1580" cy="1940" r="1.627"/><circle cx="1620" cy="1940" r="3.27"/><circle cx="1660" cy="1940" r="5.345"/><circle cx="1700" cy="1940" r="8.225"/><circle cx="1740" cy="1940" r="10.487"/><circle cx="1780" cy="1940" r="9.893"/><circle cx="1820" cy="1940" r="1.84"/><circle cx="1980" cy="1940" r="11.156"/><circle cx="2020" cy="1940" r="7.993"/><circle cx="100" cy="1980" r="5.474"/><circle cx="140" cy="1980" r="18.429"/><circle cx="180" cy="1980" r="15.15"/><circle cx="220" cy="1980" r="18.431"/><circle cx="260" cy="1980" r="15.555"/><circle cx="1340" cy="1980" r=".849"/><circle cx="1380" cy="1980" r="5.204"/><circle cx="1420" cy="1980" r="8.392"/><circle cx="1460" cy="1980" r="10.416"/><circle cx="1500" cy="1980" r="11.078"/><circle cx="1540" cy="1980" r="11.018"/><circle cx="1580" cy="1980" r="10.137"/><circle cx="1620" cy="1980" r="8.473"/><circle cx="1660" cy="1980" r="6.075"/><circle cx="1700" cy="1980" r="3"/><circle cx="1940" cy="1980" r="1.223"/><circle cx="1980" cy="1980" r="16.763"/><circle cx="2020" cy="1980" r="3.243"/><circle cx="100" cy="2020" r="5.483"/><circle cx="140" cy="2020" r="15.609"/><circle cx="180" cy="2020" r="17.854"/><circle cx="220" cy="2020" r="14.153"/><circle cx="260" cy="2020" r="5.024"/><circle cx="1900" cy="2020" r="5.251"/><circle cx="1940" cy="2020" r="15.416"/><circle cx="1980" cy="2020" r="10.547"/><circle cx="100" cy="2060" r="9.817"/><circle cx="140" cy="2060" r="14.458"/><circle cx="180" cy="2060" r="4.271"/><circle cx="1700" cy="2060" r="1.607"/><circle cx="1740" cy="2060" r="4.164"/><circle cx="1780" cy="2060" r="7.359"/><circle cx="1820" cy="2060" r="11.322"/><circle cx="1860" cy="2060" r="16.407"/><circle cx="1900" cy="2060" r="15.695"/><circle cx="1940" cy="2060" r="6.867"/><circle cx="100" cy="2100" r="12.136"/><circle cx="140" cy="2100" r="8.673"/><circle cx="180" cy="2100" r="8.13"/><circle cx="220" cy="2100" r="10.41"/><circle cx="260" cy="2100" r="12.26"/><circle cx="300" cy="2100" r="13.743"/><circle cx="340" cy="2100" r="14.877"/><circle cx="380" cy="2100" r="15.953"/><circle cx="420" cy="2100" r="16.107"/><circle cx="460" cy="2100" r="16.125"/><circle cx="500" cy="2100" r="16.125"/><circle cx="540" cy="2100" r="16.119"/><circle cx="580" cy="2100" r="16.027"/><circle cx="620" cy="2100" r="15.895"/><circle cx="660" cy="2100" r="15.045"/><circle cx="700" cy="2100" r="14.741"/><circle cx="740" cy="2100" r="14.625"/><circle cx="780" cy="2100" r="14.324"/><circle cx="820" cy="2100" r="13.328"/><circle cx="860" cy="2100" r="13.236"/><circle cx="900" cy="2100" r="13.108"/><circle cx="940" cy="2100" r="12.395"/><circle cx="980" cy="2100" r="11.809"/><circle cx="1020" cy="2100" r="11.711"/><circle cx="1060" cy="2100" r="11.603"/><circle cx="1100" cy="2100" r="11.475"/><circle cx="1140" cy="2100" r="10.734"/><circle cx="1180" cy="2100" r="10.494"/><circle cx="1220" cy="2100" r="10.494"/><circle cx="1260" cy="2100" r="10.494"/><circle cx="1300" cy="2100" r="10.494"/><circle cx="1340" cy="2100" r="10.871"/><circle cx="1380" cy="2100" r="11.512"/><circle cx="1420" cy="2100" r="11.693"/><circle cx="1460" cy="2100" r="11.922"/><circle cx="1500" cy="2100" r="13.124"/><circle cx="1540" cy="2100" r="13.705"/><circle cx="1580" cy="2100" r="14.833"/><circle cx="1620" cy="2100" r="16.281"/><circle cx="1660" cy="2100" r="17.935"/><circle cx="1700" cy="2100" r="17.763"/><circle cx="1740" cy="2100" r="15.319"/><circle cx="1780" cy="2100" r="12.286"/><circle cx="1820" cy="2100" r="8.393"/><circle cx="1860" cy="2100" r="3.543"/><circle cx="340" cy="2140" r=".74"/><circle cx="380" cy="2140" r=".897"/><circle cx="420" cy="2140" r=".994"/><circle cx="460" cy="2140" r="1.335"/><circle cx="500" cy="2140" r="2.12"/><circle cx="540" cy="2140" r="2.266"/><circle cx="580" cy="2140" r="2.356"/><circle cx="620" cy="2140" r="2.682"/><circle cx="660" cy="2140" r="3.762"/><circle cx="700" cy="2140" r="3.872"/><circle cx="740" cy="2140" r="3.96"/><circle cx="780" cy="2140" r="4.872"/><circle cx="820" cy="2140" r="5.151"/><circle cx="860" cy="2140" r="5.261"/><circle cx="900" cy="2140" r="6.466"/><circle cx="940" cy="2140" r="6.707"/><circle cx="980" cy="2140" r="6.802"/><circle cx="1020" cy="2140" r="7.396"/><circle cx="1060" cy="2140" r="7.942"/><circle cx="1100" cy="2140" r="8.072"/><circle cx="1140" cy="2140" r="8.144"/><circle cx="1180" cy="2140" r="8.227"/><circle cx="1220" cy="2140" r="8.227"/><circle cx="1260" cy="2140" r="8.227"/><circle cx="1300" cy="2140" r="8.227"/><circle cx="1340" cy="2140" r="8.227"/><circle cx="1380" cy="2140" r="8.171"/><circle cx="1420" cy="2140" r="8.054"/><circle cx="1460" cy="2140" r="7.478"/><circle cx="1500" cy="2140" r="6.735"/><circle cx="1540" cy="2140" r="5.725"/><circle cx="1580" cy="2140" r="4.634"/><circle cx="1620" cy="2140" r="3.31"/><circle cx="1660" cy="2140" r="1.574"/></svg>